<svg preserveAspectRatio="xMidYMid meet" viewBox="0 0 88 87" fill="none" xmlns="http://www.w3.org/2000/svg">
  <g filter="url(#filter0_d_353_94528)">
    <path
      d="M44.0048 8C44.5607 8.00037 45.1055 8.15895 45.5761 8.45801C46.047 8.75735 46.4249 9.18561 46.664 9.69336L46.6757 9.71875L46.6884 9.74414L55.7646 28.1104L55.7959 28.1729L55.8261 28.2266C55.8274 28.2291 55.8288 28.2322 55.83 28.2344L55.8261 28.2275L56.5175 29.6455L58.0791 29.8799L58.1406 29.8916L58.2138 29.9033L78.1953 32.8711L78.2685 32.8818L78.3427 32.8896C78.9018 32.9447 79.4345 33.1588 79.8769 33.5088C80.3195 33.8589 80.6531 34.3307 80.8379 34.8672C81.0225 35.4036 81.0504 35.9824 80.917 36.5342C80.7835 37.0859 80.4948 37.5868 80.0869 37.9775L80.081 37.9824L80.0761 37.9883L65.5273 52.0654L65.5009 52.0889L65.4277 52.1582C65.0326 52.5362 64.7429 53.0098 64.5849 53.5322L64.5634 53.6025L64.5459 53.6748C64.5195 53.7806 64.4674 54.0045 64.4531 54.291C64.4492 54.3689 64.4471 54.4873 64.456 54.6348V54.752L64.499 55.002L67.9853 75.459L67.9873 75.4697C68.0843 76.0269 68.0235 76.6004 67.8115 77.124C67.626 77.5823 67.3314 77.9859 66.956 78.3008L66.791 78.4297C66.3366 78.7596 65.7994 78.9547 65.2412 78.9932C64.683 79.0315 64.1244 78.9119 63.6298 78.6475L63.6191 78.6416L45.6152 69.1064L45.5166 69.0537L45.414 69.0088L45.2461 68.9404C44.907 68.8125 44.5498 68.7385 44.1875 68.7197L44.0058 68.7148C43.5209 68.7148 43.0412 68.8148 42.5976 69.0088L42.4941 69.0547L42.3955 69.1064L24.3916 78.6475L24.3896 78.6484C23.8943 78.9114 23.3355 79.0296 22.7773 78.9902C22.2193 78.9508 21.6826 78.756 21.2285 78.4258C20.7742 78.0954 20.4201 77.6426 20.208 77.1191C19.9963 76.5968 19.9339 76.0182 20.0302 75.46L20.0312 75.4541L23.5175 55.0078L23.5605 54.7578V54.5352C23.5685 54.2333 23.5346 53.9315 23.457 53.6387L23.4013 53.4502L23.3339 53.2666C23.1631 52.8423 22.9016 52.4588 22.5673 52.1436L22.5019 52.082L22.4873 52.0693L7.92867 37.9932L7.91598 37.9805L7.76852 37.8291C7.43731 37.4639 7.20121 37.0195 7.08395 36.5361C6.95007 35.984 6.97733 35.4051 7.16207 34.8682C7.34691 34.3311 7.68087 33.8591 8.12399 33.5088C8.56698 33.1586 9.10036 32.9442 9.66012 32.8896L9.73531 32.8828L9.81051 32.8711L29.7978 29.9033L29.8711 29.8916L29.9326 29.8799L31.4931 29.6455L32.1845 28.2275C32.1833 28.23 32.1819 28.2322 32.1806 28.2344L32.2148 28.1729L32.2461 28.1104L41.3222 9.74414L41.3349 9.71875L41.3466 9.69336C41.5857 9.18561 41.9636 8.75736 42.4345 8.45801C42.9048 8.15907 43.4494 8.00063 44.0048 8Z"
      stroke="#1E1E1E" stroke-width="6" shape-rendering="crispEdges" />
  </g>
  <defs>
    <filter id="filter0_d_353_94528" x="3.99996" y="5" width="82" height="79" filterUnits="userSpaceOnUse"
      color-interpolation-filters="sRGB">
      <feFlood flood-opacity="0" result="BackgroundImageFix" />
      <feColorMatrix in="SourceAlpha" type="matrix" values="0 0 0 0 0 0 0 0 0 0 0 0 0 0 0 0 0 0 127 0"
        result="hardAlpha" />
      <feOffset dx="2" dy="2" />
      <feComposite in2="hardAlpha" operator="out" />
      <feColorMatrix type="matrix" values="0 0 0 0 0.117647 0 0 0 0 0.117647 0 0 0 0 0.117647 0 0 0 1 0" />
      <feBlend mode="normal" in2="BackgroundImageFix" result="effect1_dropShadow_353_94528" />
      <feBlend mode="normal" in="SourceGraphic" in2="effect1_dropShadow_353_94528" result="shape" />
    </filter>
  </defs>
</svg>
