<svg preserveAspectRatio="xMidYMid meet" viewBox="0 0 14 14" fill="none" xmlns="http://www.w3.org/2000/svg">
  <g clip-path="url(#clip0_154_107)">
    <path fill-rule="evenodd" clip-rule="evenodd"
      d="M6.48002 0.500009C6.48002 0.434095 6.49305 0.368831 6.51836 0.307972C6.54368 0.247113 6.58078 0.191859 6.62752 0.145391C6.67427 0.098922 6.72975 0.062155 6.79075 0.0372047C6.85176 0.0122545 6.9171 -0.000386484 6.98302 9.00085e-06C7.18176 0.00114608 7.37601 0.0592049 7.54278 0.167312C7.70955 0.275419 7.84185 0.429047 7.92402 0.610009L9.51202 3.96601C9.51445 3.9713 9.51678 3.97663 9.51902 3.98201C9.5204 3.98524 9.5226 3.98805 9.52541 3.99015C9.52822 3.99226 9.53153 3.99359 9.53502 3.99401L9.54102 3.99501L13.081 4.50501L13.09 4.50601C13.2889 4.53809 13.4749 4.62518 13.6269 4.75743C13.7789 4.88968 13.8909 5.06182 13.9502 5.25438C14.0095 5.44695 14.0138 5.65226 13.9625 5.84711C13.9112 6.04196 13.8064 6.21858 13.66 6.35701L11.108 8.98001L11.106 8.98201C11.0973 8.99086 11.0908 9.00161 11.087 9.01342C11.0832 9.02522 11.0822 9.03774 11.084 9.05001L11.722 12.743V12.745C11.7561 12.9395 11.7352 13.1395 11.6616 13.3228C11.5881 13.506 11.4649 13.665 11.3059 13.7819C11.1468 13.8989 10.9583 13.9691 10.7615 13.9846C10.5647 14.0002 10.3675 13.9605 10.192 13.87L6.99302 12.131C6.98064 12.1246 6.96695 12.1212 6.95302 12.121C6.82338 12.1166 6.70053 12.062 6.6104 11.9687C6.52028 11.8754 6.46994 11.7507 6.47002 11.621L6.48002 0.500009Z"
      id="path-light" />
    <path fill-rule="evenodd" clip-rule="evenodd"
      d="M7.51803 0.500009C7.51803 0.434095 7.505 0.368831 7.47968 0.307972C7.45437 0.247113 7.41727 0.191859 7.37052 0.145391C7.32378 0.098922 7.2683 0.062155 7.20729 0.0372047C7.14628 0.0122545 7.08094 -0.000386484 7.01503 9.00085e-06C6.81629 0.00114608 6.62204 0.0592049 6.45527 0.167312C6.2885 0.275419 6.1562 0.429047 6.07403 0.610009L4.48603 3.96601C4.4836 3.9713 4.48127 3.97663 4.47903 3.98201C4.47765 3.98524 4.47545 3.98805 4.47264 3.99015C4.46983 3.99226 4.46651 3.99359 4.46303 3.99401L4.45703 3.99501L0.917029 4.50501L0.908029 4.50601C0.709112 4.53809 0.523136 4.62518 0.371125 4.75743C0.219114 4.88968 0.10713 5.06182 0.0478311 5.25438C-0.0114675 5.44695 -0.0157156 5.65226 0.0355672 5.84711C0.0868499 6.04196 0.191618 6.21858 0.338029 6.35701L2.89003 8.98001L2.89203 8.98201C2.90072 8.99086 2.90723 9.00161 2.91104 9.01342C2.91486 9.02522 2.91588 9.03774 2.91403 9.05001L2.27603 12.743V12.745C2.24196 12.9395 2.26287 13.1395 2.3364 13.3228C2.40992 13.506 2.53315 13.665 2.69219 13.7819C2.85123 13.8989 3.03977 13.9691 3.23656 13.9846C3.43336 14.0002 3.63058 13.9605 3.80603 13.87L7.00503 12.131C7.01741 12.1246 7.0311 12.1212 7.04503 12.121C7.17467 12.1166 7.29752 12.062 7.38764 11.9687C7.47777 11.8754 7.5281 11.7507 7.52803 11.621L7.51803 0.500009Z"
      id="path-dark" />
  </g>
  <defs>
    <clipPath id="clip0_154_107">
      <rect width="14" height="14" fill="white" />
    </clipPath>
  </defs>
</svg>
