<svg preserveAspectRatio="xMidYMid meet" viewBox="0 0 88 87" fill="none" xmlns="http://www.w3.org/2000/svg">
  <g filter="url(#filter0_d_353_94496)">
    <path fill-rule="evenodd" clip-rule="evenodd"
      d="M44.0056 5C42.8793 5.0005 41.7764 5.32177 40.8252 5.92641C39.8741 6.53105 39.1138 7.39417 38.633 8.41524L29.5568 26.7808C29.5328 26.8241 29.51 26.868 29.4882 26.9126C29.4442 26.9192 29.4004 26.9268 29.3568 26.9355L9.36974 29.9038C8.23623 30.0141 7.15819 30.4486 6.26388 31.1555C5.36956 31.8624 4.69663 32.812 4.32514 33.8914C3.95364 34.9707 3.89923 36.1343 4.16837 37.2438C4.43751 38.3532 5.01887 39.3618 5.84329 40.1495L20.4749 54.2975L20.5092 54.3262C20.5299 54.3457 20.5454 54.37 20.5544 54.397C20.5634 54.4241 20.5655 54.4529 20.5607 54.4809V54.5038L17.0742 74.9495C16.8828 76.058 17.0053 77.2038 17.4276 78.2461C17.85 79.2883 18.5554 80.191 19.4636 80.8516C20.3719 81.5122 21.4467 81.9043 22.5661 81.9833C23.6854 82.0623 24.8044 81.8251 25.796 81.2986L43.7998 71.7577C43.8647 71.7293 43.9348 71.7146 44.0056 71.7146C44.0764 71.7146 44.1464 71.7293 44.2113 71.7577L62.2151 81.2929C63.2062 81.8228 64.3259 82.063 65.4465 81.9859C66.5672 81.9089 67.6437 81.5178 68.5534 80.8572C69.4631 80.1966 70.1694 79.2931 70.5918 78.2496C71.0143 77.2061 71.1358 76.0646 70.9426 74.9552L67.4562 54.4981V54.4809C67.4448 54.458 67.4505 54.4236 67.4562 54.4007C67.4648 54.3723 67.4805 54.3467 67.5019 54.3262L67.5362 54.2975L82.1621 40.1438C82.9848 39.3558 83.5645 38.3476 83.8326 37.2391C84.1007 36.1305 84.0458 34.9681 83.6745 33.8899C83.3032 32.8116 82.631 31.8629 81.7379 31.1563C80.8447 30.4498 79.768 30.015 78.6357 29.9038L58.6544 26.9355C58.6107 26.9268 58.5669 26.9192 58.5229 26.9126C58.5012 26.868 58.4783 26.8241 58.4543 26.7808L49.3781 8.41524C48.8973 7.39417 48.1371 6.53105 47.1859 5.92641C46.2347 5.32177 45.1318 5.0005 44.0056 5Z"
      fill="#1E1E1E" fill-opacity="0.75" shape-rendering="crispEdges" />
    <path
      d="M44.0049 8C44.5607 8.00037 45.1056 8.15895 45.5762 8.45801C46.0471 8.75735 46.425 9.18561 46.6641 9.69336L46.6758 9.71875L46.6885 9.74414L55.7646 28.1104L55.7959 28.1729L55.8262 28.2266C55.8274 28.2291 55.8289 28.2322 55.8301 28.2344L55.8262 28.2275L56.5176 29.6455L58.0791 29.8799L58.1406 29.8916L58.2139 29.9033L78.1953 32.8711L78.2685 32.8818L78.3428 32.8896C78.9018 32.9447 79.4346 33.1588 79.8769 33.5088C80.3195 33.8589 80.6531 34.3307 80.8379 34.8672C81.0225 35.4036 81.0504 35.9824 80.917 36.5342C80.7835 37.0859 80.4948 37.5868 80.0869 37.9775L80.081 37.9824L80.0762 37.9883L65.5273 52.0654L65.501 52.0889L65.4277 52.1582C65.0327 52.5362 64.743 53.0098 64.585 53.5322L64.5635 53.6025L64.5459 53.6748C64.5195 53.7806 64.4674 54.0045 64.4531 54.291C64.4492 54.3689 64.4471 54.4873 64.456 54.6348V54.752L64.499 55.002L67.9853 75.459L67.9873 75.4697C68.0843 76.0269 68.0235 76.6004 67.8115 77.124C67.626 77.5823 67.3314 77.9859 66.956 78.3008L66.791 78.4297C66.3366 78.7596 65.7994 78.9547 65.2412 78.9932C64.683 79.0315 64.1245 78.9119 63.6299 78.6475L63.6191 78.6416L45.6152 69.1064L45.5166 69.0537L45.4141 69.0088L45.2461 68.9404C44.907 68.8125 44.5498 68.7385 44.1875 68.7197L44.0059 68.7148C43.521 68.7148 43.0413 68.8148 42.5976 69.0088L42.4941 69.0547L42.3955 69.1064L24.3916 78.6475L24.3896 78.6484C23.8943 78.9114 23.3355 79.0296 22.7773 78.9902C22.2193 78.9508 21.6826 78.756 21.2285 78.4258C20.7742 78.0954 20.4201 77.6426 20.208 77.1191C19.9964 76.5968 19.9339 76.0182 20.0303 75.46L20.0312 75.4541L23.5176 55.0078L23.5605 54.7578V54.5352C23.5685 54.2333 23.5346 53.9315 23.457 53.6387L23.4014 53.4502L23.334 53.2666C23.1632 52.8423 22.9016 52.4588 22.5674 52.1436L22.5019 52.082L22.4873 52.0693L7.9287 37.9932L7.91601 37.9805L7.76855 37.8291C7.43734 37.4639 7.20124 37.0195 7.08398 36.5361C6.9501 35.984 6.97736 35.4051 7.1621 34.8682C7.34694 34.3311 7.6809 33.8591 8.12402 33.5088C8.56701 33.1586 9.1004 32.9442 9.66015 32.8896L9.73534 32.8828L9.81054 32.8711L29.7978 29.9033L29.8711 29.8916L29.9326 29.8799L31.4932 29.6455L32.1846 28.2275C32.1834 28.23 32.1819 28.2322 32.1807 28.2344L32.2148 28.1729L32.2461 28.1104L41.3223 9.74414L41.335 9.71875L41.3467 9.69336C41.5858 9.18561 41.9637 8.75736 42.4346 8.45801C42.9048 8.15907 43.4494 8.00063 44.0049 8Z"
      stroke="#1E1E1E" stroke-width="6" shape-rendering="crispEdges" />
  </g>
  <defs>
    <filter id="filter0_d_353_94496" x="3.99999" y="5" width="82" height="79" filterUnits="userSpaceOnUse"
      color-interpolation-filters="sRGB">
      <feFlood flood-opacity="0" result="BackgroundImageFix" />
      <feColorMatrix in="SourceAlpha" type="matrix" values="0 0 0 0 0 0 0 0 0 0 0 0 0 0 0 0 0 0 127 0"
        result="hardAlpha" />
      <feOffset dx="2" dy="2" />
      <feComposite in2="hardAlpha" operator="out" />
      <feColorMatrix type="matrix" values="0 0 0 0 0.117647 0 0 0 0 0.117647 0 0 0 0 0.117647 0 0 0 1 0" />
      <feBlend mode="normal" in2="BackgroundImageFix" result="effect1_dropShadow_353_94496" />
      <feBlend mode="normal" in="SourceGraphic" in2="effect1_dropShadow_353_94496" result="shape" />
    </filter>
  </defs>
</svg>
