<svg width="155" height="154" viewBox="0 0 155 154" fill="none" xmlns="http://www.w3.org/2000/svg">
  <path
    d="M18.5359 126.083C-1.58926 100.403 -5.78304 72.4817 8.20092 43.5047C22.2711 14.349 46.9096 -0.220426 79.3411 0.00252022C119.705 0.279978 152.995 33.6945 154.164 74.2114C155.342 115.032 124.519 149.77 84.1474 152.934C57.9705 154.986 36.232 145.858 18.5359 126.083ZM139.071 90.302C144.045 65.3745 137.007 44.1909 117.547 28.1447C97.3979 11.5305 74.3356 8.60388 50.6509 19.6125C27.3396 30.4476 14.9572 49.6981 14.084 75.3667C12.9806 107.803 37.1339 134.868 70.1591 139.362C101.063 143.567 131.078 122.514 139.071 90.302Z"
    fill="#060606" />
  <path
    d="M110.185 87.4869C112.679 88.8841 114.848 90.0912 117.01 91.3123C117.139 91.3851 117.204 91.5703 117.299 91.7032C112.55 107.977 94.2371 120.192 76.0418 119.223C55.9782 118.155 39.4291 104.137 35.7968 85.1349C31.9656 65.0916 41.9536 45.7998 60.4052 37.6038C78.273 29.6671 99.3017 34.8953 111.465 50.6252C102.632 58.078 93.7755 65.5504 84.3732 73.4834C93.097 78.2126 101.479 82.7563 110.185 87.4869Z"
    fill="#030303" />
</svg>
