<svg width="1024" height="1024" viewBox="0 0 1024 1024" fill="none" xmlns="http://www.w3.org/2000/svg">
  <path
    d="M953.515 738.425C926.039 791.516 890.674 838.084 846.766 878.179C787.988 931.85 720.252 969.263 643.559 990.383C612.369 998.973 580.616 1004.47 548.269 1006.45C522.456 1008.03 496.623 1008.31 470.892 1006.08C394.872 999.47 323.91 976.803 258.489 937.364C188.371 895.093 132.066 838.822 89.5914 768.872C58.2382 717.237 37.4306 661.551 26.4332 602.099C19.3641 563.884 17.0411 525.356 19.0977 486.717C23.9505 395.549 51.5693 311.661 103.045 236.101C167.709 141.182 255.082 76.2545 364.346 40.975C397.372 30.3118 431.315 23.8178 465.906 20.5693C495.183 17.8197 524.503 17.4485 553.724 19.9585C643.11 27.6362 724.881 56.8684 798.199 108.79C872.088 161.116 927.646 228.725 964.786 311.313C983.458 352.833 995.774 396.226 1002.48 441.298C1007.25 473.398 1008.59 505.656 1007.04 537.934C1004.22 596.822 991.252 653.552 967.82 707.754C963.395 717.991 958.412 727.987 953.515 738.425ZM748.885 186.646C687.646 142.627 619.368 117.568 544.266 111.509C505.049 108.344 466.077 111.039 427.591 119.474C355.809 135.208 292.924 168.189 239.017 217.992C198.107 255.788 166.474 300.398 144.097 351.451C122.093 401.65 110.979 454.224 110.314 509.014C110.076 528.687 111.507 548.241 114.098 567.752C119.017 604.798 128.962 640.43 144.071 674.556C173.236 740.428 216.789 794.919 274.857 837.583C333.324 880.541 398.803 905.827 470.931 913.527C500.652 916.7 530.419 916.389 560.162 912.849C589.201 909.393 617.559 903.073 645.123 893.381C713.594 869.304 771.513 829.693 818.838 774.653C852.806 735.145 878.18 690.679 894.735 641.295C912.857 587.234 919.283 531.791 913.876 474.943C910.144 435.714 901.16 397.817 886.164 361.409C856.96 290.503 811.269 232.45 748.885 186.646Z"
    fill="black" />
  <path
    d="M552.118 757.246C552.55 768.739 552.55 768.739 541.761 769.999C532.996 771.023 531.436 769.549 531.848 760.738C531.937 758.819 532.753 756.394 530.253 755.516C527.591 754.581 525.371 755.805 523.802 758.093C521.973 760.759 521.318 763.903 520.406 766.917C519.559 769.72 517.86 770.637 515.128 769.986C514.804 769.909 514.483 769.763 514.158 769.753C506.229 769.507 501.084 766.448 500.875 757.567C500.787 753.838 499.242 750.847 494.465 751.098C492.168 751.219 490.779 752.126 489.547 753.875C487.509 756.768 484.485 758.121 481.132 758.808C475.332 759.995 471.236 757.684 469.73 752.002C467.202 742.471 468.435 732.831 469.426 723.244C470.008 717.622 469.34 716.879 463.326 717.988C462.521 721.036 464.102 724.083 463.704 727.18C463.298 730.34 462.544 733.383 461.305 736.318C457.209 746.012 450.878 748.407 441.418 743.827C439.474 742.886 438.382 741.183 437.764 739.27C436.591 735.634 435.7 731.908 434.554 728.262C433.842 725.999 433.758 723.339 431.355 721.829C429.418 723.35 430.201 725.355 429.915 727.061C429.195 731.363 427.04 732.379 423.305 730.057C420.936 728.585 419.512 726.41 418.648 723.776C417.638 720.695 417.463 717.515 417.762 714.375C419.848 692.497 396.705 678.23 378.843 679.462C375.425 679.698 372.498 681.425 369.698 683.249C363.195 687.485 356.9 687.402 350.763 682.534C350.633 682.431 350.495 682.334 350.35 682.252C337.357 674.905 334.579 663.413 337.194 649.755C337.945 645.835 338.582 641.878 339.617 638.03C344.035 621.597 339.99 606.33 333.011 591.621C328.016 581.094 322.311 570.905 317 560.526C302.785 532.747 295.605 502.979 291.57 472.222C286.195 431.249 296.543 393.317 313.022 356.469C315.197 351.606 317.751 346.912 319.942 342.056C325.577 329.567 334.657 320.399 346.627 313.949C365.109 303.99 382.144 291.566 401.033 282.277C428.373 268.833 457.155 260.762 487.444 257.542C527.848 253.246 567.602 256.232 606.549 267.786C631.725 275.255 655.206 286.04 673.488 305.858C680.026 312.946 683.863 321.721 689.001 329.68C697.766 343.258 706.529 356.828 714.772 370.742C724.755 387.594 730.397 405.729 731.101 425.178C731.849 445.818 734.959 466.254 735.573 486.904C736.021 502.002 734.109 516.425 727.288 530.026C721.912 540.746 717.023 551.74 711.115 562.158C700.653 580.608 697.055 600.37 697.898 621.273C698.221 629.283 698.896 636.891 702.566 644.458C708.286 656.25 700.71 676.556 688.614 685.738C677.424 694.233 664.628 695.032 651.482 693.784C645.086 693.177 638.839 693.58 632.593 694.584C625.283 695.759 619.159 699.086 616.306 706.264C612.691 715.361 606.197 720.856 596.942 723.378C588.379 725.712 583.085 730.189 583.822 740.171C584.208 745.397 582.775 750.743 582.335 756.049C582.08 759.121 580.633 760.033 577.7 759.586C574.368 759.077 571.786 757.559 569.775 754.884C568.032 752.566 567.188 749.864 566.268 747.191C563.701 739.738 563.779 740.003 556.309 741.817C552.171 742.822 550.779 744.878 551.31 748.838C551.664 751.472 551.835 754.131 552.118 757.246ZM375.581 581.056C375.45 582.883 375.649 584.81 375.127 586.517C373.548 591.68 376.582 592.608 380.556 592.865C384.794 593.138 388.856 592.165 392.802 590.839C403.494 587.246 413.143 589.033 422.823 594.811C441.526 605.976 465.337 598.366 474.35 578.646C477.841 571.008 481.451 563.703 488.041 558.094C491.884 554.823 493.229 550.513 492.149 545.054C488.491 526.553 477.972 515.316 459.368 511.187C446.16 508.257 432.751 507.212 419.422 505.37C402.256 502.998 386.379 505.951 371.557 515.086C367.198 517.772 365.396 521.206 365.311 526.115C365.153 535.279 367.749 543.874 370.532 552.414C373.483 561.467 375.967 570.57 375.581 581.056ZM633.188 600.661C642.241 595.697 651.017 590.1 660.445 586.001C666.408 583.408 667.68 579.701 667.739 574.068C667.901 558.569 665.831 543.128 666.669 527.624C666.839 524.48 665.36 522.447 662.604 521.482C659.955 520.555 657.181 519.61 654.417 519.452C645.377 518.938 636.674 516.994 627.982 514.563C620.154 512.374 612.143 510.079 603.897 511.981C585.065 516.326 568.537 526.196 551.29 534.327C550.273 534.807 549.378 535.693 548.629 536.564C546.509 539.03 544.793 541.859 545.501 545.196C547.875 556.38 551.202 567.141 560.094 575.202C567.746 582.139 575.385 589.093 582.909 596.169C589.383 602.257 597.015 605.364 605.817 606.002C615.179 606.681 624.058 605.05 633.188 600.661ZM540.287 653.3C543.84 654.797 547.512 655.57 551.381 655.974C556.136 656.471 558.142 654.388 559.67 650.16C564.149 637.763 561.464 626.725 553.413 616.992C543.594 605.122 535.098 592.467 528.107 578.759C527.062 576.711 525.698 574.707 524.07 573.098C520.064 569.139 513.661 570.526 511.66 575.71C507.682 586.017 501.995 595.433 496.514 604.951C490.228 615.865 485.632 627.355 483.572 639.84C482.07 648.946 482.783 650.853 490.786 655.66C493.347 657.198 496.023 658.593 498.77 659.764C505.217 662.511 506.694 662.194 511.125 656.579C515.228 651.377 521.164 648.662 526.791 646.295C530.574 644.703 533.607 650.23 537.406 651.783C538.172 652.096 538.874 652.565 540.287 653.3Z"
    fill="black" />
  <path
    d="M716.803 296.998C710.258 301.248 703.917 301.588 697.931 296.985C692.931 293.14 690.807 287.791 692.075 281.511C693.403 274.932 698.389 270.382 705.013 269.22C711.47 268.088 718.235 271.516 721.263 277.453C724.76 284.311 723.397 290.634 716.803 296.998ZM700.002 293.003C700.002 293.003 700.027 293.03 700.517 293.542C706.674 297.204 712.969 296.402 716.487 291.507C720.082 286.503 719.292 279.534 714.701 275.769C710.141 272.029 702.887 272.594 698.877 277.002C694.766 281.521 695.216 288.058 700.002 293.003Z"
    fill="black" />
  <path
    d="M699.99 292.991C699.931 288.823 699.956 284.666 699.815 280.514C699.706 277.311 701.204 275.947 704.303 275.996C706.813 276.036 709.351 276.119 711.612 277.245C713.359 278.115 714.882 280.243 713.875 281.718C711.355 285.411 712.658 288.728 714.23 292.219C708.593 295.165 709.141 287.814 705.413 287.663C703.28 288.803 705.465 293.978 700.432 293.072C700.027 293.029 700.002 293.003 699.99 292.991Z"
    fill="black" />
</svg>
