<svg width="685" height="857" viewBox="0 0 685 857" fill="none" xmlns="http://www.w3.org/2000/svg">
  <path
    d="M114 139.5L143 176L537 499L617.5 519L643.5 494.5L671.5 423.5V330L643.5 212L578 99L467.5 38L345 12.5L195.5 31.5L102 94L114 139.5Z"
    fill="#EC1F46" />
  <path
    d="M41 648.5L69.5 611L58 606.5L69.5 548L61 539.5L32.5 548L10 539.5L17.5 502L73.5 429L61 403.5V345L81.5 264.5L157.5 164.5L237.5 108L321.5 98L367.5 108L484.5 147.5L552.5 208.5L584.5 264.5L593 342L575.5 422L539.5 502L455 598.5L425.5 674.5L435.5 747.5L429.5 811.5L407.5 845L330.5 852.5H206.5L177 846L164 824.5L158 785L159.5 754.5L143.5 742.5L105 740.5L68 734.5L49 708.5L44 687L58 665.5L41 648.5Z"
    fill="#F9D407" />
  <path
    d="M15.3094 551.406C14.5556 550.944 14.1297 550.678 13.6774 550.47C9.56001 548.576 3.16667 548.581 2.05093 543.96C0.119349 535.96 -1.90324 527.322 3.35389 519.477C4.62899 517.574 5.53965 515.866 4.43049 513.522C3.648 511.867 4.44483 509.959 5.31011 508.765C11.4264 500.321 12.9885 489.619 19.6478 481.306C24.1226 475.719 29.5467 471.023 33.5996 465.073C40.7864 454.522 50.1638 445.757 58.0811 435.785C63.8668 428.498 63.6954 420.367 60.0173 412.795C57.908 408.452 56.8205 403.304 52.9547 399.804C52.427 399.326 52.143 398.272 52.1904 397.513C52.9149 385.922 49.4206 374.585 50.8384 362.807C51.6978 355.668 51.986 348.271 52.2551 340.971C52.5522 332.911 54.2974 324.91 57.1687 317.334C58.5812 313.607 57.8741 309.81 58.8244 306.062C61.8273 294.219 66.5243 282.986 70.4769 271.486C74.281 260.418 80.7176 250.524 86.4629 240.638C91.4203 232.108 96.0834 223.086 102.24 214.976C107.33 208.27 112.968 201.488 116.458 193.539C117.911 190.229 120.333 187.893 123.078 185.604C131.152 178.873 132.541 174.887 125.697 166.667C118.049 157.481 109.542 148.104 106.729 135.555C106.063 132.584 104.257 129.656 102.326 127.224C97.2005 120.768 95.0131 113.229 93.4747 105.396C92.6982 101.442 91.0196 97.9347 91.7352 93.3542C92.8428 86.2638 97.9665 82.8727 102.42 79.11C109.625 73.0211 117.482 67.6556 125.354 62.4215C129.209 59.8585 129.52 54.8461 133.419 52.497C139.979 48.544 146.075 43.8436 153.595 41.5301C156.348 40.6829 158.477 37.8316 161.229 36.9464C168.992 34.4495 176.01 30.1397 184.325 28.8307C193.455 27.3936 201.504 22.3454 209.933 18.6959C215.477 16.2951 221.442 15.6693 227.085 14.6727C237.782 12.7836 248.266 10.4093 258.581 7.12418C259.89 6.70724 261.121 6.6161 262.481 6.70362C266.608 6.96931 270.565 6.95283 274.635 5.18289C279.128 3.22961 284.185 4.78538 288.941 5.01082C297.362 5.41006 305.285 2.83601 313.461 1.86828C322.589 0.787879 331.738 1.0843 340.874 1.73872C343.548 1.93029 346.159 2.30367 348.744 1.22291C353.544 -0.783342 358.519 -0.326173 362.415 2.63211C371.378 9.4379 382.005 10.1597 392.385 11.8812C398.907 12.963 405.235 14.8511 411.686 16.1283C418.971 17.5705 426.436 18.0832 433.804 19.1252C439.858 19.9813 445.901 20.9293 451.696 23.0339C453.079 23.5359 454.574 23.9389 456.031 23.9892C466.437 24.3479 475.917 27.9615 485.291 32.0419C487.569 33.0331 490.004 33.6557 492.33 34.543C502.816 38.5429 511.892 44.7655 520.453 51.943C529.132 59.2189 539.075 64.6409 548.586 70.7232C561.237 78.8134 574.183 87.0531 584.793 97.7306C598.116 111.138 609.998 125.957 616.393 144.245C617.361 147.014 619.102 149.156 620.707 151.469C625.499 158.372 628.971 166.091 633.306 173.165C638.575 181.762 643.128 190.755 648.443 199.313C651.402 204.077 652.911 209.493 653.94 215.157C655.258 222.413 657.506 229.568 661.426 235.95C662.468 237.647 662.362 239.415 662.933 241.071C666.506 251.453 667.14 262.346 669.058 273.02C669.988 278.196 673.403 282.86 674.669 288.252C675.219 290.594 676.58 292.706 676.14 295.328C675.806 297.315 676.696 298.988 678.368 300.02C680.564 301.375 681.379 303.524 680.618 305.603C677.658 313.691 681.088 321.285 682.338 328.964C682.913 332.493 683.323 334.576 678.275 334.468C681.366 337.696 682.183 340.753 681.806 344.503C681.464 347.906 680.954 351.726 682.628 354.817C684.376 358.044 684.709 361.011 683.399 364.247C681.64 368.589 681.803 373.025 681.799 377.634C681.79 387.538 678.375 397.035 677.338 406.854C677.269 407.504 676.8 408.282 677.024 408.767C680.298 415.873 677.319 422.727 676.175 429.618C675.703 432.464 677.405 434.787 677.066 437.82C676.466 443.173 673.915 447.244 671.512 451.696C667.906 458.379 667.949 466.363 664.53 473.172C659.784 482.624 655.164 492.147 650.136 501.447C647.873 505.632 646.025 510.14 642.228 513.438C635.995 518.853 629.596 523.696 620.752 523.434C620.15 523.416 619.183 523.547 618.985 523.924C616.431 528.787 611.027 524.319 607.808 527.359C607.146 527.984 605.826 526.485 605.29 525.414C603.701 522.243 601.051 521.844 597.773 521.818C592.849 521.78 587.977 520.748 583.104 520.015C573.378 518.551 564.919 514.078 555.831 511.184C552.112 510 547.713 510.815 543.683 509.68C541.912 509.181 540.664 510.638 539.742 512.164C537.686 515.57 535.178 518.747 534.563 522.854C534.49 523.338 534.371 523.948 534.043 524.242C526.771 530.759 525.658 541.941 516.56 547.167C514.671 548.251 513.509 550.604 512.021 552.38C508.077 557.087 504.099 561.676 499.129 565.465C494.234 569.197 490.552 574.167 487.598 579.677C485.788 583.054 483.166 585.868 479.504 587.495C478.797 587.81 477.938 588.324 477.657 588.969C475.814 593.186 472.814 596.504 469.438 599.453C464.149 604.074 462.316 611.107 457.916 616.094C452.32 622.438 450.322 629.984 447.938 637.542C447.419 639.186 446.627 640.579 445.721 641.956C443.138 645.887 441.644 649.91 441.553 654.881C441.459 660.056 438.451 664.798 437.664 670.144C436.666 676.925 437.383 683.571 437.181 690.27C437.004 696.175 438.864 702.081 437.09 707.981C436.553 709.765 436.616 711.597 437.37 713.358C441.664 723.391 442.566 734.011 442.864 744.749C442.894 745.859 443.298 747.051 443.834 748.039C447.811 755.374 447.211 762.764 444.071 770.121C443.125 772.339 442.671 774.531 442.776 776.899C442.931 780.428 442.905 783.877 440.346 786.8C439.319 787.975 439.623 789.651 439.574 791.146C439.52 792.809 439.992 794.785 439.266 796.081C435.985 801.93 437.916 808.667 435.731 814.674C433.074 821.98 432.592 830.227 425.873 835.71C423.857 837.356 422.553 839.981 421.386 842.208C418.292 848.11 411.549 849.918 408.006 855.164C406.968 856.701 405.052 856.476 403.384 856.474C364.393 856.434 325.402 856.384 286.412 856.356C281.915 856.353 277.419 856.522 272.923 856.523C245.299 856.532 217.668 856.12 190.059 856.741C181.507 856.934 175.833 853.092 170.378 847.974C167.651 845.414 164.213 842.357 163.26 839.333C161.717 834.435 158.603 830.711 156.488 826.331C152.522 818.118 152.585 809.003 150.366 800.405C149.94 798.755 150.465 796.752 150.918 795.006C151.857 791.387 151.132 787.935 150.826 784.316C150.271 777.77 150.921 771.114 151.179 764.509C151.578 754.27 146.62 748.409 136.403 747.56C130.327 747.056 124.28 747.675 118.182 745.696C114.504 744.501 109.915 746.003 105.941 746.727C98.9791 747.994 92.2624 747.664 85.892 745.274C80.1356 743.114 74.3375 742.816 68.4196 742.594C64.5993 742.451 61.6568 740.5 59.6266 737.609C56.2303 732.773 51.9762 728.741 47.5633 725.034C42.9251 721.137 39.6003 716.715 37.8937 710.988C36.7071 707.005 35.6076 702.995 34.3391 699.039C33.0532 695.029 35.9204 691.722 35.9994 687.864C36.1557 680.235 37.9725 672.923 42.6745 666.656C44.6145 664.071 44.317 661.999 41.5312 660.498C38.5669 658.9 37.3904 655.777 35.1956 653.538C34.9697 653.307 34.6271 652.845 34.7074 652.71C37.3317 648.303 33.9352 643.194 36.604 638.642C41.0412 631.073 45.5366 623.627 52.1701 617.706C53.7995 616.251 54.2291 614.601 52.8546 612.417C47.5759 604.031 49.3126 595.165 51.1309 586.199C52.7055 578.435 53.3591 570.511 55.0661 562.734C55.7218 559.746 56.4165 557.063 58.0296 554.51C58.8996 553.133 59.9055 551.347 58.2989 549.975C56.7798 548.679 54.9272 549.153 53.1512 549.993C46.3194 553.223 39.274 555.357 31.5422 554.508C26.1583 553.918 20.4491 555.283 15.3094 551.406ZM61.591 531.053C63.837 530.523 66.0848 530.001 68.3284 529.462C69.8091 529.106 71.1039 529.377 71.5348 530.963C72.6901 535.217 75.5542 536.71 79.7367 536.568C81.0406 536.524 82.373 537.09 82.9059 538.61C81.0147 543.178 80.1672 548.737 76.9986 552.127C70.9121 558.638 72.0575 567.011 70.0431 574.338C67.8731 582.232 66.1495 590.628 66.1708 599.163C66.1784 602.241 66.8088 603.048 69.4338 603.147C74.0063 603.319 78.5822 603.552 83.4341 601.685C82.9165 606.728 85.6348 608.353 89.4643 609.056C91.1936 609.373 93.576 609.458 93.5057 611.894C93.4473 613.92 91.4388 614.585 89.7221 615.372C83.0998 618.407 75.1601 618.651 70.1728 625.183C65.0737 631.86 56.9022 635.705 53.0098 643.607C52.16 645.332 51.0681 646.954 52.157 648.678C53.4688 650.756 55.9412 650.263 57.6434 649.675C68.5771 645.901 80.3666 645.687 91.5314 641.057C91.4922 644.469 93.3065 646.516 95.3205 648.575C98.198 651.517 98.2694 654.04 94.2957 656.553C90.3709 659.036 86.5095 660.925 81.748 660.583C80.2876 660.478 78.41 660.326 77.3767 661.085C70.8708 665.863 63.2658 669.531 58.7923 676.544C52.8315 685.888 49.8357 695.985 52.9724 707.234C54.0113 710.96 57.6688 712.349 59.2913 715.273C62.3903 720.856 67.2422 724.36 72.3175 727.719C77.9638 731.456 84.7077 729.179 90.7824 730.995C97.7441 733.077 104.77 734.94 112.125 731.425C114.811 730.141 118.354 730.809 121.41 732.038C123.407 732.842 125.407 733.252 127.681 733.2C138.539 732.949 148.213 737.467 157.542 742.088C165.32 745.94 169.039 759.466 166.49 768.079C165.432 771.656 163.402 775.598 166.547 779.356C167.535 780.537 166.921 781.797 166.445 783.105C164.754 787.747 163.787 792.375 166.951 796.924C167.548 797.783 167.533 799.166 167.551 800.311C167.69 809.224 168.089 818.081 170.694 826.723C171.267 828.622 171.593 830.24 173.794 830.649C176.261 831.107 176.79 829.344 177.582 827.603C178.37 825.872 179.043 823.27 181.577 823.942C184.044 824.596 184.616 827.247 185.141 829.498C185.31 830.225 184.986 831.173 184.633 831.896C183.018 835.207 184.576 836.933 187.567 837.925C190.866 839.018 194.372 839.657 197.467 841.156C203.234 843.951 209.568 841.421 215.455 843.692C219.544 845.27 224.693 847.184 228.43 845.996C238.049 842.936 247.692 841.154 257.707 840.597C269.992 839.915 282.206 838.204 294.576 840.048C304.434 841.517 314.255 843.561 324.35 843.124C330.169 842.872 336.133 842.405 341.822 843.329C358.716 846.072 375.183 844.467 391.527 839.993C394.009 839.314 396.529 839.245 399.097 838.318C403.37 836.776 404.413 831.947 407.719 830.651C416.087 827.373 416.867 819.678 417.903 813.155C419.351 804.036 422.098 795.191 422.977 785.947C423.611 779.276 426.045 772.789 426.865 766.12C428.876 749.764 425.101 733.844 421.775 718.057C419.498 707.252 419.163 696.482 419.328 685.634C419.466 676.603 419.05 667.684 421.588 658.547C423.405 652.001 424.258 645.097 426.788 638.582C430.08 630.104 434.852 622.409 438.852 614.311C443.992 603.903 447.584 592.596 456.902 584.724C461.693 580.676 466 576.172 469.673 571.035C471.981 567.807 474.64 564.838 477.355 561.9C487.083 551.376 498.03 541.994 506.587 530.36C511.184 524.11 515.978 517.98 520.72 511.844C525.74 505.348 528.77 497.352 533.148 490.31C537.147 483.878 539.277 476.309 544.801 470.839C547.089 468.573 548.343 465.662 550.16 463.213C553.998 458.042 554.811 451.735 557.703 446.222C559.933 441.969 562.059 437.24 563.014 432.419C565.261 421.068 569.298 410.286 572.668 399.286C574.505 393.29 576.138 387.171 577.122 380.99C578.51 372.27 582.701 364.001 581.433 354.848C581.394 354.571 581.681 354.246 581.826 353.949C584.673 348.104 581.671 340.959 585.926 335.404C586.149 335.114 586.014 334.36 585.797 333.954C583.619 329.865 584.817 325.443 584.458 321.176C584.182 317.89 584.337 314.608 584.031 311.293C583.135 301.58 578.061 292.709 578.626 282.768C578.67 281.979 578.38 281.132 578.093 280.369C576.308 275.621 574.804 270.863 573.779 265.822C572.969 261.843 572.633 256.565 567.672 254.625C563.926 253.161 562.737 250.69 563.1 246.876C563.585 241.767 562.362 237.198 559.41 232.75C549.605 217.976 535.938 206.541 525.23 192.43C517.602 182.378 507.694 173.156 495.458 167.708C493.706 166.928 492.615 165.542 491.645 163.911C488.526 158.663 484.589 156.816 478.748 158.203C474.759 159.149 471.588 157.618 470.631 154.283C469.259 149.505 465.602 148.2 462.04 146.082C457.355 143.296 452.616 141.375 447.318 139.737C440.637 137.671 435.678 138.879 430.45 142.005C424.95 145.294 421.239 143.486 421.099 136.893C421.039 134.088 419.99 132.868 417.542 131.74C413.294 129.783 408.262 131.091 404.619 129.531C397.958 126.677 390.453 125.81 384.476 121.35C377.339 116.024 368.542 116.361 360.417 114.46C358.744 114.069 356.442 114.192 355.074 115.076C350.597 117.97 347.749 115.067 344.269 112.941C344.95 111.819 345.341 110.884 345.98 110.17C348.908 106.899 347.008 105.478 343.85 104.736C342.59 104.44 341.018 104.281 339.901 104.772C334.935 106.952 329.741 106.23 324.63 106.22C310.725 106.193 296.982 107.97 283.239 109.744C280.784 110.061 278.425 111.006 276.254 112.323C274.251 113.539 272.069 114.118 269.732 114.593C263.921 115.773 258.666 118.36 252.278 118.441C247.333 118.504 242.017 122.017 237.745 125.63C236.183 126.951 234.505 128.215 232.514 128.372C226.738 128.826 222.31 132.57 217.113 134.434C212.36 136.139 209.321 140.879 204.27 142.397C201.596 143.2 198.876 144.203 196.525 145.672C186.009 152.242 174.263 157.009 165.439 166.085C159.864 171.82 151.628 174.82 148.468 183.079C146.861 187.277 143.699 190.63 140.997 194.194C133.402 204.217 125.298 213.893 118.295 224.312C112.724 232.599 109.11 242.207 103.496 250.458C95.7375 261.86 89.7318 274.123 84.9142 286.829C81.1453 296.768 77.5575 306.858 74.9753 317.321C71.8167 330.121 69.7688 342.9 69.5604 356.032C69.5077 359.357 69.6369 362.745 69.0474 365.989C67.8402 372.631 67.5332 379.365 69.1298 385.785C72.7303 400.264 77.0158 414.572 81.0476 428.943C81.3386 429.98 81.221 430.837 80.6964 431.783C76.175 439.932 68.9367 446.521 66.7971 456.063C66.57 457.076 65.5717 458.149 64.6414 458.731C60.0404 461.612 57.7661 467.384 51.978 468.828C51.2261 469.015 50.5878 470.189 50.1537 471.038C45.752 479.642 40.575 487.653 33.2355 494.114C31.5105 495.632 29.9101 497.246 28.8419 499.454C24.5912 508.239 22.3446 517.665 19.6673 526.96C18.0455 532.591 19.5964 535.06 25.3236 536.007C37.6593 538.046 49.1791 533.9 61.591 531.053ZM562.44 144.767C551.038 150.666 542.918 160.52 533.61 168.913C530.524 171.697 529.963 175.227 533.619 178.786C536.684 181.77 538.853 185.661 541.845 188.736C545.846 192.849 549.563 196.717 556.807 193.891C563.646 191.222 569.745 187.331 576.315 184.466C586.37 180.082 594.816 173.371 604.099 167.911C607.423 165.956 608.136 163.758 605.563 160.682C600.624 154.777 598.105 147.425 594.901 140.674C590.779 131.99 585.49 124.038 579.148 117.479C571.058 109.112 562.772 100.604 553.044 93.8902C550.04 91.8165 546.862 90.0239 544.192 87.4463C539.553 82.9668 534.133 83.8376 532.149 90.112C530.036 96.7956 525.771 102.095 522.463 107.965C519.886 112.538 518.091 117.746 514.05 121.411C511.16 124.031 509.555 127.491 507.409 130.614C504.548 134.779 502.321 139.613 498.187 142.663C493.947 145.792 493.543 148.094 498.278 150.371C503.924 153.085 508.911 156.449 513.091 161.108C515.577 163.879 518.127 163.477 520.952 161.198C523.814 158.889 525.938 155.866 528.663 153.54C537.688 145.833 546.6 137.881 556.35 131.18C561.732 127.482 568.327 123.05 575.549 128.802C577.165 130.089 580.508 130.858 579.071 133.244C577.518 135.821 576.922 140.109 573.051 140.332C569.109 140.558 566.124 142.382 562.44 144.767ZM493.236 124.441C500.377 118.372 505.827 110.818 510.767 103.038C515.08 96.2444 517.799 88.4427 522.082 81.6261C524.642 77.5505 523.212 75.9612 520.241 73.6008C512.786 67.6789 503.476 64.6691 496.402 58.2112C493.589 55.6431 489.869 55.0833 486.555 53.7152C483.437 52.4277 480.595 53.4357 478.243 56.3654C473.478 62.3003 472.208 69.8013 468.887 76.2077C461.764 89.9475 458.065 104.98 451.21 118.741C450.335 120.499 450.214 122.481 452.267 123.533C460.521 127.764 467.902 133.555 476.562 137.06C478.669 137.912 480.563 137.642 482.083 136.106C485.699 132.455 489.187 128.678 493.236 124.441ZM635.669 474.395C633.42 474.483 631.448 473.674 629.524 472.601C622.455 468.657 614.856 465.774 607.6 462.213C599.93 458.449 592.069 453.796 582.886 453.851C582.111 453.856 581.296 453.407 580.564 453.041C575.631 450.57 572.578 452.113 571.491 457.709C571.146 459.483 571.852 461.905 570.297 462.914C564.706 466.542 568.896 476.342 560.542 478.087C560.304 478.137 560.037 479.003 560.11 479.432C560.602 482.302 558.703 484.153 557.192 486.051C551.073 493.733 551.58 495.141 561.459 497.156C562.111 497.289 562.772 497.451 563.432 497.462C576.651 497.684 588.987 501.46 600.93 506.791C610.777 511.187 618.903 507.033 626.451 501.318C633.192 496.212 634.965 487.657 639.513 480.992C642.018 477.321 640.744 475.098 635.669 474.395ZM596.327 294.056C599.587 296.314 602.761 293.774 606.003 293.818C612.719 293.908 619.491 293.437 626.148 293.141C634.392 292.773 642.551 293.972 650.751 293.346C652.355 293.224 654.042 294.039 655.298 292.511C656.694 290.813 655.945 289.093 655.17 287.37C654.152 285.108 652.895 282.983 652.377 280.464C650.058 269.196 648.323 257.821 645.447 246.649C643.529 239.195 640.275 235.998 632.887 237.715C629.211 238.57 625.475 239.18 621.837 240.13C612.105 242.672 602.49 245.659 592.758 248.204C586.458 249.851 584.747 253.526 588.217 259.318C590.216 262.654 591.415 266.091 591.917 270.019C592.921 277.878 594.51 285.663 596.327 294.056ZM657.422 429.876C657.468 427.884 657.325 425.842 658.583 424.109C659.794 422.438 660.209 420.693 658.545 419.194C656.987 417.789 655.071 417.187 653.024 418.277C650.833 419.445 648.482 419.876 646.349 418.616C644.072 417.272 641.643 416.945 639.179 416.839C636.717 416.733 634.618 416.114 632.956 414.252C631.651 412.79 629.997 412.348 628.066 412.209C617.456 411.444 608.601 403.777 597.594 404.386C596.766 404.432 595.93 403.32 595.013 402.963C591.293 401.511 589.078 402.76 588.309 406.772C586.936 413.935 583.872 420.427 580.239 426.638C577.544 431.243 578.607 436.609 583.498 439.019C591.474 442.95 600.292 444.645 608.505 447.928C618.279 451.836 629.249 452.966 637.586 460.286C638.695 461.26 640.086 461.907 641.298 462.774C644.678 465.192 647.473 463.679 648.547 460.597C651.959 450.797 657.034 441.454 657.422 429.876ZM360.217 79.3873C359.409 83.6777 357.648 87.564 355.53 91.3694C353.596 94.8413 355.36 97.8428 358.713 96.575C365.872 93.8689 371.487 98.7936 377.9 99.5099C381.587 99.9216 385.058 104.371 388.315 103.029C391.608 101.672 391.276 96.3204 393.096 93.1212C398.546 83.5423 401.658 73.0745 405.495 62.8808C406.767 59.4994 406.396 55.4011 408.725 52.5617C411.813 48.7983 411.732 43.8146 414.422 39.9285C415.5 38.3701 414.89 35.9295 412.566 35.6616C406.759 34.9924 401.598 32.1814 395.807 31.1699C390.733 30.2838 385.131 30.4051 380.473 27.5856C376.883 25.412 375.091 27.2177 375.127 30.379C375.237 40.1026 371.053 48.7718 368.518 57.775C367.424 61.6585 368.083 66.3056 365.166 69.4703C362.668 72.1797 361.325 75.217 360.217 79.3873ZM409.536 91.8228C407.815 96.1374 406.013 100.422 404.398 104.775C402.798 109.086 403.883 111.862 407.404 111.866C415.479 111.874 423.211 113.426 430.743 116.164C432.343 116.745 434.269 116.898 434.568 115.248C435.537 109.905 439.995 106.423 441.607 101.699C444.45 93.3638 449.059 85.8931 452.184 77.7169C455.432 69.2178 460.383 61.5223 464.62 53.4893C467.762 47.5318 466.957 46.202 460.554 45.1149C459.746 44.9776 458.983 44.536 458.175 44.4366C451.114 43.5691 444.453 40.7215 437.283 40.3394C433.962 40.1624 431.574 40.8008 430.291 44.3428C428.607 48.9894 425.518 52.9435 423.559 57.6011C421.241 63.1125 420.135 69.0928 417.307 74.4422C414.468 79.811 413.281 85.9807 409.536 91.8228ZM562.377 211.771C564.774 216.601 568.268 220.385 572.735 223.448C574.577 224.711 575.904 226.607 576.228 229.229C576.942 235 578.229 235.496 583.761 234.157C598.862 230.501 613.332 224.481 628.97 222.736C635.969 221.955 636.867 218.871 634.02 212.41C629.734 202.681 624.969 193.262 619.363 184.19C615.574 178.058 614.234 177.265 607.925 181.207C593.524 190.205 579.107 199.179 563.485 206C561.1 207.042 559.365 208.591 562.377 211.771ZM637.655 400.639C642.734 401.345 647.86 401.73 652.758 403.483C659.053 405.736 660.538 404.584 661.088 397.703C661.694 390.114 662.386 382.529 663.201 374.96C664.106 366.542 661.354 363.27 653.087 363.261C647.925 363.255 642.752 363.038 637.605 363.308C633.619 363.516 629.929 362.804 626.61 360.785C624.117 359.268 621.566 358.913 618.962 359.663C616.644 360.33 614.984 359.858 612.994 358.541C608.713 355.707 600.805 359.099 598.589 363.74C595.363 370.496 596.167 377.992 593.991 384.908C593.508 386.444 594.154 389.001 596.258 388.389C600.101 387.27 602.517 389.957 605.594 390.819C616.086 393.759 626.155 398.079 637.655 400.639ZM275.205 83.6697C275.986 84.8744 276.151 86.1518 275.57 87.4737C273.91 91.2566 276.235 91.7938 279.131 91.8755C279.631 91.8896 280.153 91.7891 280.628 91.9013C288.144 93.6794 294.997 88.8515 302.507 89.7602C305.154 90.0805 305.496 87.3051 304.881 85.3102C303.954 82.3058 304.783 79.4338 304.754 76.5217C304.698 70.7635 307.408 65.4211 307.104 59.8873C306.47 48.3615 310.042 37.714 312.82 26.8752C313.825 22.9526 312.3 20.8185 308.356 21.7052C304.389 22.5971 300.434 22.5848 296.451 22.4187C289.916 22.146 283.504 22.7637 277.22 24.6458C275.563 25.1422 273.93 25.5956 273.755 27.6721C273.337 32.63 271.948 37.7788 272.81 42.512C274.35 50.9673 270.886 58.9669 271.981 67.5223C272.655 72.7844 274.158 77.8302 275.205 83.6697ZM216.27 70.7838C215.778 66.8921 217.898 62.8489 215.571 59.0608C213.002 54.8781 211.605 50.3475 211.362 45.4245C211.168 41.4828 208.906 40.7298 206.059 42.8764C201.366 46.4142 195.795 47.3179 190.387 48.5445C180.326 50.8263 178.235 54.2995 181.629 64.1831C183.29 69.0234 185.454 73.7679 186.444 78.7441C187.842 85.7704 189.909 92.4547 192.727 99.0398C195.375 105.23 197.329 111.73 196.887 118.673C196.636 122.619 198.353 123.952 202.119 122.228C208.759 119.187 215.692 116.382 220.737 110.877C222.862 108.559 227.292 109.438 227.789 106.224C228.29 102.99 224.425 101.26 223.085 98.3446C220.636 93.0152 221.321 86.8704 218.219 81.8124C216.307 78.6954 216.06 75.237 216.27 70.7838ZM147.289 101.271C148.445 104.541 149.456 107.871 150.784 111.069C154.603 120.264 158.58 129.398 165.114 137.093C166.938 139.24 169.321 140.059 171.71 138.131C174.223 136.102 177.206 135.056 179.958 133.531C185.588 130.411 186.263 129.011 183.262 124.349C182.419 123.04 182.366 121.204 182.02 119.595C180.36 111.881 179.368 103.95 176.927 96.4939C173.332 85.5163 168.044 75.1338 164.777 63.9912C163.87 60.8985 161.462 59.8662 158.477 61.5256C151.358 65.4835 145.022 70.5942 138.506 75.4223C136.15 77.1676 135.087 79.5238 137.594 82.1957C142.505 87.4308 144.792 94.0167 147.289 101.271ZM650.1 310.557C644.279 310.513 638.451 310.284 632.64 310.504C629.682 310.616 626.815 311.024 623.825 310.356C617.524 308.948 611.43 310.189 605.398 312.207C602.996 313.01 602.043 314.481 602.693 316.673C604.382 322.38 601.922 327.984 602.653 333.801C603.379 339.581 603.369 341.071 609.446 341.78C613.738 342.28 617.987 342.828 622.222 343.738C625.597 344.465 629.185 345.139 632.556 344.759C640.679 343.843 648.706 344.885 656.717 345.482C663.49 345.986 667.367 342.036 665.268 335.399C664.312 332.375 663.134 329.382 663.382 326.184C663.67 322.453 662.707 318.909 662.034 315.348C661.393 311.952 659.851 309.052 655.552 311.45C653.71 312.477 652.39 311.375 650.1 310.557ZM352.706 53.1036C353.237 51.3531 354.823 50.2061 355.143 48.2508C356.126 42.2392 357.332 36.2999 359.605 30.5634C360.748 27.6805 361.146 22.8868 356.977 22.9792C349.715 23.14 343.557 18.1323 336.226 19.5566C334.109 19.9679 331.961 20.0123 329.996 21.0943C328.561 21.8838 327.652 22.915 327.563 24.5812C327.212 31.1116 326.275 37.5202 325.231 43.9963C323.053 57.5115 321.636 71.198 319.311 84.7333C318.828 87.5405 320.325 89.4967 322.718 88.8232C328.288 87.2556 333.026 88.5289 337.705 91.3833C339.044 92.2001 340.209 91.7878 340.811 90.1205C345.122 78.1696 349.916 66.3756 352.706 53.1036ZM246.686 32.0511C242.018 33.1883 237.371 34.4223 232.675 35.4224C230.277 35.9331 228.725 36.8681 228.535 39.5485C228.031 46.6906 229.423 53.753 230.357 60.7015C230.92 64.8903 230.749 69.3891 232.142 73.368C234.559 80.2684 236.388 87.2969 238.32 94.3247C239.31 97.9271 240.89 102.31 246.01 100.949C250.855 99.6598 255.447 97.4178 260.711 95.3775C257.099 91.2323 258.157 86.806 257.871 82.7997C257.22 73.6823 255.474 64.5223 257.411 55.3551C257.705 53.9637 257.413 52.7414 257.037 51.4524C255.846 47.3776 255.767 43.4738 257.417 39.325C258.524 36.5409 259.301 32.7017 257.257 30.3286C255.208 27.9501 252.384 30.7283 249.913 31.3497C249.107 31.5522 248.276 31.65 246.686 32.0511ZM144.228 126.71C139.392 114.981 132.894 103.975 129.08 91.8004C128.372 89.5378 126.735 88.0806 124.434 87.802C121.339 87.4272 109.926 99.5779 110.283 102.696C110.377 103.52 110.483 104.36 110.735 105.144C111.294 106.88 111.884 108.611 112.576 110.298C118.921 125.762 126.103 140.788 135.312 154.806C138.44 159.568 143.478 160.821 147.969 157.248C149.649 155.911 150.984 154.172 153.341 153.874C156.677 153.452 157.243 150.597 155.99 148.703C151.505 141.921 150.354 133.409 144.228 126.71Z"
    fill="black" />
  <path
    d="M136.144 372.662C133.575 373.85 131.518 374.114 129.1 373.01C124.078 370.717 119.09 370.548 113.878 373.19C107.042 376.655 101.895 372.986 101.285 365.369C100.768 358.913 102.961 353.455 105.627 347.916C107.741 343.525 109.015 338.833 111.279 334.4C114.791 327.519 119.805 321.788 123.625 315.255C127.153 309.221 130.264 302.911 135.838 298.554C143.508 292.558 150.272 285.496 158.485 280.108C163.146 277.051 166.214 272.027 170.615 268.445C175.368 264.578 182.778 266.21 183.883 272.231C184.413 275.118 187.572 274.451 187.943 276.905C180.261 284.576 173.48 293.224 169.355 303.322C165.404 312.993 160.553 322.358 158.039 332.614C156.57 338.609 158.034 342.175 163.146 345.731C170.948 351.157 180.656 353.088 187.963 359.277C194.709 364.99 201.725 370.211 205.925 378.713C208.162 383.241 210.429 388.857 216.404 391.141C220.387 392.663 220.339 397.424 217.831 403.186C212.551 415.32 208.516 427.854 204.502 440.406C203.047 444.956 198.96 446.427 195.84 448.934C191.582 452.355 186.669 454.951 182.305 458.254C179.346 460.493 176.825 461.345 174.138 458.197C171.607 455.231 171.346 450.283 174.189 448.284C178.244 445.433 179.627 441.38 180.792 437.011C181.306 435.086 181.756 433.039 183.322 431.663C188.665 426.969 189.146 420.089 191.4 414.008C191.976 412.453 192.291 410.766 193.076 409.33C197.261 401.67 196.507 395.764 189.797 390.644C180.259 383.365 169.772 377.241 158.568 373.366C151.893 371.058 143.972 370.106 136.144 372.662Z"
    fill="black" />
  <path
    d="M404.746 518.388C405.953 515.621 406.657 512.954 408.122 510.809C409.642 508.583 410.821 506.63 409.449 503.996C408.791 502.732 409.642 501.803 410.082 500.746C414.725 489.614 418.153 478.077 421.393 466.483C422.71 461.773 416.656 449.879 412.165 447.837C402.522 443.452 393.904 443.464 385.099 450.838C378.899 456.03 373.619 462.228 366.828 466.806C362.749 469.556 357.908 469.203 353.798 471.446C352.308 472.26 350.776 470.723 350.552 469.174C350.075 465.867 349.914 462.172 351.961 459.549C355.666 454.801 359.917 450.449 364.21 446.204C365.505 444.923 366.946 443.837 367.813 442.199C372.069 434.168 380.792 433.392 387.846 429.942C389.753 429.009 391.968 428.702 394.044 428.119C406.531 424.612 415.405 428.397 421.988 440.08C422.517 441.02 423.182 441.541 424.197 441.886C432.086 444.566 433.973 451.526 435.835 458.441C439.439 471.832 433.995 483.808 429.667 495.877C427.638 501.533 427.32 507.484 425.864 513.232C425.146 516.067 424.443 518.463 422.341 520.625C418.291 524.792 415.273 529.692 412.298 534.732C406.065 545.292 398.662 554.663 387.823 561.529C380.975 565.867 373.577 568.227 366.496 571.611C361.629 573.936 352.543 572.132 348.657 568.36C347.521 567.257 346.789 566.059 346.895 564.417C347.089 561.398 346.843 558.536 345.252 555.761C344.173 553.878 347.191 543.864 348.846 542.467C351.355 540.35 354.595 541.354 355.867 544.884C356.412 546.398 356.355 548.151 356.448 549.802C356.814 556.293 359.667 558.34 365.583 555.614C377.456 550.144 388.404 543.505 395.21 531.582C397.823 527.003 401.425 522.99 404.746 518.388Z"
    fill="black" />
  <path
    d="M282.342 704.103C276.319 710.965 268.586 715.043 260.945 718.516C254.01 721.668 246.016 722.512 238.467 724.279C233.72 725.39 229.165 727.165 223.976 725.583C218.343 723.865 218.958 719.776 219.08 715.617C219.195 711.663 221.609 708.55 225.129 709.122C236.727 711.006 246.167 704.99 256.371 701.719C258.82 700.934 261.011 699.947 261.934 697.23C262.427 695.779 263.398 694.117 264.979 694.302C269.746 694.861 271.127 691.381 273.031 688.277C276.044 683.363 281.44 680.536 284.301 675.354C285.262 673.615 287.218 672.267 288.281 670.35C289.563 668.037 291.905 666.231 294.11 666.018C300.071 665.441 305.028 662.296 310.511 660.569C312.474 659.95 314.404 658.977 315.967 660.921C317.473 662.794 316.287 664.712 315.473 666.529C315.339 666.829 315.186 667.219 314.93 667.35C307.272 671.271 304.786 679.77 298.992 685.423C294.669 689.642 292.363 695.735 287.606 699.784C285.968 701.178 284.289 702.524 282.342 704.103Z"
    fill="black" />
  <path
    d="M101.266 401.27C105.447 401.661 109.04 400.227 112.985 400.601C125.907 401.827 134.922 409.802 144.253 417.388C147.624 420.128 148.321 424.89 152.049 427.588C153.661 428.756 151.684 431.072 150.335 431.48C144.295 433.308 139.448 438.725 132.972 438.49C123.299 438.14 113.579 441.367 103.909 437.883C101.373 436.969 98.316 437.531 95.5029 437.344C91.8005 437.097 86.5811 433.188 86.4302 430.614C86.2402 427.374 90.5943 423.542 95.166 423.005C101.349 422.277 107.612 423.006 113.46 424.403C118.385 425.579 122.434 425.055 126.719 423.176C126.249 419.722 121.886 415.572 117.93 415.654C110.102 415.817 101.926 413.597 94.6943 418.824C93.3264 419.813 91.2396 419.956 89.4463 420.172C86.8186 420.49 85.5025 419.547 85.7645 416.477C86.5039 407.811 88.9287 404.813 97.6081 402.512C98.7246 402.216 99.7906 401.729 101.266 401.27Z"
    fill="black" />
  <path
    d="M394.033 498.785C390.898 500.414 389.795 503.533 389.26 505.894C387.021 515.759 379.44 520.54 371.992 525.59C369.218 527.471 366.474 527.222 363.569 525.574C360.738 523.968 362.347 521.641 361.945 519.567C361.041 514.906 363.035 512.774 366.838 510.854C369.137 509.694 369.916 507.049 370.988 504.51C373.608 498.304 376.668 492.017 380.847 486.801C386.278 480.022 387.465 471.687 391.034 464.276C393.995 458.128 397.198 457.151 402.145 461.459C403.213 462.39 403.821 463.398 403.77 464.89C403.46 473.786 402.454 482.485 398.279 490.593C396.926 493.219 396.303 496.222 394.033 498.785Z"
    fill="black" />
</svg>
