<svg width="300" height="364" viewBox="0 0 300 364" fill="none" xmlns="http://www.w3.org/2000/svg">
  <g clip-path="url(#clip0_420_62)">
    <path
      d="M149.979 353.01C135.114 347.716 122.242 339.896 111.432 328.916C92.5138 309.701 86.7407 286.555 91.3743 260.404C91.5484 259.421 91.7945 258.451 91.9562 257.467C92.0073 257.156 91.8927 256.817 91.8066 256.092C91.2169 256.585 90.6672 256.851 90.4059 257.289C77.8232 278.399 58.4912 288.854 34.7794 291.728C27.1078 292.658 19.0803 292.716 11.464 291.55C0.141368 289.817 -2.62915 282.931 2.75004 272.759C8.67527 261.553 16.6211 259.308 27.4595 265.903C31.5817 268.411 35.4481 271.349 39.6257 273.754C46.3498 277.624 50.2633 276.255 52.2743 268.659C54.0542 261.935 55.307 254.963 55.7986 248.03C56.8701 232.919 57.8439 217.765 57.9104 202.624C58.1532 147.303 58.0281 91.9803 57.9693 36.6583C57.9645 32.1744 57.632 27.6629 57.0613 23.2143C56.2057 16.5453 53.691 13.8605 47.0847 12.4931C42.5246 11.5493 37.8954 10.8353 33.2614 10.3831C28.9946 9.9668 28.7335 7.22735 28.8966 4.00635C29.0737 0.509659 31.1534 -0.0755786 34.2761 -0.0510346C77.078 0.285371 119.881 0.437325 162.683 0.795712C186.641 0.996319 210.643 0.741935 234.532 2.20421C245.081 2.84991 255.944 5.99373 265.704 10.2221C282.992 17.7125 291.299 35.7899 286.975 53.5896C283.34 68.5513 272.134 75.7724 258.411 80.0774C255.817 80.8912 253.231 81.7293 250.641 82.5561C250.658 83.0544 250.675 83.5527 250.691 84.051C252.62 84.6985 254.557 85.323 256.476 85.9978C262.737 88.1991 269.303 89.798 275.188 92.752C290.609 100.493 299.115 113.365 299.618 130.621C300.133 148.243 292.894 162.34 277.652 171.723C265.119 179.439 251.016 181.808 236.632 183.008C234.249 183.207 231.882 183.604 229.562 184.562C240.33 185.654 251.112 186.622 261.86 187.88C269.301 188.751 276.674 190.209 284.119 191.028C287.311 191.379 287.61 192.909 287.823 195.575C288.684 206.359 289.648 217.143 290.968 227.878C291.398 231.383 291.27 233.902 287.306 234.497C283.772 235.028 280.02 236.288 278.045 231.411C274.813 223.427 270.054 216.459 263.376 210.887C253.707 202.82 242.367 198.727 230.051 197.419C200.397 194.272 174.009 201.499 156.363 226.728C136.683 254.866 136.715 285.742 153.143 315.084C169.299 343.942 196.45 354.215 228.628 351.469C253.75 349.325 272.31 336.628 284.468 314.545C286.743 310.413 294.154 309.273 297.236 312.68C297.966 313.486 298.21 315.12 298.048 316.286C296.395 328.206 294.004 339.971 288.122 350.623C287.025 352.609 284.496 354.543 282.288 355.064C259.879 360.348 237.289 364.676 214.115 363.957C192.388 363.282 170.955 360.567 149.979 353.01ZM149.051 54.5015C149.029 50.1723 149.347 45.8077 148.9 41.523C148.35 36.2585 147.726 30.8811 146.131 25.8721C142.955 15.902 134.728 11.2739 122.902 11.9672C111.659 12.6263 105.35 17.5982 103.186 28.215C102.23 32.9035 101.877 37.7884 101.869 42.5852C101.779 93.2074 102.083 143.832 101.641 194.451C101.518 208.483 99.2762 222.496 98.0407 236.522C97.9953 237.037 98.3113 237.584 98.6344 238.749C99.6582 237.652 100.292 237.162 100.684 236.524C111.447 219.021 127.045 207.218 145.478 198.919C148.543 197.539 149.047 195.836 149.043 192.879C148.982 147.087 149.029 101.294 149.051 54.5015ZM246.366 111.23C242.351 107.322 238.856 102.587 234.218 99.6687C222.516 92.305 209.27 92.3447 196.025 93.6455C191.696 94.0707 190.975 97.3349 190.983 100.951C191.016 115.263 190.87 129.579 191.161 143.886C191.254 148.491 191.641 153.441 193.433 157.564C195.249 161.744 198.224 166.331 201.983 168.596C217.162 177.741 240.387 170.614 247.882 154.602C254.545 140.367 254.113 125.918 246.366 111.23ZM225.844 77.5546C233.407 74.2171 238.626 68.7167 241.346 60.867C249.409 37.5913 235.05 15.3199 210.565 13.274C207.09 12.9836 203.562 13.0365 200.076 13.2331C193.327 13.6137 191.116 15.7808 191.063 22.5561C190.93 39.8882 191.057 57.2222 190.938 74.5545C190.911 78.5852 192.878 80.4882 196.548 80.6994C206.213 81.2554 215.888 81.6328 225.844 77.5546Z"
      fill="#1D1A1E" />
    <path
      d="M205.473 320.682C182.903 312.399 169.273 291.992 171.392 270.101C173.629 246.982 190.014 228.995 212.259 225.235C232.04 221.892 251.993 230.844 262.514 247.783C272.883 264.478 272.302 286.129 261.06 301.956C249.207 318.644 229.137 326.294 209.228 321.704C208.094 321.442 206.977 321.104 205.473 320.682Z"
      fill="#C0061A" />
  </g>
  <defs>
    <clipPath id="clip0_420_62">
      <rect width="300" height="364" fill="white" />
    </clipPath>
  </defs>
</svg>
