<svg width="443" height="715" viewBox="0 0 443 715" fill="none" xmlns="http://www.w3.org/2000/svg">
  <path
    d="M442.779 480.933C442.776 510.596 442.717 539.76 442.801 568.923C442.831 579.165 440.833 588.856 434.654 597.114C425.075 609.915 412.041 615.878 395.998 615.826C356.003 615.696 316.007 615.881 276.013 615.659C270.938 615.631 268.125 617.252 265.255 621.419C254.477 637.065 243.151 652.331 232.082 667.777C223.318 680.005 214.656 692.305 205.9 704.538C198.584 714.759 189.752 717.354 179.251 712.551C172.272 709.359 168.661 703.392 168.792 696.32C169.101 679.529 170.333 662.754 171.282 645.978C171.844 636.048 172.577 626.128 173.26 615.788C171.353 615.788 169.549 615.788 167.745 615.788C127.583 615.786 87.4213 615.801 47.2594 615.772C38.5471 615.765 30.0877 614.489 22.4314 609.947C7.78889 601.263 0.606087 588.229 0.0980309 571.364C-0.00730105 567.867 0.0508815 564.366 0.0508355 560.866C0.0487455 389.886 0.0807585 218.906 8.48946e-06 47.9262C-0.00838351 30.1671 6.20429 16.045 21.6504 6.48112C28.2993 2.3643 35.6101 0.15092 43.2205 0.142284C161.873 0.00767803 280.526 -0.116032 399.179 0.19186C422.148 0.25146 440.733 17.564 442.452 40.4973C442.688 43.65 442.765 46.8213 442.766 49.984C442.781 193.467 442.779 336.95 442.779 480.933ZM57.0026 6.72977C53.3373 6.72879 49.672 6.71206 46.0068 6.72938C22.6224 6.83997 6.51666 22.8423 6.51107 46.3313C6.4696 220.644 6.52088 394.957 6.45086 569.27C6.4412 593.317 24.4138 609.414 46.2654 609.191C88.9226 608.755 131.587 609.062 174.249 609.061C175.996 609.061 177.743 609.061 179.285 609.061C179.285 613.79 179.471 617.792 179.254 621.771C177.97 645.388 176.541 668.997 175.277 692.615C174.856 700.47 177.78 705.306 183.713 707.388C190.018 709.6 195.653 707.553 200.106 701.333C221.199 671.87 242.337 642.439 263.261 612.856C265.382 609.856 267.481 608.981 270.961 608.99C313.123 609.104 355.285 609.126 397.446 608.967C402.013 608.95 406.858 608.398 411.091 606.81C428.922 600.12 436.396 586.368 436.395 567.902C436.388 439.75 436.384 311.598 436.381 183.447C436.379 138.285 436.385 93.124 436.376 47.9626C436.374 39.5172 435.149 31.3375 430.321 24.1467C422.258 12.1388 410.91 6.67669 396.463 6.68705C283.643 6.76796 170.822 6.73061 57.0026 6.72977Z"
    fill="#F1F1F1" />
  <path
    d="M57.5023 6.73022C170.822 6.73107 283.642 6.76842 396.463 6.68751C410.91 6.67715 422.258 12.1392 430.321 24.1472C435.149 31.3379 436.374 39.5177 436.376 47.963C436.385 93.1244 436.379 138.286 436.381 183.447C436.384 311.599 436.388 439.751 436.395 567.902C436.396 586.368 428.922 600.12 411.091 606.81C406.857 608.399 402.013 608.95 397.446 608.968C355.285 609.127 313.122 609.104 270.961 608.991C267.481 608.982 265.382 609.856 263.26 612.856C242.336 642.439 221.198 671.871 200.105 701.334C195.653 707.553 190.017 709.601 183.712 707.388C177.78 705.307 174.856 700.471 175.276 692.615C176.54 668.997 177.97 645.389 179.254 621.772C179.471 617.792 179.285 613.791 179.285 609.062C177.743 609.062 175.996 609.062 174.249 609.062C131.587 609.062 88.9225 608.756 46.2652 609.191C24.4136 609.415 6.44103 593.317 6.45069 569.271C6.52071 394.958 6.46942 220.645 6.5109 46.3318C6.51648 22.8428 22.6222 6.84043 46.0066 6.72984C49.6718 6.71252 53.3371 6.72925 57.5023 6.73022ZM106.953 370.981C104.141 374.807 101.971 374.405 99.0798 370.624C94.142 364.167 88.3406 358.37 83.4258 351.898C80.4277 347.95 78.6907 348.566 75.8773 351.919C60.488 370.255 44.8802 388.408 29.5555 406.797C28.0912 408.554 27.3017 411.567 27.4859 413.895C28.9815 432.8 30.8709 451.674 32.4735 470.572C34.9334 499.579 37.2304 528.6 39.7298 557.604C39.8591 559.105 41.2368 560.499 42.0333 561.942C42.8979 560.724 44.1686 559.624 44.5655 558.269C49.6006 541.072 54.5229 523.842 59.4482 506.613C65.6481 484.926 71.7995 463.225 78.0311 441.547C79.3079 437.105 80.8469 432.739 82.7197 426.928C84.7923 429.61 85.8564 430.79 86.6984 432.112C89.7332 436.877 92.7611 441.649 95.6566 446.499C97.4721 449.539 99.2305 450.108 101.802 447.247C105.579 443.045 109.629 439.089 113.405 434.886C116.02 431.976 118.368 428.826 121.293 425.218C123.534 428.242 124.724 429.594 125.633 431.114C132.702 442.938 139.686 454.812 146.794 466.611C147.498 467.779 148.858 468.551 149.914 469.507C150.752 468.391 151.945 467.396 152.375 466.14C158.505 448.242 164.573 430.323 170.505 412.358C170.994 410.88 170.991 408.642 170.194 407.427C157.912 388.676 145.436 370.053 133.072 351.355C130.973 348.18 129.17 348.662 126.816 351.077C120.444 357.616 113.938 364.025 106.953 370.981ZM242.033 584.294C246.112 586.506 250.152 588.797 254.293 590.89C255.815 591.659 257.574 591.959 259.226 592.474C259.413 590.787 259.996 589.03 259.714 587.426C258.797 582.202 257.585 577.029 256.447 571.846C254.211 561.66 254.183 561.6 264.462 558.883C267.419 558.101 268.914 556.946 268.742 553.456C267.437 527.004 266.356 500.54 265.109 474.085C265.038 472.586 264.122 471.127 263.6 469.649C262.187 470.254 260.506 470.549 259.403 471.509C244.109 484.824 228.84 498.168 213.741 511.702C212.122 513.153 210.899 515.778 210.706 517.966C209.667 529.738 209.027 541.544 208.221 553.337C205.953 586.559 203.65 619.779 201.474 653.006C201.383 654.394 202.437 655.856 202.958 657.283C204.099 656.314 205.695 655.574 206.313 654.342C213.379 640.279 220.242 626.115 227.27 612.033C231.851 602.853 236.613 593.764 242.033 584.294ZM307.623 498.574C309.941 509.443 312.354 520.293 314.538 531.188C315.692 536.943 317.831 542.421 315.395 548.721C311.512 558.762 308.692 569.214 305.436 579.497C303.762 584.787 303.923 585.024 309.568 585.029C328.064 585.047 346.56 585.036 365.056 585.038C372.054 585.038 379.053 585.05 386.051 585.047C389.238 585.046 391.079 584.519 389.732 580.367C388.155 575.51 387.544 570.341 386.492 565.312C380.247 535.427 373.973 505.549 367.779 475.654C367.159 472.664 366.249 471.113 362.79 472.43C345.121 479.156 327.411 485.773 309.697 492.378C306.859 493.436 306.198 495.155 307.623 498.574ZM295.529 192.23C296.421 195.491 296.802 199.015 298.318 201.954C301.115 207.38 304.578 212.462 307.876 217.87C305.029 221.157 302.614 224.626 299.535 227.34C294.967 231.366 294.116 236.274 293.8 242.008C292.986 256.789 292.5 271.692 290.114 286.256C287.469 302.406 282.835 318.228 279.147 334.211C278.721 336.055 278.167 338.261 278.787 339.87C279.862 342.662 281.808 345.117 284.238 349.109C289.09 332.545 294.236 317.013 298.147 301.176C305.184 272.681 307.167 243.407 310.438 214.334C312.292 197.846 313.657 181.166 317.335 165.051C324.136 135.253 339.315 127.204 363.511 121.985C380.69 118.279 398.198 116.094 415.582 113.227C415.582 103.67 415.582 93.9666 415.582 84.6932C405.283 87.1727 395.306 89.5584 385.338 91.978C368.426 96.083 351.278 99.425 334.675 104.535C316.019 110.277 303.368 123.439 299.843 142.689C296.926 158.615 296.863 175.063 295.529 192.23ZM58.7436 141.127C57.9828 139.113 57.0744 137.141 56.4833 135.078C48.0806 105.753 45.8654 75.5952 44.5385 45.3289C44.3155 40.2415 44.5071 35.1359 44.5071 29.235C34.2315 33.9236 28.1897 41.1518 27.3508 51.437C26.5562 61.1792 26.3432 71.1709 27.5942 80.8302C29.465 95.276 32.9673 109.504 35.5512 123.865C40.3834 150.721 51.6594 174.368 70.6271 194.08C87.0983 211.197 104.206 227.712 120.421 245.065C142.408 268.594 156.301 296.753 164.288 327.719C169.067 346.247 171.321 365.255 172.04 384.439C172.17 387.902 174.429 391.284 175.706 394.704C176.512 384.03 176.653 373.914 176.484 363.804C176.082 339.871 171.612 316.629 163.579 294.135C153.142 264.911 136.384 239.591 115.041 217.185C104.719 206.35 94.2373 195.641 84.4022 184.374C73.421 171.793 64.7324 157.67 58.7436 141.127ZM364.147 186.088C377.934 170.514 396.469 168.57 415.74 168.768C415.74 159.272 415.74 150.364 415.74 141.366C404.372 142.33 393.276 143.072 382.226 144.244C351.691 147.484 336.727 170.311 332.489 191.492C328.03 213.775 323.896 236.122 319.515 258.421C314.1 285.977 307.189 313.125 296.9 339.319C293.969 346.781 290.907 354.192 287.679 362.185C294.665 359.764 300.583 357.737 303.08 349.965C305.753 341.646 310.236 333.929 313.423 325.752C326.221 292.916 335.26 258.913 344.495 224.967C348.307 210.955 353.541 197.52 364.147 186.088ZM412.099 40.9494C408.556 37.5265 405.425 33.4452 401.342 30.8815C397.846 28.6863 393.508 26.0828 388.893 29.0006C371.769 39.8269 352.645 46.0631 333.862 53.0987C315.332 60.0397 297.137 67.5992 281.185 79.731C269.904 88.3113 262.944 99.4631 260.651 113.288C258.392 126.909 257.652 140.483 267.529 152.08C268.595 153.332 269.282 154.903 270.166 156.312C272.644 160.263 275.132 164.207 277.616 168.154C278.485 158.332 277.96 148.841 278.599 139.428C279.773 122.104 284.879 105.849 299.752 95.6323C309.45 88.9706 320.648 83.9924 331.81 80.0691C352.134 72.9251 373.033 67.4336 393.478 60.6091C401.211 58.0277 408.35 53.665 415.901 50.0467C414.45 46.4852 413.453 44.0397 412.099 40.9494ZM372.929 403.032C376.617 425.295 380.297 447.559 383.996 469.82C388.215 495.207 392.445 520.593 396.683 545.977C397.419 550.39 398.102 554.818 399.073 559.181C399.304 560.217 400.597 561.017 401.402 561.925C402.187 561.032 403.354 560.254 403.668 559.218C404.14 557.662 404.007 555.924 404.142 554.264C405.724 534.875 407.302 515.487 408.892 496.099C411.191 468.068 413.528 440.041 415.722 412.002C415.836 410.553 415.116 408.74 414.196 407.553C399.534 388.644 384.804 369.787 369.981 351.005C368.918 349.658 367.006 348.98 365.49 347.992C365.247 349.827 364.555 351.732 364.831 353.485C367.39 369.73 370.116 385.948 372.929 403.032ZM249.286 190.658C241.227 177.53 233.169 164.401 224.837 150.827C209.726 171.762 194.805 192.434 179.76 213.277C196.389 224.717 212.659 235.889 228.895 247.109C230.861 248.467 232.106 248.512 233.868 246.469C242.868 236.033 252.129 225.821 261.116 215.374C261.938 214.418 262.121 211.978 261.487 210.859C257.73 204.229 253.644 197.785 249.286 190.658ZM131.982 554.925C130.757 563.467 129.777 572.054 128.191 580.527C127.522 584.097 128.524 585.068 131.769 585.063C151.236 585.03 170.703 585.002 190.17 585.083C193.275 585.095 194.239 583.672 194.302 580.864C194.38 577.377 194.634 573.893 194.868 570.412C196.015 553.324 197.165 536.236 198.356 519.152C198.537 516.566 197.874 515.132 194.909 514.967C177.65 514.009 160.393 512.995 143.15 511.799C139.908 511.574 138.784 512.611 138.313 515.718C136.371 528.516 134.203 541.279 131.982 554.925ZM64.6642 571.602C72.9032 559.325 81.055 546.988 89.489 534.847C90.5756 533.283 93.0765 531.983 95.0073 531.856C101.143 531.453 107.319 531.654 113.48 531.637C124.707 531.605 124.744 531.467 125.556 520.026C125.78 516.868 124.792 515.624 121.712 515.062C115.693 513.964 109.773 512.337 103.764 511.182C100.957 510.642 100.58 509.212 101.428 506.951C102.766 503.387 103.874 499.684 105.693 496.376C106.472 494.96 108.835 493.512 110.402 493.591C116.364 493.893 122.289 494.866 128.239 495.487C134.544 496.145 140.861 496.687 148.41 497.397C146.569 492.252 144.917 488.637 144.019 484.843C143.148 481.162 140.967 479.952 137.579 479.044C121.415 474.715 105.298 470.2 89.2348 465.511C85.7235 464.486 84.2629 464.935 83.2741 468.725C79.2575 484.117 74.8625 499.411 70.6749 514.759C64.6534 536.829 58.6667 558.909 52.7833 581.016C52.5193 582.008 53.4214 583.31 53.7804 584.468C54.824 583.929 56.2114 583.65 56.8511 582.805C59.4529 579.368 61.8254 575.758 64.6642 571.602ZM79.7027 145.231C80.7572 147.296 81.747 149.396 82.8759 151.419C96.6891 176.168 117.895 195.022 135.126 217.579C137.467 214.349 139.325 211.387 141.59 208.778C143.627 206.432 143.408 204.871 141.482 202.433C131.403 189.665 121.366 176.853 111.694 163.776C98.2754 145.635 87.9535 125.735 86.2859 103.021C84.8173 83.018 85.7911 62.8269 85.9273 42.7204C85.9613 37.7018 86.9232 32.6895 87.4643 27.6215C80.0749 27.6215 73.3268 27.6215 66.3476 27.6215C66.1968 28.8622 66.0258 29.8215 65.9707 30.7874C64.4021 58.2741 64.7285 85.7511 69.5342 112.881C71.4468 123.678 76.0303 134.002 79.7027 145.231ZM416.021 209.447C416.021 205.218 416.021 200.988 416.021 196.477C398.845 197.75 385.823 205.099 375.219 217.277C364.73 229.323 359.767 244.201 353.785 258.569C343.977 282.124 334.236 305.709 324.286 329.205C321.358 336.119 317.816 342.774 314.014 350.672C319.768 348.051 324.436 346.036 328.981 343.774C330.057 343.239 330.935 341.993 331.544 340.877C343.846 318.313 355.959 295.644 368.397 273.155C379.084 253.834 391.773 236.384 413.484 227.92C414.67 227.457 415.816 225.342 415.914 223.923C416.223 219.448 416.023 214.938 416.021 209.447ZM225.284 481.217C247.363 459.066 269.437 436.91 291.526 414.769C296.667 409.616 296.726 409.581 290.322 405.879C280.559 400.235 270.871 394.436 260.89 389.202C256.375 386.834 256.122 384.405 258.043 380.176C262.159 371.113 265.903 361.876 269.619 352.639C270.137 351.351 269.64 349.655 269.613 348.149C268.194 348.701 266.465 348.907 265.402 349.857C253.03 360.929 240.784 372.144 228.435 383.243C225.999 385.432 225.86 387.048 228.513 389.225C235.437 394.908 242.063 400.962 249.089 406.512C252.106 408.894 252.181 410.682 250.465 413.97C238.042 437.78 225.838 461.704 213.64 485.631C212.89 487.102 212.782 488.901 212.376 490.547C212.917 490.964 213.459 491.38 214.001 491.797C217.594 488.436 221.188 485.076 225.284 481.217ZM30.7761 165.071C29.8129 162.833 28.8496 160.594 27.3993 157.223C27.1711 159.649 26.9554 160.896 26.9521 162.144C26.928 171.307 26.8022 180.475 27.0525 189.631C27.1154 191.933 27.8079 194.749 29.2645 196.398C39.1557 207.595 48.6597 219.265 59.5771 229.394C73.9301 242.71 89.8556 254.319 104.412 267.431C132.353 292.6 149.155 324.381 157.384 360.814C158.872 367.401 161.144 373.285 166.388 378.847C165.988 376.262 165.721 374.518 165.448 372.774C165.139 370.802 164.777 368.837 164.521 366.858C159.826 330.481 147.563 296.987 123.427 269.104C110.55 254.227 95.4332 241.214 80.7676 227.979C60.7531 209.918 42.3772 190.712 30.7761 165.071ZM127.692 120.133C116.521 88.988 122.13 58.3593 131.119 27.3203C124.265 27.3203 117.973 27.1541 111.706 27.4757C110.598 27.5327 108.842 29.5141 108.656 30.7919C106.601 44.9094 104.313 59.0206 103.052 73.2191C101.584 89.7389 103.152 106.138 108.885 121.839C118.603 148.457 137.478 169.445 152.758 193.168C155.292 189.678 157.368 186.499 159.781 183.601C161.581 181.439 161.466 179.789 159.935 177.497C155.508 170.87 151.002 164.257 147.152 157.293C140.516 145.287 134.353 133.02 127.692 120.133ZM160.582 73.8143C163.088 57.3457 170.662 42.7596 178.358 27.3166C171.046 27.3166 164.451 27.4793 157.869 27.245C154.775 27.1349 153.428 28.3554 152.528 31.1478C150.396 37.7624 147.815 44.2341 145.738 50.8645C140.857 66.4473 138.759 82.4194 141.215 98.6259C145.061 124.002 158.852 145.143 170.885 167.171C181.304 156.52 181.362 156.212 175.631 143.677C175.147 142.618 174.685 141.55 174.196 140.494C164.525 119.619 157.012 98.293 160.582 73.8143ZM334.644 386.24C333.803 381.73 334.989 377.975 337.83 374.235C343.255 367.093 348.215 359.594 353.238 352.156C354.075 350.917 354.257 349.235 354.742 347.758C353.082 347.78 351.193 347.284 349.798 347.902C327.054 357.997 304.359 368.202 281.707 378.5C280.104 379.228 278.919 380.875 277.54 382.095C279.352 382.932 281.092 384.233 282.988 384.526C290.711 385.718 298.466 386.761 306.242 387.518C309.248 387.81 310.571 389.155 311.444 391.837C319.147 415.491 326.896 439.13 334.783 462.723C335.299 464.27 337.056 465.402 338.237 466.726C338.707 465.118 339.671 463.48 339.574 461.907C338.032 436.982 336.355 412.066 334.644 386.24ZM305.316 38.1166C312.014 34.8654 318.711 31.6142 325.409 28.3631C310.779 27.3197 296.507 27.5136 282.244 27.2161C277.147 27.1098 272.915 28.1668 268.945 31.4059C261.876 37.1745 254.247 42.2914 247.446 48.3476C237.081 57.5769 227.887 67.9414 223.229 81.3498C221.304 86.8916 220.488 92.8189 219.168 98.5708C219.668 98.7048 220.169 98.8387 220.669 98.9726C223.169 95.5829 225.67 92.1932 228.454 88.4201C232.255 94.4456 235.786 100.043 240.009 106.737C241.901 89.6199 249.007 77.0061 260.781 66.6922C274.035 55.0815 289.089 46.4083 305.316 38.1166ZM199.485 92.6403C200.313 87.2422 200.535 81.663 202.084 76.4804C206.613 61.3279 216.228 49.1702 226.353 37.4165C229.113 34.2125 232.102 31.2054 235.716 27.3235C228.422 27.3235 222.107 27.8637 215.925 27.1857C208.332 26.3529 203.354 28.6775 199.281 35.3731C191.238 48.5934 182.919 61.6949 180.43 77.2288C176.953 98.9284 182.592 119.258 191.247 139.768C194.53 135.285 197.21 131.109 200.426 127.397C203.052 124.365 202.863 121.374 202.31 117.768C201.079 109.743 200.355 101.641 199.485 92.6403ZM187.3 408.615C187.256 408.945 187.125 409.289 187.18 409.601C190.686 429.721 194.18 449.844 197.798 469.944C197.99 471.012 199.228 471.892 199.979 472.86C200.95 471.689 202.44 470.663 202.811 469.326C207.028 454.155 211.299 438.993 215.056 423.706C216.608 417.389 219.667 411.364 217.839 404.25C213.422 387.067 209.665 369.715 205.494 352.467C205.081 350.76 203.651 349.3 202.692 347.726C201.791 349.119 200.412 350.403 200.062 351.924C195.781 370.507 191.652 389.124 187.3 408.615ZM128.493 329.562C130.844 337.621 140.146 338.42 144.226 344.871C144.082 342.327 143.501 340.128 142.586 338.078C131.452 313.149 115.073 292.419 93.2711 275.892C78.3169 264.556 63.4739 253.057 48.9316 241.201C41.4133 235.072 34.658 228.007 26.9865 220.83C26.9865 227.51 26.7942 233.622 27.1018 239.71C27.1961 241.575 28.1715 243.99 29.5759 245.1C41.0379 254.16 52.4182 263.366 64.3558 271.771C87.8836 288.337 111.99 304.153 128.493 329.562ZM411.242 264.058C384.673 281.823 369.931 309.535 351.141 334.039C354.437 334.841 356.836 335.916 359.226 335.898C363.576 335.864 368.076 336.872 371.876 332.976C384.868 319.653 398.031 306.486 413.958 296.517C414.905 295.924 415.915 294.524 415.93 293.486C416.075 283.068 416.018 272.648 416.018 261.612C414.175 262.555 413.038 263.137 411.242 264.058ZM285.674 465.141C284.811 460.907 284.134 456.623 282.982 452.47C282.594 451.071 281 450.007 279.958 448.79C279.446 450.166 278.452 451.557 278.492 452.917C279.741 495.214 281.072 537.509 282.501 579.8C282.553 581.339 283.725 582.84 284.375 584.359C285.422 583.093 286.943 581.99 287.44 580.536C291.89 567.511 296.23 554.446 300.407 541.33C301.021 539.403 301.025 537.06 300.605 535.058C295.774 512.008 290.806 488.987 285.674 465.141ZM27.097 282.283C30.7845 284.764 34.403 287.357 38.1712 289.709C57.1393 301.551 76.3631 313.001 95.0378 325.287C102.981 330.512 109.804 337.441 117.175 343.629C119.003 341.968 120.958 340.191 123.089 338.255C122.311 337.114 121.626 335.992 120.829 334.956C111.311 322.577 99.7332 312.499 86.7018 303.947C66.923 290.967 47.2725 277.791 26.9671 264.299C26.9671 270.294 26.9671 275.883 27.097 282.283ZM180.76 330.139C181.748 342.629 182.736 355.12 183.815 368.77C186.709 354.435 190.172 341.638 188.871 327.498C186.362 300.25 180.099 274.226 169.198 249.242C167.358 245.023 165.827 240.026 162.578 237.201C156.105 231.573 148.555 227.177 141.392 222.359C140.701 221.894 139.6 222.037 138.161 221.817C150.116 237.966 159.631 254.818 166.758 272.938C173.888 291.067 178.936 309.762 180.76 330.139ZM38.5359 307.539C34.8962 305.515 31.2564 303.492 26.9418 301.093C26.9418 306.365 26.5934 310.543 27.1005 314.613C27.327 316.432 28.899 318.896 30.501 319.591C38.2171 322.942 46.133 325.839 54.015 328.799C59.5606 330.882 65.5647 332.035 69.0336 337.763C69.4742 338.49 71.9073 338.582 73.1444 338.163C80.9868 335.505 85.9087 336.64 91.3797 342.839C95.4166 347.413 99.3554 352.073 103.582 356.978C105.625 354.744 107.455 352.743 109.58 350.42C88.6384 332.04 63.1732 321.177 38.5359 307.539ZM270.628 262.932C270.835 288.271 266.99 313.076 259.981 338.182C262.077 337.29 263.272 336.323 264.426 336.369C269.552 336.571 270.669 333.021 271.405 329.197C274.403 313.603 277.874 298.071 280.08 282.363C281.628 271.337 281.413 260.064 281.985 248.901C281.424 248.698 280.862 248.494 280.301 248.29C277.077 252.88 273.853 257.47 270.628 262.932ZM204.492 321.43C204.542 301.583 201.899 282.065 197.27 262.797C197.013 261.726 196.57 260.409 195.765 259.81C191.649 256.751 187.386 253.89 183.174 250.96C192.303 278.987 196.738 307.302 196.671 336.462C199.585 335.974 201.962 335.576 204.511 335.148C204.511 330.716 204.511 326.569 204.492 321.43ZM179.439 454.452C179.333 453.965 179.34 453.413 179.101 453.004C178.244 451.537 177.304 450.118 176.395 448.682C175.183 450.033 173.557 451.194 172.835 452.77C170.145 458.636 167.652 464.598 165.303 470.61C164.495 472.678 163.562 475.162 164.001 477.168C165.589 484.418 167.657 491.57 169.741 498.701C170.149 500.094 171.437 501.23 172.319 502.484C173.415 501.36 174.778 500.393 175.561 499.081C178.274 494.536 181.158 490.03 183.238 485.191C184.511 482.228 185.331 478.522 184.776 475.434C183.551 468.618 181.327 461.981 179.439 454.452ZM250.442 282.877C250.198 283.818 249.831 284.746 249.73 285.702C248.351 298.751 247.504 311.88 245.505 324.831C243.805 335.85 240.788 346.665 238.179 358.353C242.755 353.372 248.62 350.617 249.876 343.524C252.792 327.044 256.436 310.691 259.187 294.186C260.328 287.337 259.939 280.234 260.307 271.844C256.456 276.124 253.695 279.194 250.442 282.877ZM230.504 301.365C229.727 321.183 227.013 340.726 222.518 360.049C221.657 363.75 221.821 367.689 221.512 371.518C222.234 371.742 222.955 371.966 223.677 372.19C225.3 369.514 227.626 367.035 228.435 364.132C234.562 342.162 239.382 319.954 239.566 296.974C239.629 289.025 238.47 287.114 230.521 284.381C230.521 289.76 230.521 295.072 230.504 301.365ZM212.714 319.423C212.364 324.892 211.952 330.358 211.712 335.831C211.657 337.061 211.948 338.45 212.517 339.537C214.082 342.522 215.879 345.385 217.565 348.264C217.645 348.123 218.017 347.738 218.085 347.306C221.279 327.014 221.651 306.61 221.398 286.096C221.286 277.027 216.907 272.746 210.322 269.877C211.113 285.933 211.914 302.18 212.714 319.423ZM384.895 341.66C380.9 342.84 379.657 344.391 383.034 348.119C389.139 354.86 394.751 362.046 400.698 368.935C401.531 369.9 403.089 370.238 404.312 370.867C404.85 369.608 405.836 368.357 405.854 367.09C405.989 357.959 405.868 348.824 405.954 339.691C405.994 335.501 404.016 334.913 400.565 336.157C395.596 337.948 390.591 339.638 384.895 341.66ZM48.5598 357.493C51.4238 354.05 54.1663 350.495 57.19 347.198C59.6482 344.518 58.498 343.057 55.8104 342.083C49.897 339.941 43.9357 337.93 37.9834 335.896C35.0142 334.881 33.5967 335.874 33.6209 339.128C33.6916 348.61 33.604 358.094 33.7188 367.575C33.7322 368.683 34.6224 369.781 35.1061 370.884C36.2266 370.39 37.6628 370.182 38.4132 369.354C41.7452 365.674 44.8806 361.816 48.5598 357.493Z"
    fill="#040404" />
  <path
    d="M107.219 370.733C113.938 364.025 120.444 357.616 126.816 351.077C129.17 348.662 130.973 348.18 133.072 351.355C145.436 370.053 157.912 388.676 170.194 407.427C170.991 408.642 170.994 410.88 170.505 412.358C164.573 430.323 158.505 448.242 152.375 466.14C151.945 467.396 150.752 468.391 149.914 469.507C148.858 468.551 147.498 467.779 146.794 466.611C139.686 454.812 132.702 442.938 125.633 431.114C124.724 429.594 123.534 428.242 121.293 425.218C118.368 428.826 116.02 431.976 113.405 434.886C109.629 439.089 105.579 443.045 101.802 447.247C99.2305 450.108 97.4721 449.539 95.6566 446.498C92.7611 441.649 89.7332 436.877 86.6984 432.112C85.8564 430.79 84.7923 429.61 82.7197 426.928C80.8469 432.739 79.3079 437.105 78.0311 441.547C71.7995 463.225 65.6481 484.926 59.4482 506.613C54.5229 523.842 49.6006 541.072 44.5655 558.269C44.1686 559.624 42.8979 560.724 42.0333 561.942C41.2368 560.498 39.8591 559.105 39.7298 557.604C37.2304 528.6 34.9334 499.579 32.4735 470.571C30.8709 451.674 28.9815 432.8 27.4859 413.895C27.3017 411.567 28.0912 408.554 29.5556 406.797C44.8802 388.408 60.488 370.255 75.8773 351.919C78.6907 348.566 80.4277 347.95 83.4258 351.898C88.3406 358.37 94.142 364.167 99.0798 370.624C101.971 374.405 104.141 374.807 107.219 370.733Z"
    fill="#FCFCFC" />
  <path
    d="M241.663 584.464C236.613 593.764 231.851 602.853 227.27 612.032C220.243 626.114 213.379 640.279 206.314 654.342C205.695 655.573 204.1 656.314 202.958 657.283C202.437 655.855 201.383 654.393 201.474 653.006C203.65 619.778 205.954 586.559 208.222 553.337C209.027 541.544 209.667 529.737 210.706 517.965C210.899 515.778 212.122 513.152 213.741 511.701C228.84 498.167 244.11 484.823 259.404 471.509C260.507 470.549 262.188 470.253 263.6 469.648C264.122 471.126 265.038 472.586 265.109 474.085C266.356 500.54 267.437 527.003 268.742 553.455C268.915 556.945 267.419 558.101 264.462 558.882C254.184 561.6 254.211 561.659 256.447 571.845C257.586 577.029 258.797 582.202 259.714 587.425C259.996 589.03 259.413 590.786 259.226 592.473C257.575 591.959 255.815 591.658 254.293 590.889C250.153 588.797 246.113 586.506 241.663 584.464ZM235.757 520.055C235.535 529.307 235.277 538.558 235.165 547.812C235.156 548.514 236.1 549.696 236.755 549.816C237.512 549.955 238.733 549.394 239.247 548.739C243.547 543.263 247.819 537.757 251.852 532.085C252.424 531.279 252.147 528.779 251.454 528.339C246.612 525.271 241.558 522.539 235.757 520.055Z"
    fill="#FAFAFA" />
  <path
    d="M307.581 498.176C306.198 495.154 306.859 493.436 309.697 492.378C327.411 485.773 345.121 479.156 362.79 472.429C366.249 471.113 367.159 472.663 367.779 475.653C373.973 505.548 380.247 535.427 386.492 565.311C387.544 570.341 388.155 575.51 389.732 580.367C391.079 584.518 389.238 585.046 386.051 585.047C379.053 585.05 372.054 585.038 365.056 585.037C346.56 585.035 328.064 585.046 309.568 585.029C303.923 585.024 303.762 584.787 305.436 579.497C308.692 569.214 311.512 558.762 315.395 548.72C317.831 542.42 315.692 536.943 314.538 531.188C312.354 520.292 309.941 509.442 307.581 498.176ZM334.216 537.217C331.764 539.854 331.871 541.84 335.177 543.936C342.587 548.637 349.767 553.697 357.107 558.512C358.066 559.141 359.408 559.187 360.573 559.503C360.818 558.296 361.452 557.018 361.249 555.891C358.73 541.884 356.118 527.894 353.437 513.917C353.152 512.435 352.274 511.066 351.671 509.645C351.122 509.53 350.573 509.415 350.024 509.3C344.852 518.374 339.68 527.448 334.216 537.217Z"
    fill="#FBFBFB" />
  <path
    d="M295.533 191.754C296.864 175.062 296.926 158.614 299.843 142.689C303.368 123.439 316.02 110.276 334.676 104.534C351.279 99.4241 368.426 96.0821 385.338 91.9772C395.306 89.5576 405.283 87.1719 415.582 84.6924C415.582 93.9658 415.582 103.669 415.582 113.226C398.198 116.094 380.691 118.278 363.511 121.984C339.315 127.203 324.137 135.252 317.336 165.05C313.657 181.166 312.292 197.846 310.438 214.333C307.167 243.406 305.184 272.68 298.147 301.175C294.236 317.012 289.09 332.544 284.239 349.108C281.808 345.117 279.862 342.661 278.787 339.869C278.167 338.26 278.721 336.055 279.147 334.21C282.835 318.227 287.469 302.405 290.114 286.255C292.5 271.691 292.986 256.789 293.8 242.007C294.116 236.273 294.967 231.365 299.535 227.339C302.615 224.625 305.029 221.156 307.876 217.869C304.579 212.461 301.115 207.379 298.318 201.953C296.802 199.014 296.422 195.49 295.533 191.754Z"
    fill="#F8F8F8" />
  <path
    d="M58.8852 141.49C64.7326 157.669 73.4212 171.793 84.4024 184.373C94.2375 195.641 104.719 206.349 115.041 217.185C136.385 239.59 153.142 264.91 163.579 294.134C171.612 316.628 176.082 339.87 176.484 363.804C176.653 373.914 176.512 384.029 175.706 394.703C174.43 391.284 172.17 387.901 172.04 384.438C171.321 365.254 169.067 346.246 164.288 327.719C156.301 296.752 142.408 268.593 120.421 245.064C104.206 227.712 87.0985 211.197 70.6273 194.079C51.6596 174.367 40.3836 150.721 35.5514 123.865C32.9675 109.503 29.4652 95.2753 27.5944 80.8296C26.3434 71.1703 26.5564 61.1785 27.351 51.4364C28.1899 41.1512 34.2317 33.9229 44.5073 29.2344C44.5073 35.1353 44.3157 40.2408 44.5387 45.3282C45.8656 75.5945 48.0808 105.753 56.4835 135.077C57.0746 137.14 57.983 139.112 58.8852 141.49Z"
    fill="#F7F7F7" />
  <path
    d="M363.899 186.338C353.541 197.52 348.307 210.955 344.495 224.967C335.26 258.913 326.221 292.916 313.424 325.752C310.236 333.929 305.753 341.646 303.08 349.965C300.583 357.737 294.666 359.764 287.679 362.185C290.907 354.192 293.969 346.781 296.9 339.319C307.19 313.125 314.1 285.977 319.515 258.421C323.896 236.122 328.03 213.775 332.489 191.492C336.727 170.312 351.691 147.484 382.226 144.244C393.276 143.072 404.372 142.33 415.74 141.366C415.74 150.364 415.74 159.272 415.74 168.768C396.469 168.57 377.934 170.514 363.899 186.338Z"
    fill="#F9F9F9" />
  <path
    d="M412.278 41.2716C413.453 44.0395 414.45 46.485 415.901 50.0465C408.35 53.6648 401.211 58.0275 393.478 60.609C373.033 67.4334 352.134 72.9249 331.81 80.0689C320.648 83.9923 309.451 88.9704 299.752 95.6321C284.879 105.849 279.774 122.104 278.599 139.428C277.96 148.84 278.485 158.332 277.617 168.154C275.132 164.207 272.644 160.263 270.166 156.312C269.282 154.903 268.595 153.332 267.529 152.08C257.652 140.482 258.392 126.909 260.651 113.288C262.944 99.4629 269.904 88.3111 281.186 79.7308C297.137 67.599 315.332 60.0395 333.862 53.0985C352.645 46.0629 371.769 39.8267 388.893 29.0004C393.508 26.0827 397.846 28.6861 401.342 30.8813C405.426 33.445 408.556 37.5263 412.278 41.2716Z"
    fill="#FAFAFA" />
  <path
    d="M372.862 402.602C370.117 385.948 367.39 369.729 364.831 353.485C364.555 351.732 365.247 349.826 365.49 347.991C367.007 348.98 368.918 349.658 369.981 351.005C384.804 369.787 399.534 388.643 414.196 407.552C415.116 408.74 415.836 410.552 415.722 412.001C413.528 440.04 411.191 468.068 408.892 496.099C407.302 515.486 405.724 534.875 404.142 554.263C404.007 555.923 404.14 557.661 403.668 559.218C403.355 560.254 402.187 561.032 401.402 561.925C400.598 561.016 399.304 560.216 399.073 559.18C398.102 554.818 397.42 550.39 396.683 545.977C392.445 520.593 388.215 495.207 383.996 469.819C380.297 447.558 376.617 425.294 372.862 402.602Z"
    fill="#FAFAFA" />
  <path
    d="M249.477 190.968C253.644 197.784 257.73 204.228 261.488 210.859C262.122 211.978 261.938 214.418 261.116 215.373C252.129 225.821 242.868 236.032 233.868 246.469C232.106 248.512 230.861 248.466 228.895 247.108C212.659 235.888 196.389 224.717 179.76 213.276C194.805 192.433 209.726 171.762 224.837 150.826C233.169 164.401 241.228 177.529 249.477 190.968Z"
    fill="#FCFCFC" />
  <path
    d="M132.051 554.49C134.204 541.279 136.371 528.515 138.313 515.718C138.785 512.611 139.908 511.573 143.15 511.798C160.394 512.994 177.651 514.008 194.909 514.967C197.874 515.131 198.537 516.566 198.357 519.151C197.165 536.236 196.015 553.323 194.868 570.411C194.634 573.892 194.381 577.376 194.303 580.863C194.24 583.671 193.276 585.095 190.17 585.082C170.704 585.001 151.236 585.03 131.77 585.062C128.524 585.067 127.523 584.096 128.191 580.527C129.777 572.053 130.757 563.466 132.051 554.49ZM170.286 533.661C169.193 532.307 168.101 530.953 167.008 529.599C165.811 530.865 164.553 532.079 163.44 533.414C162.701 534.299 162.152 535.346 161.548 536.338C153.57 549.438 153.56 549.444 159.924 563.581C161.079 566.15 162.367 568.658 164.224 572.496C167.646 567.168 169.961 562.997 172.824 559.246C176.807 554.029 178.156 548.997 174.237 543.062C172.533 540.481 171.734 537.303 170.286 533.661Z"
    fill="#FBFBFB" />
  <path
    d="M64.4735 571.906C61.8256 575.757 59.4531 579.368 56.8513 582.804C56.2116 583.649 54.8242 583.928 53.7806 584.467C53.4216 583.31 52.5195 582.007 52.7835 581.015C58.6669 558.908 64.6536 536.828 70.6751 514.758C74.8627 499.41 79.2578 484.116 83.2743 468.724C84.2631 464.935 85.7237 464.486 89.2351 465.51C105.299 470.199 121.415 474.715 137.579 479.044C140.967 479.951 143.148 481.162 144.02 484.842C144.918 488.636 146.569 492.251 148.411 497.396C140.861 496.687 134.544 496.144 128.239 495.486C122.29 494.865 116.364 493.892 110.402 493.59C108.835 493.511 106.472 494.959 105.693 496.376C103.875 499.683 102.766 503.386 101.428 506.951C100.58 509.211 100.957 510.641 103.764 511.181C109.773 512.336 115.694 513.963 121.712 515.061C124.793 515.623 125.78 516.867 125.556 520.026C124.744 531.466 124.708 531.605 113.48 531.636C107.32 531.653 101.143 531.452 95.0075 531.855C93.0767 531.982 90.5758 533.282 89.4892 534.846C81.0552 546.987 72.9034 559.325 64.4735 571.906Z"
    fill="#F9F9F9" />
  <path
    d="M79.5503 144.886C76.0303 134.002 71.4468 123.678 69.5343 112.881C64.7285 85.7507 64.4021 58.2737 65.9707 30.787C66.0259 29.8211 66.1968 28.8618 66.3477 27.6211C73.3269 27.6211 80.075 27.6211 87.4643 27.6211C86.9232 32.6891 85.9613 37.7014 85.9273 42.72C85.7911 62.8265 84.8173 83.0176 86.2859 103.021C87.9536 125.734 98.2754 145.635 111.694 163.775C121.366 176.852 131.403 189.664 141.482 202.432C143.408 204.871 143.627 206.432 141.591 208.777C139.325 211.386 137.467 214.349 135.126 217.579C117.895 195.021 96.6891 176.168 82.8759 151.418C81.747 149.395 80.7572 147.295 79.5503 144.886Z"
    fill="#F9F9F9" />
  <path
    d="M416.021 209.943C416.023 214.937 416.223 219.447 415.914 223.922C415.816 225.341 414.671 227.457 413.484 227.919C391.773 236.384 379.084 253.834 368.398 273.154C355.959 295.643 343.846 318.312 331.544 340.876C330.936 341.992 330.057 343.238 328.981 343.773C324.436 346.035 319.769 348.051 314.014 350.672C317.816 342.773 321.358 336.118 324.286 329.204C334.237 305.708 343.977 282.124 353.785 258.568C359.767 244.2 364.73 229.322 375.219 217.276C385.823 205.098 398.846 197.749 416.021 196.477C416.021 200.988 416.021 205.217 416.021 209.943Z"
    fill="#F9F9F9" />
  <path
    d="M225.033 481.466C221.188 485.075 217.594 488.436 214.001 491.796C213.459 491.38 212.918 490.964 212.376 490.547C212.782 488.901 212.89 487.102 213.64 485.631C225.838 461.704 238.042 437.78 250.465 413.97C252.181 410.681 252.106 408.894 249.09 406.511C242.063 400.962 235.437 394.908 228.513 389.225C225.86 387.048 226 385.431 228.435 383.242C240.784 372.144 253.03 360.929 265.403 349.857C266.465 348.906 268.194 348.7 269.613 348.148C269.64 349.655 270.138 351.351 269.62 352.639C265.903 361.876 262.159 371.112 258.043 380.176C256.122 384.405 256.375 386.834 260.89 389.202C270.871 394.436 280.559 400.234 290.322 405.879C296.726 409.581 296.667 409.616 291.526 414.769C269.437 436.909 247.363 459.066 225.033 481.466Z"
    fill="#FAFAFA" />
  <path
    d="M30.9637 165.395C42.3774 190.711 60.7533 209.917 80.7679 227.979C95.4334 241.213 110.55 254.227 123.428 269.103C147.563 296.986 159.826 330.481 164.522 366.857C164.777 368.836 165.14 370.801 165.448 372.773C165.721 374.517 165.989 376.262 166.388 378.846C161.144 373.284 158.872 367.401 157.384 360.814C149.155 324.38 132.353 292.599 104.412 267.431C89.8558 254.319 73.9304 242.71 59.5773 229.393C48.6599 219.265 39.1559 207.595 29.2647 196.397C27.8081 194.748 27.1157 191.933 27.0527 189.63C26.8024 180.474 26.9283 171.307 26.9524 162.144C26.9556 160.896 27.1714 159.648 27.3995 157.223C28.8498 160.593 29.8131 162.832 30.9637 165.395Z"
    fill="#F5F5F5" />
  <path
    d="M127.842 120.498C134.353 133.02 140.516 145.287 147.152 157.293C151.002 164.257 155.508 170.87 159.935 177.497C161.466 179.789 161.582 181.439 159.781 183.601C157.368 186.499 155.292 189.678 152.758 193.168C137.478 169.445 118.603 148.457 108.885 121.839C103.152 106.137 101.584 89.7388 103.052 73.219C104.313 59.0205 106.601 44.9094 108.656 30.7918C108.842 29.5141 110.598 27.5326 111.706 27.4757C117.973 27.1541 124.265 27.3203 131.119 27.3203C122.13 58.3593 116.521 88.9879 127.842 120.498Z"
    fill="#F8F8F8" />
  <path
    d="M160.502 74.2474C157.012 98.2931 164.525 119.619 174.196 140.494C174.685 141.55 175.147 142.618 175.631 143.677C181.362 156.212 181.304 156.52 170.885 167.171C158.852 145.143 145.061 124.002 141.215 98.626C138.759 82.4195 140.857 66.4473 145.738 50.8646C147.815 44.2342 150.396 37.7625 152.528 31.1479C153.428 28.3555 154.775 27.135 157.869 27.2451C164.451 27.4794 171.047 27.3166 178.358 27.3166C170.662 42.7597 163.088 57.3458 160.502 74.2474Z"
    fill="#F8F8F8" />
  <path
    d="M334.677 386.693C336.355 412.066 338.033 436.982 339.574 461.906C339.671 463.479 338.707 465.118 338.237 466.726C337.057 465.401 335.3 464.269 334.783 462.723C326.896 439.13 319.147 415.491 311.445 391.837C310.571 389.154 309.248 387.81 306.243 387.517C298.466 386.76 290.711 385.717 282.988 384.525C281.092 384.232 279.352 382.932 277.54 382.094C278.919 380.875 280.105 379.228 281.708 378.499C304.36 368.201 327.055 357.996 349.798 347.902C351.193 347.283 353.083 347.78 354.742 347.757C354.257 349.235 354.075 350.916 353.238 352.155C348.215 359.594 343.255 367.093 337.83 374.234C334.989 377.975 333.803 381.73 334.677 386.693Z"
    fill="#F8F8F8" />
  <path
    d="M304.999 38.3134C289.089 46.4084 274.035 55.0815 260.781 66.6923C249.007 77.0062 241.901 89.6199 240.009 106.737C235.786 100.043 232.255 94.4456 228.454 88.4202C225.67 92.1932 223.169 95.583 220.669 98.9727C220.169 98.8388 219.669 98.7048 219.168 98.5709C220.489 92.8189 221.304 86.8916 223.229 81.3499C227.887 67.9414 237.082 57.5769 247.446 48.3477C254.247 42.2915 261.876 37.1745 268.945 31.4059C272.915 28.1668 277.147 27.1099 282.244 27.2162C296.507 27.5136 310.779 27.3198 325.409 28.3631C318.711 31.6143 312.014 34.8655 304.999 38.3134Z"
    fill="#F7F7F7" />
  <path
    d="M199.454 93.105C200.355 101.641 201.079 109.743 202.31 117.768C202.863 121.373 203.052 124.365 200.426 127.397C197.21 131.109 194.53 135.285 191.247 139.767C182.592 119.257 176.953 98.9282 180.43 77.2286C182.919 61.6946 191.238 48.5932 199.281 35.3729C203.354 28.6772 208.332 26.3527 215.925 27.1855C222.107 27.8635 228.422 27.3233 235.716 27.3233C232.102 31.2052 229.113 34.2122 226.353 37.4163C216.228 49.17 206.613 61.3276 202.084 76.4801C200.535 81.6627 200.313 87.242 199.454 93.105Z"
    fill="#F8F8F8" />
  <path
    d="M187.392 408.174C191.652 389.124 195.781 370.507 200.062 351.924C200.412 350.403 201.791 349.119 202.693 347.726C203.651 349.3 205.082 350.76 205.494 352.467C209.665 369.715 213.423 387.067 217.839 404.25C219.667 411.364 216.609 417.389 215.056 423.706C211.3 438.993 207.028 454.156 202.812 469.326C202.44 470.663 200.95 471.689 199.979 472.86C199.228 471.892 197.99 471.012 197.798 469.944C194.181 449.844 190.686 429.722 187.18 409.601C187.126 409.289 187.256 408.945 187.392 408.174Z"
    fill="#F9F9F9" />
  <path
    d="M128.285 329.263C111.99 304.152 87.8837 288.336 64.3559 271.77C52.4183 263.365 41.038 254.159 29.576 245.099C28.1716 243.989 27.1962 241.574 27.102 239.709C26.7943 233.621 26.9866 227.509 26.9866 220.829C34.6581 228.006 41.4134 235.071 48.9317 241.2C63.4741 253.056 78.317 264.555 93.2712 275.891C115.073 292.418 131.453 313.148 142.586 338.077C143.501 340.127 144.083 342.326 144.226 344.871C140.146 338.419 130.844 337.62 128.285 329.263Z"
    fill="#F6F6F6" />
  <path
    d="M411.571 263.888C413.038 263.137 414.175 262.555 416.018 261.612C416.018 272.648 416.075 283.069 415.93 293.486C415.915 294.524 414.906 295.924 413.958 296.517C398.031 306.486 384.869 319.653 371.876 332.976C368.077 336.872 363.577 335.864 359.226 335.898C356.836 335.917 354.437 334.841 351.141 334.04C369.931 309.535 384.673 281.823 411.571 263.888Z"
    fill="#F7F7F7" />
  <path
    d="M285.775 465.55C290.806 488.987 295.774 512.008 300.605 535.058C301.025 537.06 301.021 539.403 300.407 541.33C296.231 554.446 291.891 567.511 287.44 580.536C286.943 581.99 285.422 583.093 284.375 584.359C283.725 582.84 282.553 581.339 282.501 579.8C281.072 537.509 279.741 495.214 278.492 452.917C278.452 451.557 279.446 450.166 279.958 448.79C281.001 450.007 282.594 451.071 282.982 452.47C284.134 456.623 284.811 460.907 285.775 465.55Z"
    fill="#F6F6F6" />
  <path
    d="M27.0322 281.877C26.9673 275.883 26.9673 270.294 26.9673 264.299C47.2727 277.79 66.9231 290.966 86.702 303.947C99.7334 312.499 111.311 322.577 120.83 334.956C121.626 335.992 122.311 337.113 123.089 338.255C120.958 340.191 119.003 341.967 117.175 343.629C109.804 337.441 102.981 330.512 95.038 325.286C76.3633 313 57.1395 301.551 38.1714 289.709C34.4032 287.356 30.7847 284.764 27.0322 281.877Z"
    fill="#F5F5F5" />
  <path
    d="M180.725 329.693C178.936 309.762 173.888 291.067 166.758 272.938C159.631 254.818 150.116 237.966 138.161 221.816C139.6 222.036 140.701 221.893 141.392 222.358C148.555 227.176 156.105 231.572 162.578 237.2C165.827 240.026 167.358 245.023 169.198 249.242C180.099 274.226 186.362 300.25 188.871 327.498C190.172 341.638 186.709 354.435 183.815 368.77C182.736 355.12 181.748 342.629 180.725 329.693Z"
    fill="#F2F2F2" />
  <path
    d="M38.8646 307.711C63.1733 321.176 88.6385 332.04 109.581 350.419C107.455 352.743 105.625 354.744 103.582 356.978C99.3555 352.072 95.4167 347.412 91.3798 342.838C85.9088 336.639 80.9869 335.505 73.1445 338.162C71.9074 338.581 69.4743 338.489 69.0337 337.762C65.5648 332.035 59.5607 330.881 54.0151 328.798C46.1331 325.839 38.2172 322.941 30.5011 319.591C28.8991 318.895 27.3271 316.431 27.1006 314.613C26.5935 310.542 26.9419 306.365 26.9419 301.093C31.2565 303.491 34.8963 305.515 38.8646 307.711Z"
    fill="#F2F2F2" />
  <path
    d="M270.628 262.496C273.853 257.469 277.077 252.88 280.301 248.29C280.862 248.494 281.424 248.697 281.985 248.901C281.413 260.064 281.628 271.337 280.08 282.363C277.874 298.071 274.404 313.603 271.405 329.197C270.669 333.021 269.552 336.571 264.427 336.368C263.272 336.323 262.077 337.289 259.981 338.181C266.99 313.076 270.835 288.27 270.628 262.496Z"
    fill="#F2F2F2" />
  <path
    d="M204.502 321.927C204.512 326.569 204.512 330.716 204.512 335.148C201.962 335.576 199.585 335.974 196.671 336.462C196.738 307.302 192.303 278.987 183.174 250.96C187.386 253.89 191.649 256.751 195.765 259.81C196.57 260.409 197.013 261.726 197.27 262.797C201.9 282.065 204.542 301.583 204.502 321.927Z"
    fill="#F2F2F2" />
  <path
    d="M179.475 454.861C181.327 461.981 183.551 468.618 184.776 475.434C185.332 478.522 184.511 482.228 183.238 485.191C181.159 490.03 178.275 494.536 175.561 499.081C174.778 500.393 173.416 501.359 172.319 502.484C171.437 501.23 170.149 500.094 169.742 498.701C167.658 491.57 165.589 484.418 164.001 477.168C163.562 475.162 164.495 472.678 165.303 470.61C167.652 464.598 170.145 458.636 172.835 452.77C173.558 451.194 175.184 450.033 176.395 448.682C177.304 450.118 178.244 451.537 179.101 453.004C179.34 453.413 179.333 453.965 179.475 454.861Z"
    fill="#F6F6F6" />
  <path
    d="M250.688 282.569C253.695 279.193 256.457 276.124 260.308 271.844C259.939 280.233 260.329 287.337 259.187 294.186C256.437 310.69 252.793 327.044 249.876 343.523C248.62 350.616 242.755 353.371 238.18 358.352C240.789 346.664 243.805 335.849 245.505 324.83C247.504 311.879 248.351 298.75 249.73 285.702C249.831 284.745 250.199 283.817 250.688 282.569Z"
    fill="#F1F1F1" />
  <path
    d="M230.512 300.873C230.521 295.071 230.521 289.759 230.521 284.38C238.47 287.113 239.629 289.024 239.566 296.973C239.382 319.954 234.562 342.161 228.435 364.131C227.626 367.034 225.3 369.514 223.677 372.189C222.955 371.965 222.234 371.741 221.512 371.517C221.821 367.688 221.658 363.749 222.518 360.048C227.013 340.725 229.727 321.182 230.512 300.873Z"
    fill="#F2F2F2" />
  <path
    d="M212.714 318.924C211.914 302.179 211.113 285.932 210.322 269.876C216.907 272.745 221.286 277.026 221.398 286.096C221.651 306.609 221.279 327.013 218.085 347.305C218.017 347.738 217.645 348.122 217.565 348.264C215.879 345.385 214.082 342.521 212.517 339.536C211.948 338.45 211.657 337.061 211.711 335.831C211.952 330.357 212.364 324.891 212.714 318.924Z"
    fill="#F1F1F1" />
  <path
    d="M385.249 341.515C390.592 339.637 395.597 337.947 400.566 336.156C404.017 334.912 405.994 335.501 405.954 339.691C405.868 348.823 405.989 357.958 405.855 367.09C405.836 368.356 404.85 369.608 404.312 370.866C403.09 370.238 401.531 369.899 400.698 368.934C394.752 362.045 389.14 354.86 383.034 348.119C379.657 344.391 380.901 342.84 385.249 341.515Z"
    fill="#F8F8F8" />
  <path
    d="M48.3234 357.757C44.8805 361.816 41.7451 365.673 38.4131 369.353C37.6628 370.182 36.2266 370.39 35.1061 370.883C34.6223 369.781 33.7321 368.683 33.7188 367.575C33.604 358.094 33.6916 348.61 33.6209 339.128C33.5967 335.874 35.0142 334.881 37.9834 335.895C43.9357 337.929 49.8969 339.941 55.8104 342.083C58.4979 343.057 59.6481 344.518 57.1899 347.198C54.1662 350.495 51.4238 354.049 48.3234 357.757Z"
    fill="#F5F5F5" />
  <path
    d="M236.165 519.877C241.558 522.539 246.612 525.271 251.453 528.339C252.147 528.778 252.424 531.279 251.852 532.085C247.819 537.757 243.547 543.263 239.247 548.739C238.733 549.394 237.512 549.954 236.755 549.816C236.1 549.696 235.156 548.514 235.165 547.811C235.277 538.558 235.535 529.307 236.165 519.877Z"
    fill="#070707" />
  <path
    d="M334.362 536.87C339.68 527.449 344.852 518.374 350.024 509.3C350.573 509.415 351.122 509.53 351.671 509.645C352.274 511.067 353.152 512.435 353.437 513.917C356.118 527.894 358.73 541.885 361.249 555.891C361.452 557.018 360.818 558.296 360.573 559.503C359.408 559.187 358.066 559.142 357.107 558.512C349.767 553.698 342.587 548.637 335.177 543.936C331.871 541.84 331.764 539.855 334.362 536.87Z"
    fill="#070707" />
  <path
    d="M170.405 534.029C171.734 537.303 172.533 540.481 174.237 543.062C178.156 548.997 176.807 554.029 172.824 559.246C169.961 562.997 167.646 567.168 164.224 572.495C162.367 568.658 161.079 566.149 159.924 563.581C153.56 549.443 153.57 549.438 161.548 536.338C162.152 535.346 162.701 534.299 163.439 533.414C164.553 532.079 165.811 530.864 167.008 529.599C168.1 530.953 169.193 532.307 170.405 534.029Z"
    fill="#070707" />
</svg>
