<svg width="394" height="357" viewBox="0 0 394 357" fill="none" xmlns="http://www.w3.org/2000/svg">
  <path
    d="M213.793 90.8516C222.939 66.1877 234.767 43.5729 253.688 25.3607C269.202 10.4284 287.438 0.699548 309.263 0.126657C339.603 -0.669715 363.058 12.8945 380.833 36.9477C385.908 43.815 389.919 51.3108 392.735 59.3846C394.769 65.2183 392.791 67.6485 386.893 65.9148C369.381 60.7667 358.688 68.2152 350.929 84.3501C344.543 97.6314 342.568 111.92 342.142 126.55C341.114 161.845 347.729 196.122 355.82 230.173C365.488 270.859 377.369 310.913 391.242 350.372C392.194 353.081 394.123 356.636 388.556 356.49C360.41 355.751 332.273 354.664 304.933 347.039C282.119 340.677 271.567 326.758 269.847 302.942C268.171 279.736 271.025 256.702 271.68 233.587C271.793 229.612 272.321 225.653 271.727 221.377C266.721 221.969 264.011 224.52 262.539 229.178C256.562 248.09 249.619 266.656 241.315 284.672C236.359 295.423 230.673 305.82 223.352 315.187C220.8 318.452 217.917 321.527 214.832 324.294C202.843 335.05 189.911 335.047 178.324 323.814C166.679 312.527 157.848 299.315 153.614 283.414C148.966 265.958 145.34 248.377 148.003 230.154C150.279 214.569 156.905 201.94 172.148 195.365C173.699 194.696 175.346 193.347 177.404 194.765C177.245 197.79 174.468 198.565 172.67 200.018C168.613 203.295 164.688 206.669 162.665 211.612C160.92 215.875 160.379 220.195 163.379 224.556C164.186 224.086 164.92 223.906 165.232 223.442C170.57 215.5 178.284 210.232 185.906 204.824C189.018 202.616 191.956 200.146 194.841 197.643C196.22 196.447 197.208 194.629 199.419 195.98C201.395 197.188 201.871 199.082 201.503 201.194C200.904 204.623 198.797 207.213 196.518 209.678C195.515 210.763 194.5 211.838 193.714 213.238C202.853 210.542 211.166 206.39 218.335 200.064C219.609 198.939 220.301 196.432 222.612 197.518C224.552 198.43 224.369 200.529 224.25 202.395C224.21 203.033 224.244 203.676 224.244 204.802C229.568 204.057 232.24 200.665 234.323 196.635C237.453 190.581 252.03 186.826 257.691 190.694C260.382 192.533 261.623 195.136 261.631 198.357C261.639 202.157 261.633 205.956 261.633 210.152C266.154 209.18 268.251 205.989 270.16 202.778C273.602 196.99 275.531 190.476 281.01 185.688C284.96 182.236 282.481 175.95 277.195 174.307C272.158 172.742 266.953 173.241 261.839 173.937C250.301 175.505 238.816 177.498 227.253 178.84C215.249 180.234 203.271 180.302 191.986 174.825C186.622 172.221 181.863 168.9 179.326 163.287C178.052 160.469 176.758 157.406 179.577 154.772C180.176 154.772 180.666 154.631 180.803 154.792C191.999 167.986 207.213 167.9 222.522 167.383C229.54 167.146 236.36 165.514 243.227 164.187C253.857 162.132 264.457 162.661 274.912 165.39C278.972 166.45 281.102 165.329 281.026 160.978C280.98 158.353 282.195 156.169 283.25 153.904C284.985 150.178 284.362 147.05 280.647 144.94C276.086 142.349 273.223 137.754 268.786 135.032C266.28 133.495 263.851 131.688 259.388 134.067C261.566 135.767 263.848 137.354 265.881 139.215C266.959 140.202 267.781 141.677 267.08 143.283C266.283 145.107 264.475 145.565 262.856 145.213C250.925 142.618 239.13 139.705 231.036 129.344C227.916 125.35 224.067 122.397 219.052 121.366C217.646 123.315 219.52 126.1 216.911 126.953C214.322 127.799 212.391 126.059 210.729 124.506C206.307 120.377 201.782 116.51 195.743 114.926C191.222 113.74 187.262 114.498 183.391 118.35C189.834 123.849 197.761 127.669 201.173 135.825C199.031 137.892 197.536 136.145 196.102 135.351C190.915 132.48 185.449 130.927 179.499 130.445C169.979 129.673 162.342 124.509 154.938 118.985C148.534 114.207 142.212 109.349 134.807 106.054C126.065 102.165 118.28 103.46 111.108 109.488C107.157 112.809 103.523 116.46 99.3709 121.411C103.595 120.115 106.715 119.021 109.905 118.204C119.016 115.872 127.303 117.981 134.013 124.29C139.551 129.496 145.182 134.237 152.401 136.857C153.425 137.229 154.634 137.728 154.487 139.231C154.074 140.21 153.203 140.288 152.387 140.294C133.577 140.441 123.753 151.646 118.49 168.146C114.292 181.308 113.447 194.946 113.791 208.658C114.36 231.386 118.504 253.544 123.134 275.782C126.388 291.414 125.362 307.721 119.204 322.994C113.552 337.012 101.434 343.175 87.9822 347.239C70.3303 352.571 52.0358 353.927 33.7821 355.289C24.8169 355.958 15.8133 356.155 6.8229 356.43C0.960499 356.609 0.597522 355.94 2.4356 350.543C18.118 304.502 32.1021 257.964 42.4272 210.403C47.6915 186.154 51.5961 161.625 51.6785 136.763C51.7409 117.946 50.9724 99.0214 41.4888 81.871C37.1929 74.1023 31.842 67.4554 22.7245 65.0068C17.1706 63.5153 11.8353 64.8873 6.44869 66.0443C0.530445 67.3155 -1.29432 65.4662 0.892292 59.7422C13.1844 27.5645 35.5365 6.59764 70.0416 1.04034C101.041 -3.95241 125.507 9.47659 145.822 31.6497C162.654 50.0214 173.28 72.0569 181.466 95.3221C183.114 100.008 184.751 102.687 190.503 101.466C195.27 100.454 200.136 102.105 204.525 104.225C207.435 105.63 208.805 104.793 209.753 102.027C210.994 98.402 212.348 94.8161 213.793 90.8516ZM161.264 112.673C163.01 114.163 164.281 116.429 168.168 116.827C163.392 108.806 159.252 101.654 154.898 94.6337C153.059 91.6674 150.719 89.0307 147.606 87.2411C141.695 83.8435 134.84 85.7696 131.574 91.9288C132.55 92.2164 133.478 92.7177 134.411 92.7283C141.464 92.8086 146.662 96.3827 151.136 101.397C154.343 104.993 157.559 108.581 161.264 112.673Z"
    fill="#AE0001" />
  <path
    d="M213.427 131.467C222.875 133.783 231.084 138.022 239.846 142.542C236.204 145.252 218.021 144.165 216.597 141.578C214.912 138.514 211.115 135.975 213.427 131.467Z"
    fill="#AE0001" />
</svg>
