<svg width="1621" height="2153" viewBox="0 0 1621 2153" fill="none" xmlns="http://www.w3.org/2000/svg">
  <path
    d="M945.444 461.035C1078.08 461.006 1210.72 460.973 1343.36 460.95C1408.68 460.939 1474 460.856 1539.32 460.987C1574.91 461.058 1605.01 481.987 1615.73 514.651C1618.59 523.374 1619.08 532.894 1620.45 542.079C1620.84 544.687 1620.52 547.402 1620.52 550.068C1620.52 1030.97 1620.53 1511.87 1620.43 1992.77C1620.43 2001.72 1620.06 2010.89 1618.16 2019.58C1610.67 2053.79 1581.99 2078.17 1546.87 2080.92C1541.23 2081.36 1535.56 2081.4 1529.9 2081.4C1105.98 2081.43 682.071 2081.43 258.158 2081.43C253.826 2081.43 249.494 2081.38 243.764 2080.97C239.072 2076.03 235.431 2071.69 232.536 2066.9C208.654 2027.36 189.972 1985.49 177.014 1941.13C160.642 1885.09 153.294 1828.05 156.576 1769.55C158.938 1727.46 165.939 1686.31 177.165 1645.78C187.343 1609.03 201.082 1573.71 220.369 1540.75C263.595 1466.88 322.82 1408.33 393.543 1360.9C396.246 1359.08 399.166 1357.59 403.471 1355.09C414.702 1439.45 443.633 1515.32 496.459 1581.15C549.096 1646.75 614.961 1694.08 693.39 1724.12C687.023 1713.48 679.695 1703.74 673.279 1693.44C658.441 1669.61 649.291 1643.68 647.194 1615.59C644.745 1582.78 651.232 1551.35 662.888 1520.8C679.181 1478.09 703.079 1439.61 729.837 1402.97C760.083 1361.55 791.606 1321.06 822.504 1280.12C845.603 1249.51 867.835 1218.3 885.07 1183.91C919.79 1114.62 933.036 1040.39 934.569 963.664C935.168 933.693 932.684 903.806 928.904 874.057C928.391 870.021 927.663 866.011 926.731 860.04C929.837 862.348 931.163 863.238 932.384 864.254C978.116 902.299 1019.95 944.266 1057.39 990.462C1129.12 1078.96 1181.89 1177.61 1215.04 1286.71C1238.49 1363.89 1251.54 1442.86 1254.38 1523.33C1255.69 1560.23 1253.58 1597.25 1252.69 1634.21C1252.47 1643.16 1251.13 1652.1 1249.94 1661C1247.02 1682.75 1243.89 1704.48 1240.37 1726.78C1239.09 1731.8 1238.28 1736.25 1237.47 1740.71C1238.21 1740.88 1238.94 1741.06 1239.68 1741.24C1240.76 1737.55 1241.85 1733.87 1243.15 1729.48C1268.54 1660.62 1287.1 1590.64 1301.3 1519.42C1314.51 1453.11 1323.17 1386.2 1326.46 1318.73C1328.59 1275.19 1328.8 1231.55 1325.67 1187.94C1323.14 1152.7 1318.36 1117.86 1311.14 1083.32C1297.42 1017.69 1273.97 955.638 1242.05 896.767C1208.75 835.334 1167.06 779.679 1123.41 725.375C1092.13 686.457 1060.72 647.629 1030.2 608.116C998.569 567.158 971.315 523.373 950.154 476.003C948.035 471.259 946.988 466.036 945.444 461.035ZM419.169 2005.56C432.626 1975.44 446.082 1945.31 460.002 1914.15C460.938 1916.04 461.182 1916.3 461.183 1916.56C461.289 1952.88 461.366 1989.19 461.487 2025.51C461.499 2029.17 460.742 2032.02 456.565 2033C455.315 2033.29 454.317 2034.66 452.777 2035.87C462.072 2038.56 506.98 2038.41 517.298 2034.86C503.591 2033.12 506.192 2024.59 506.184 2017.28C506.146 1978.29 506.163 1939.3 506.164 1900.31C506.164 1894.64 506.17 1888.98 506.192 1883.31C506.206 1879.76 506.859 1876.74 511.112 1875.8C512.395 1875.51 513.436 1874.14 514.977 1872.97C506.837 1870.25 439.676 1870.12 430.959 1872.74C431.956 1873.83 432.592 1875.16 433.559 1875.48C439.481 1877.41 439.055 1881.31 436.981 1885.76C427.584 1905.96 418.163 1926.15 408.466 1946.96C407.202 1945.29 406.206 1944.4 405.724 1943.28C397.54 1924.34 389.329 1905.4 381.333 1886.38C378.469 1879.56 378.744 1879.49 385.369 1874.74C385.938 1874.33 385.965 1873.16 386.504 1871.59C384.097 1871.33 382.221 1870.94 380.349 1870.95C356.082 1871.17 331.816 1871.44 307.55 1871.73C307.359 1871.73 307.122 1872.22 307.002 1872.53C306.896 1872.79 306.925 1873.12 306.814 1874.18C311.131 1876.26 315.184 1878.35 315.126 1885.16C314.733 1931.47 314.892 1977.8 314.958 2024.12C314.965 2028.51 314.395 2032.06 309.23 2033.09C308.179 2033.31 307.352 2034.64 304.578 2037.07C314.956 2038.01 323.247 2038.2 330.456 2037.32C335.949 2032.11 328.631 2025.44 334.943 2019.69C335.498 2026.43 335.942 2031.8 336.41 2037.47C344.899 2037.5 352.674 2038.83 361.427 2035.38C354.422 2033.26 351.496 2029.57 351.585 2022.43C352.008 1988.45 351.76 1954.45 351.804 1920.46C351.806 1918.72 352.304 1916.98 352.571 1915.24C353.157 1915.12 353.742 1915.01 354.328 1914.9C371.434 1953.98 388.539 1993.06 406.361 2033.77C410.915 2023.79 414.753 2015.38 419.169 2005.56ZM964.45 1903.39C964.447 1941.04 964.462 1978.69 964.427 2016.34C964.421 2023.95 966.596 2032.55 955.539 2036.25C961.26 2037.44 966.359 2037.68 971.461 2037.76C976.791 2037.84 982.123 2037.78 987.454 2037.77C993.118 2037.77 998.807 2038.1 1004.44 2037.67C1009.24 2037.31 1014.64 2039.7 1019.34 2035.56C1010.95 2030.35 1010.95 2030.35 1010.94 2020.5C1010.93 2015.83 1010.94 2011.17 1010.94 2006.51C1010.94 1994.59 1010.94 1982.68 1010.94 1969.76C1037.93 1970.02 1063.96 1969.23 1090.43 1970.25C1090.43 1987.78 1090.43 2004.1 1090.43 2020.41C1090.43 2022.07 1090.41 2023.74 1090.42 2025.41C1090.45 2029.04 1089.54 2031.9 1085.41 2032.89C1084.11 2033.2 1083.05 2034.55 1080.78 2036.25C1089.17 2039.04 1096.44 2037.4 1103.54 2037.7C1110.52 2038.01 1117.53 2037.77 1124.52 2037.77C1140.94 2037.78 1140.94 2037.78 1145.43 2034.58C1140.61 2032.63 1136.51 2031.07 1136.56 2024.47C1136.91 1977.83 1136.77 1931.18 1136.7 1884.53C1136.7 1880.16 1137.26 1876.58 1142.46 1875.6C1143.5 1875.4 1144.33 1874.11 1146.03 1872.66C1138.17 1869.42 1130.9 1871.39 1123.87 1871.02C1116.89 1870.66 1109.87 1870.75 1102.88 1871C1095.93 1871.24 1088.76 1869.8 1081.18 1872.42C1084.34 1876.77 1090.5 1876.16 1090.44 1882.04C1090.27 1897.94 1090.38 1913.85 1090.38 1929.59C1078.02 1931.58 1018.09 1931.11 1010.96 1929.01C1010.96 1914.14 1011.06 1899.17 1010.9 1884.2C1010.84 1879.65 1011.76 1876.38 1016.86 1875.48C1017.75 1875.32 1018.41 1873.84 1019.38 1872.75C1010.15 1870.01 963.078 1870.24 956.05 1872.96C956.62 1873.75 957.052 1875.03 957.698 1875.15C963.605 1876.23 964.814 1880.11 964.522 1885.41C964.229 1890.72 964.452 1896.06 964.45 1903.39ZM1352.13 2014.44C1366.21 2001.06 1373.99 1984.63 1376.43 1965.41C1381.47 1925.71 1360.97 1890.73 1323.45 1876.81C1295.27 1866.35 1266.55 1866.19 1238.47 1876.82C1209.6 1887.75 1190.93 1908.37 1186.12 1939.48C1178.58 1988.31 1205.74 2022.62 1244.2 2033.63C1261.72 2038.64 1279.61 2039.77 1297.61 2037.62C1317.42 2035.25 1335.92 2029.21 1352.13 2014.44ZM1575.07 879.144C1575.07 872.481 1575.12 865.818 1575.06 859.156C1575.01 852.414 1574.85 845.674 1574.73 838.933C1573.96 838.132 1573.19 837.331 1572.42 836.53C1570.39 848.911 1562.22 846.26 1555.27 846.358C1546.94 846.476 1538.61 846.386 1530.28 846.386C1524.74 846.386 1519.19 846.386 1513.29 846.386C1513.29 836.571 1513.29 827.997 1513.29 819.614C1513.99 818.975 1514.43 818.459 1514.97 818.102C1525.26 811.333 1535.54 804.539 1545.89 797.848C1551.19 794.415 1556.65 791.214 1561.99 787.827C1565.26 785.756 1568.08 785.359 1570.49 789.118C1571.21 790.241 1572.49 791.003 1573.95 792.322C1576.09 778.69 1575.55 740.892 1573.33 734.673C1555.48 750.576 1533.86 760.73 1514.06 774.403C1511.95 769.812 1510.5 766.073 1508.58 762.597C1502.12 750.902 1493.69 741.209 1480.3 737.361C1466.13 733.289 1451.95 733.845 1438.05 738.664C1427.42 742.348 1419.62 749.543 1415.61 760.022C1413.26 766.164 1411.1 772.828 1410.97 779.298C1410.23 817.248 1410.1 855.21 1409.87 893.168C1409.87 894.091 1411.05 895.02 1413.31 898.361C1413.82 886.764 1420.65 888.389 1426.59 888.386C1469.23 888.362 1511.87 888.37 1554.51 888.377C1558.18 888.377 1562.18 887.526 1565.41 888.732C1568.57 889.915 1570.93 893.219 1575.07 896.834C1575.07 890.69 1575.07 885.871 1575.07 879.144ZM1572.34 2012.41C1573.76 2010.16 1575.42 2008.02 1576.55 2005.63C1586.46 1984.55 1586.02 1952.94 1551.95 1940.03C1545.46 1937.57 1538.66 1935.45 1531.81 1934.48C1514.69 1932.05 1497.44 1930.57 1480.29 1928.3C1473.74 1927.44 1467.06 1926.22 1460.95 1923.83C1453.58 1920.95 1452.57 1913.62 1459.05 1909C1463.72 1905.67 1469.65 1903.23 1475.32 1902.36C1496.41 1899.12 1517.11 1902.27 1537.49 1907.91C1545.81 1910.21 1554.03 1912.71 1556.55 1922.91C1563.8 1914.53 1577.52 1885.13 1577.48 1877.63C1570.64 1884.52 1563.35 1882.22 1555.92 1880.06C1536.69 1874.46 1517.16 1870.56 1497.1 1869.54C1478.24 1868.59 1459.8 1870.13 1442.51 1878.4C1429.76 1884.49 1419.21 1893.31 1415.03 1907.2C1407.52 1932.15 1415.45 1945.64 1432.65 1954.51C1439.09 1957.83 1446.05 1960.78 1453.11 1962.14C1467.46 1964.89 1482.04 1966.42 1496.51 1968.52C1507.69 1970.15 1519 1971.24 1529.98 1973.77C1539.77 1976.03 1541.6 1983.02 1535.45 1991.01C1531.14 1996.61 1524.97 1999.1 1518.3 2000.38C1493.41 2005.14 1469.25 2002.43 1445.96 1992.59C1437.15 1988.87 1427.9 1985.11 1428.09 1972.19C1419.45 1990.64 1411.57 2008.8 1405.32 2029.07C1414.53 2021.1 1422.15 2027.57 1430.02 2029.86C1462.21 2039.24 1494.91 2041.14 1527.89 2035.83C1544.56 2033.14 1560.01 2027.01 1572.34 2012.41ZM1409.71 1509.37C1409.91 1531.97 1410.12 1554.57 1410.36 1577.16C1410.36 1577.34 1410.88 1577.55 1411.19 1577.67C1411.47 1577.77 1411.78 1577.78 1412.08 1577.83C1417.37 1570.56 1417.37 1570.54 1427.47 1570.54C1469.76 1570.54 1512.04 1570.53 1554.32 1570.55C1561.6 1570.56 1569.7 1568.49 1573.3 1579.56C1574.34 1577.01 1574.95 1576.2 1574.95 1575.39C1574.95 1543.76 1576.17 1512.07 1574.47 1480.53C1572.78 1449.06 1555.43 1427.27 1525.81 1416.02C1505.9 1408.45 1485.41 1408.54 1464.9 1413.41C1433.92 1420.77 1412.88 1442.73 1410.55 1475.46C1409.79 1486.07 1409.96 1496.74 1409.71 1509.37ZM1517.18 1103.86C1549.46 1094.38 1568.45 1072.85 1574.26 1039.91C1577.36 1022.34 1576.72 1004.76 1571.48 987.517C1563.11 960.018 1544.69 942.466 1517.2 935.495C1506.12 932.685 1494 931.915 1482.58 932.907C1448.52 935.867 1424.84 953.821 1413.35 986.222C1405.91 1007.18 1405.77 1028.79 1412.52 1050.06C1422.13 1080.31 1442.56 1098.84 1473.88 1104.94C1487.79 1107.65 1501.7 1107.14 1517.18 1103.86ZM1536.77 1655.38C1536.77 1674.92 1536.77 1694.47 1536.77 1714.08C1526.44 1714.08 1517.31 1714.08 1507.41 1714.08C1507.41 1699.84 1507.55 1686.24 1507.36 1672.65C1507.26 1665.03 1506.75 1657.47 1515.27 1652.81C1505.09 1649.9 1471.93 1650.3 1465.03 1653.57C1473.37 1656.32 1473.21 1662.68 1472.98 1669.23C1472.77 1675.21 1472.93 1681.22 1472.93 1687.21C1472.93 1696.11 1472.93 1705.01 1472.93 1713.99C1463.76 1713.99 1455.68 1713.99 1447.45 1713.99C1447.45 1683.34 1447.45 1653.45 1447.45 1623.32C1449.07 1622.46 1450.53 1621.75 1451.93 1620.94C1453.08 1620.27 1454.16 1619.49 1456.09 1618.22C1442.44 1615.58 1407.16 1616.22 1401.28 1619.09C1404.03 1620.49 1406.59 1621.79 1408.67 1622.85C1409.08 1623.81 1409.32 1624.12 1409.32 1624.42C1409.48 1670.04 1409.62 1715.66 1409.78 1761.28C1409.78 1761.93 1409.95 1762.6 1410.16 1763.22C1410.25 1763.47 1410.64 1763.63 1410.92 1763.79C1411.19 1763.94 1411.5 1764.03 1413.19 1764.71C1413.95 1754.53 1421.61 1756.73 1428.07 1756.72C1471.36 1756.67 1514.66 1756.8 1557.96 1756.6C1564.34 1756.57 1569.63 1757.22 1572.34 1763.86C1572.41 1764.02 1573.52 1763.77 1575.1 1763.62C1575.1 1760.17 1575.1 1756.62 1575.1 1753.06C1575.1 1713.43 1575.1 1673.8 1575.11 1634.16C1575.11 1631.17 1574.47 1627.93 1575.39 1625.24C1576.32 1622.56 1578.83 1620.42 1580.81 1617.83C1567.12 1615.66 1533.79 1616.25 1526.27 1619.23C1536.76 1620.44 1537.32 1626.93 1536.85 1634.41C1536.45 1640.71 1536.77 1647.06 1536.77 1655.38ZM1421.3 650.324C1451.56 660.491 1482.05 669.992 1511.98 681.052C1532.78 688.743 1555.24 692.33 1574.52 705.516C1574.52 689.059 1574.52 673.029 1574.52 657.146C1570.91 658.304 1567.49 660.675 1564.78 660.037C1556.17 658.01 1547.83 654.861 1539.86 652.3C1539.86 629.655 1539.86 608.154 1539.86 586.426C1549.38 583.134 1558.47 579.995 1567.53 576.865C1569.64 578.741 1571.47 580.367 1573.58 582.248C1576.14 570.876 1575.64 533.167 1573.43 528.082C1567.96 530.866 1562.69 534.27 1556.94 536.367C1513.83 552.081 1470.63 567.518 1427.48 583.1C1421.79 585.155 1416.2 588.279 1411 581.384C1408.36 596.707 1409.19 648.277 1411.95 654.075C1415.03 653.604 1414.99 647.349 1421.3 650.324ZM905.663 1870.94C856.731 1870.94 807.798 1870.94 759.289 1870.94C757.223 1867.56 755.66 1865.01 753.662 1861.74C750.763 1871.58 750.984 1911.57 753.612 1918.29C760.125 1910.03 760.125 1910.03 772.087 1910.02C775.086 1910.02 778.084 1910.02 781.083 1910.02C791.653 1910.02 802.223 1910.02 813.216 1910.02C813.216 1950.91 813.216 1990.75 813.216 2030.36C810.304 2032.2 807.815 2033.78 804.504 2035.88C814.964 2038.6 861.595 2038.36 868.47 2035.93C860.204 2028.83 860.195 2028.83 860.194 2015.49C860.191 1984.17 860.198 1952.85 860.2 1921.53C860.2 1917.97 860.2 1914.42 860.2 1910.05C877.926 1910.05 894.515 1910.06 911.103 1910.05C914.507 1910.04 916.739 1911.34 917.586 1914.92C917.911 1916.29 919.167 1917.44 920.636 1919.66C923.823 1912.62 922.25 1906.34 922.503 1900.31C922.782 1893.65 922.851 1886.96 922.485 1880.32C922.164 1874.46 924.28 1868.19 919.68 1860.98C917.821 1868.56 914.433 1872.46 905.663 1870.94ZM667.093 1899.23C659.714 1909.81 652.335 1920.39 644.403 1931.76C632.537 1913.09 619.796 1896.57 610.146 1878.24C613.537 1876.11 615.651 1874.78 618.182 1873.19C610.692 1870.24 559.23 1870.03 550.427 1872.79C552.968 1875.98 555.585 1878.87 557.757 1882.06C577.251 1910.7 596.723 1939.35 616.008 1968.13C617.737 1970.71 618.912 1974.19 618.97 1977.28C619.265 1992.94 619.028 2008.6 619.156 2024.27C619.192 2028.67 618.682 2032.27 613.437 2033.15C612.171 2033.36 610.981 2034.03 608.351 2035.01C619.263 2038.73 666.908 2038.48 673.419 2035.68C665.425 2029.42 665.424 2029.42 665.424 2017.87C665.423 2003.21 665.575 1988.54 665.34 1973.88C665.261 1968.98 666.462 1964.93 669.273 1960.89C687.353 1934.91 705.212 1908.78 723.247 1882.78C725.722 1879.21 728.776 1876.05 732.447 1871.63C711.978 1871.63 693.165 1871.62 674.352 1871.7C674.148 1871.7 673.948 1872.82 673.598 1873.85C675.529 1875.11 677.586 1876.45 680.625 1878.42C676.152 1885.32 672.028 1891.68 667.093 1899.23ZM1409.71 1147.65C1409.71 1190.84 1409.71 1234.03 1409.71 1276.32C1406.03 1278.42 1403.72 1279.73 1400.15 1281.77C1417.12 1284.25 1450.92 1283.42 1457.39 1280.11C1448.01 1279.42 1448.32 1273.36 1448.47 1267.19C1448.65 1260.21 1448.51 1253.21 1448.51 1246.22C1448.51 1240 1448.51 1233.78 1448.51 1226.7C1452.97 1226.7 1456.22 1226.7 1459.48 1226.7C1491.1 1226.7 1522.73 1226.67 1554.35 1226.72C1561.58 1226.74 1569.74 1224.54 1573.08 1235.47C1576.32 1223.72 1575.73 1182.57 1572.24 1176.35C1570.44 1183.46 1565.91 1184.76 1559.51 1184.7C1524.89 1184.39 1490.27 1184.57 1455.65 1184.54C1453.44 1184.53 1451.22 1184.07 1449.21 1183.85C1448.92 1182.61 1448.64 1181.98 1448.64 1181.35C1448.59 1168.7 1448.92 1156.03 1448.4 1143.41C1448.12 1136.91 1449.7 1132.57 1456.28 1130.79C1456.44 1130.75 1456.3 1129.6 1456.3 1128.97C1440.44 1126.96 1407.41 1127.75 1401.12 1130.55C1404.02 1132.02 1406.53 1133.29 1409.71 1134.9C1409.71 1138.49 1409.71 1142.11 1409.71 1147.65ZM1510.1 1324.08C1482.12 1324.08 1454.13 1323.94 1426.15 1324.18C1420.03 1324.23 1415.01 1323.63 1412.79 1316.99C1412.73 1316.8 1411.62 1316.97 1410.99 1316.97C1408.75 1327.87 1409.18 1367.16 1412.06 1374.67C1414.92 1365.45 1421.73 1366.07 1428.76 1366.1C1470.73 1366.27 1512.71 1366.18 1554.68 1366.19C1558.34 1366.19 1562.35 1365.34 1565.57 1366.55C1568.69 1367.72 1571.01 1371.04 1573.76 1373.48C1575.95 1363.36 1575.61 1323.69 1572.87 1315.53C1569.83 1324.63 1563.16 1324.34 1556.07 1324.18C1541.42 1323.85 1526.75 1324.08 1510.1 1324.08Z"
    fill="#801A1D" />
  <path
    d="M944.859 460.563C946.988 466.036 948.035 471.259 950.154 476.003C971.315 523.373 998.569 567.158 1030.2 608.116C1060.72 647.63 1092.13 686.457 1123.41 725.375C1167.06 779.679 1208.75 835.334 1242.05 896.767C1273.97 955.638 1297.42 1017.69 1311.14 1083.32C1318.36 1117.86 1323.14 1152.7 1325.67 1187.94C1328.8 1231.55 1328.59 1275.19 1326.46 1318.73C1323.17 1386.2 1314.51 1453.11 1301.3 1519.42C1287.1 1590.64 1268.54 1660.62 1242.66 1729.17C1241.58 1728.43 1241.21 1727.32 1240.84 1726.21C1243.89 1704.48 1247.02 1682.75 1249.94 1661C1251.13 1652.1 1252.47 1643.16 1252.69 1634.21C1253.58 1597.25 1255.69 1560.23 1254.38 1523.33C1251.54 1442.86 1238.49 1363.89 1215.04 1286.71C1181.89 1177.61 1129.12 1078.96 1057.39 990.462C1019.95 944.266 978.116 902.299 932.384 864.254C931.163 863.238 929.837 862.348 926.73 860.04C927.663 866.011 928.391 870.021 928.904 874.057C932.684 903.806 935.168 933.693 934.569 963.664C933.036 1040.39 919.79 1114.62 885.07 1183.91C867.835 1218.3 845.603 1249.51 822.504 1280.12C791.606 1321.06 760.083 1361.55 729.837 1402.97C703.078 1439.61 679.181 1478.09 662.888 1520.8C651.232 1551.35 644.744 1582.78 647.194 1615.59C649.291 1643.68 658.441 1669.61 673.279 1693.44C679.695 1703.74 687.023 1713.48 693.389 1724.12C614.961 1694.08 549.096 1646.75 496.459 1581.15C443.632 1515.32 414.702 1439.45 403.471 1355.09C399.166 1357.59 396.246 1359.08 393.543 1360.9C322.82 1408.33 263.595 1466.88 220.369 1540.75C201.082 1573.71 187.343 1609.03 177.165 1645.78C165.939 1686.31 158.938 1727.46 156.576 1769.55C153.294 1828.05 160.641 1885.09 177.014 1941.13C189.972 1985.49 208.654 2027.36 232.536 2066.9C235.431 2071.69 239.072 2076.03 242.967 2081.03C245.168 2085 246.27 2088.87 248.458 2091.97C256.326 2103.12 264.561 2114.01 272.718 2126.07C272.179 2127.59 271.581 2128.04 270.982 2128.49C258.285 2114.54 245.603 2100.57 232.869 2086.65C231.339 2084.98 229.522 2083.57 227.183 2081.05C224.953 2077.57 223.591 2074.91 221.774 2072.61C179.356 2019.02 145.027 1960.71 118.642 1897.63C88.5513 1825.7 71.5228 1750.76 67.6061 1673.03C65.275 1626.77 67.7186 1580.59 74.8121 1534.66C84.5461 1471.65 103.313 1411.61 132.188 1354.76C160.292 1299.44 196.59 1249.83 238.549 1204.33C275.415 1164.36 315.81 1128.09 357.622 1093.39C405.529 1053.62 453.926 1014.44 501.221 973.96C529.871 949.441 555.463 921.734 575.188 889.213C588.793 866.783 598.533 842.884 602.018 816.476C603.449 816.391 604.269 816.377 605.167 817.212C605.821 823.347 606.664 828.621 606.927 833.923C608.065 856.858 610.026 879.787 607.355 902.759C604.67 925.862 602.411 949.018 599.45 972.085C598.056 982.945 594.192 993.585 593.633 1004.44C591.749 1041 583.999 1076.32 572.362 1110.8C562.997 1138.54 552.428 1165.88 542.49 1193.44C530.446 1226.83 522.684 1261.19 521.69 1296.72C521.02 1320.69 523.695 1344.56 527.961 1368.2C537.65 1421.88 554.917 1473.19 576.535 1523.13C580.047 1531.25 583.865 1539.23 587.541 1547.27C590.697 1533.27 591.696 1519.68 593.535 1506.2C599.703 1460.99 608.461 1416.27 621.592 1372.54C633.299 1333.55 647.841 1295.66 668.162 1260.21C685.73 1229.55 702.108 1198.33 715.558 1165.59C737.002 1113.38 749.432 1059.17 752.629 1002.87C754.277 973.855 752.383 944.883 748.577 916.158C742.436 869.822 731.694 824.404 714.36 780.981C691.573 723.901 677.204 665.026 673.725 603.743C671.192 559.123 672.734 514.529 679.911 470.263C680.393 467.296 679.264 464.068 678.885 460.962C680.238 458.457 682.353 456.09 682.835 453.428C697.945 369.998 728.645 292.92 776.9 223.081C823.053 156.284 881.604 102.751 951.21 61.0895C989.673 38.0685 1030.49 20.2108 1072.39 4.63874C1073.31 4.29796 1074.36 4.32077 1076.91 4.23926C1079.03 4.36444 1079.58 4.42432 1080.13 4.48421C1022.6 45.0214 972.879 92.921 939.742 155.926C920.777 191.983 909.707 230.385 908.876 271.495C907.632 333.088 917.819 392.668 939.454 450.31C940.725 453.696 942.653 456.836 944.859 460.563Z"
    fill="#B8AB7A" />
  <path
    d="M601.407 816.547C598.534 842.884 588.794 866.783 575.189 889.213C555.463 921.734 529.872 949.441 501.221 973.96C453.926 1014.44 405.529 1053.62 357.622 1093.39C315.81 1128.09 275.415 1164.36 238.549 1204.33C196.59 1249.83 160.292 1299.44 132.188 1354.76C103.313 1411.61 84.5463 1471.65 74.8123 1534.66C67.7188 1580.59 65.2752 1626.77 67.6063 1673.03C71.523 1750.76 88.5515 1825.7 118.642 1897.63C145.027 1960.71 179.356 2019.02 221.774 2072.61C223.591 2074.91 224.953 2077.57 226.538 2080.68C177.885 2081.33 129.221 2081.35 80.5562 2081.39C37.9288 2081.42 9.166 2051.58 2.39255 2020.72C0.697756 2013 0.230424 2004.88 0.22812 1996.94C0.126405 1645.62 0.140092 1294.29 0.140214 942.97C0.140244 809.307 0.363085 675.643 0.000321842 541.981C-0.10327 503.812 24.8153 474.544 53.6212 465.605C63.3104 462.598 73.877 461.156 84.0454 461.143C281.706 460.892 479.367 460.959 677.957 460.961C679.265 464.068 680.393 467.296 679.912 470.263C672.734 514.529 671.192 559.123 673.725 603.743C677.204 665.026 691.573 723.901 714.36 780.981C731.694 824.404 742.437 869.822 748.577 916.158C752.383 944.883 754.277 973.856 752.629 1002.87C749.432 1059.17 737.002 1113.38 715.558 1165.59C702.108 1198.33 685.73 1229.55 668.162 1260.21C647.841 1295.66 633.299 1333.55 621.593 1372.54C608.462 1416.27 599.703 1460.99 593.535 1506.2C591.696 1519.68 590.697 1533.27 587.541 1547.27C583.865 1539.23 580.047 1531.25 576.535 1523.13C554.917 1473.19 537.65 1421.88 527.961 1368.2C523.695 1344.56 521.02 1320.69 521.691 1296.72C522.684 1261.19 530.446 1226.83 542.49 1193.44C552.428 1165.88 562.998 1138.54 572.362 1110.8C583.999 1076.32 591.749 1041 593.633 1004.44C594.192 993.585 598.056 982.945 599.45 972.085C602.411 949.018 604.67 925.862 607.356 902.759C610.026 879.787 608.065 856.858 606.928 833.923C606.665 828.621 605.821 823.347 605.258 816.375C604.777 810.437 606.051 805.753 602.33 801.238C601.802 803.108 601.364 803.962 601.353 804.821C601.305 808.729 601.378 812.638 601.407 816.547Z"
    fill="#80191C" />
  <path
    d="M271.266 2129.1C271.581 2128.04 272.18 2127.59 273.06 2126.65C276.656 2129.57 279.97 2132.97 283.284 2136.38C276.964 2137.39 274.91 2132.59 271.266 2129.1Z"
    fill="#CDC9A9" />
  <path
    d="M1080.72 4.50637C1079.58 4.42487 1079.03 4.36498 1077.67 4.09591C1079.61 2.59115 1082.36 1.29557 1085.11 0C1085.41 0.652024 1085.7 1.30405 1086 1.95608C1084.43 2.81338 1082.86 3.67068 1080.72 4.50637Z"
    fill="#D6D4BC" />
  <path
    d="M289.13 2146.32C288.563 2145.7 287.995 2145.09 287.427 2144.47C287.778 2144.23 288.128 2143.98 288.478 2143.73C288.714 2144.27 288.951 2144.8 289.14 2145.85C289.092 2146.37 289.13 2146.32 289.13 2146.32Z"
    fill="#CDC9A9" />
  <path d="M284.038 2141C284.279 2140.81 284.421 2141.48 284.421 2141.48C284.421 2141.48 283.797 2141.19 284.038 2141Z"
    fill="#CDC9A9" />
  <path
    d="M289.067 2146.39C289.622 2146.74 290.202 2147.07 290.937 2147.89C291.091 2148.37 291.137 2148.31 291.137 2148.31C290.459 2148.16 289.92 2147.8 289.325 2146.78C289.13 2146.32 289.091 2146.37 289.067 2146.39Z"
    fill="#CDC9A9" />
  <path
    d="M293.126 2150.31C292.473 2150.12 291.945 2149.75 291.34 2148.75C291.138 2148.31 291.091 2148.37 291.062 2148.39C291.592 2148.76 292.153 2149.1 292.903 2149.9C293.093 2150.37 293.126 2150.31 293.126 2150.31Z"
    fill="#CDC9A9" />
  <path
    d="M293.068 2150.38C293.702 2150.58 294.233 2150.95 294.864 2151.94C295.094 2152.37 295.119 2152.33 295.119 2152.33C294.522 2152.05 294.022 2151.66 293.372 2150.73C293.126 2150.32 293.093 2150.37 293.068 2150.38Z"
    fill="#CDC9A9" />
  <path
    d="M295.073 2152.38C295.053 2152.4 295.921 2152.79 295.921 2152.79C295.921 2152.79 295.389 2152.75 295.254 2152.54C295.119 2152.33 295.094 2152.37 295.073 2152.38Z"
    fill="#CDC9A9" />
  <path
    d="M418.88 2006.26C414.753 2015.38 410.915 2023.79 406.361 2033.77C388.539 1993.06 371.434 1953.98 354.328 1914.9C353.742 1915.01 353.157 1915.12 352.571 1915.24C352.304 1916.98 351.806 1918.72 351.804 1920.46C351.76 1954.45 352.008 1988.45 351.585 2022.43C351.496 2029.57 354.421 2033.27 361.427 2035.38C352.674 2038.83 344.899 2037.5 336.41 2037.47C335.941 2031.8 335.498 2026.43 334.943 2019.69C328.631 2025.44 335.949 2032.11 330.455 2037.32C323.247 2038.21 314.956 2038.01 304.578 2037.07C307.352 2034.64 308.179 2033.31 309.23 2033.09C314.395 2032.06 314.965 2028.51 314.958 2024.12C314.892 1977.8 314.733 1931.48 315.126 1885.16C315.184 1878.35 311.131 1876.26 306.814 1874.18C306.925 1873.12 306.896 1872.8 307.002 1872.53C307.122 1872.23 307.359 1871.73 307.55 1871.73C331.816 1871.44 356.082 1871.17 380.349 1870.95C382.221 1870.94 384.097 1871.33 386.504 1871.59C385.965 1873.16 385.938 1874.33 385.369 1874.74C378.743 1879.49 378.469 1879.56 381.333 1886.38C389.329 1905.4 397.54 1924.34 405.724 1943.28C406.206 1944.4 407.202 1945.29 408.466 1946.96C418.163 1926.16 427.584 1905.97 436.981 1885.76C439.055 1881.31 439.48 1877.41 433.559 1875.48C432.592 1875.16 431.956 1873.83 430.959 1872.74C439.676 1870.12 506.837 1870.25 514.977 1872.98C513.436 1874.14 512.395 1875.51 511.112 1875.8C506.859 1876.74 506.206 1879.76 506.192 1883.31C506.17 1888.98 506.164 1894.64 506.163 1900.31C506.163 1939.3 506.146 1978.29 506.184 2017.28C506.191 2024.59 503.591 2033.12 517.298 2034.86C506.98 2038.41 462.072 2038.56 452.777 2035.87C454.317 2034.66 455.315 2033.29 456.565 2033C460.742 2032.02 461.499 2029.17 461.487 2025.51C461.366 1989.19 461.289 1952.88 461.183 1916.56C461.182 1916.3 460.938 1916.04 460.002 1914.15C446.082 1945.31 432.626 1975.44 418.88 2006.26Z"
    fill="#FCF9F9" />
  <path
    d="M964.449 1902.39C964.452 1896.06 964.229 1890.72 964.522 1885.41C964.814 1880.11 963.605 1876.23 957.698 1875.15C957.052 1875.03 956.619 1873.75 956.049 1872.96C963.078 1870.24 1010.15 1870.01 1019.38 1872.75C1018.41 1873.84 1017.75 1875.32 1016.86 1875.48C1011.76 1876.38 1010.84 1879.65 1010.9 1884.2C1011.06 1899.17 1010.96 1914.14 1010.96 1929.01C1018.09 1931.11 1078.02 1931.58 1090.38 1929.59C1090.38 1913.85 1090.27 1897.94 1090.44 1882.04C1090.5 1876.16 1084.34 1876.77 1081.18 1872.42C1088.76 1869.8 1095.93 1871.24 1102.88 1871C1109.87 1870.75 1116.89 1870.66 1123.87 1871.02C1130.9 1871.39 1138.17 1869.42 1146.03 1872.66C1144.33 1874.11 1143.5 1875.4 1142.46 1875.6C1137.26 1876.58 1136.7 1880.16 1136.7 1884.53C1136.77 1931.18 1136.91 1977.83 1136.56 2024.47C1136.51 2031.07 1140.61 2032.63 1145.43 2034.58C1140.94 2037.78 1140.94 2037.78 1124.52 2037.77C1117.53 2037.77 1110.52 2038.01 1103.54 2037.71C1096.44 2037.4 1089.17 2039.04 1080.78 2036.25C1083.05 2034.55 1084.11 2033.2 1085.41 2032.89C1089.54 2031.9 1090.45 2029.04 1090.42 2025.41C1090.41 2023.74 1090.43 2022.08 1090.43 2020.41C1090.43 2004.1 1090.43 1987.78 1090.43 1970.25C1063.96 1969.23 1037.93 1970.02 1010.94 1969.76C1010.94 1982.68 1010.94 1994.59 1010.94 2006.51C1010.94 2011.17 1010.93 2015.83 1010.94 2020.5C1010.95 2030.35 1010.95 2030.35 1019.34 2035.56C1014.64 2039.7 1009.24 2037.31 1004.44 2037.67C998.807 2038.1 993.118 2037.77 987.454 2037.77C982.123 2037.78 976.791 2037.84 971.461 2037.76C966.359 2037.68 961.26 2037.44 955.539 2036.25C966.596 2032.55 964.42 2023.95 964.427 2016.34C964.462 1978.69 964.447 1941.04 964.449 1902.39Z"
    fill="#FCF9F9" />
  <path
    d="M1351.61 2014.92C1335.92 2029.21 1317.42 2035.25 1297.61 2037.62C1279.61 2039.77 1261.72 2038.64 1244.2 2033.63C1205.74 2022.62 1178.58 1988.31 1186.12 1939.48C1190.93 1908.37 1209.6 1887.75 1238.47 1876.82C1266.55 1866.19 1295.27 1866.35 1323.45 1876.81C1360.97 1890.73 1381.47 1925.71 1376.43 1965.41C1373.99 1984.63 1366.21 2001.06 1351.61 2014.92ZM1301.96 1996.73C1335.74 1984.11 1338.42 1943.29 1319.39 1923.5C1299.83 1903.15 1262.25 1902.89 1242.7 1923.25C1223.57 1943.16 1227.42 1977.25 1250.68 1992.06C1266.31 2002.03 1283.11 2002.95 1301.96 1996.73Z"
    fill="#FDFBFB" />
  <path
    d="M1575.07 880.099C1575.07 885.871 1575.07 890.69 1575.07 896.834C1570.93 893.22 1568.57 889.915 1565.41 888.733C1562.18 887.527 1558.18 888.378 1554.51 888.377C1511.87 888.371 1469.23 888.363 1426.59 888.387C1420.65 888.39 1413.82 886.765 1413.31 898.361C1411.05 895.02 1409.87 894.091 1409.87 893.169C1410.1 855.211 1410.23 817.249 1410.97 779.299C1411.1 772.829 1413.26 766.165 1415.61 760.022C1419.62 749.544 1427.42 742.349 1438.05 738.664C1451.95 733.845 1466.13 733.29 1480.3 737.362C1493.69 741.21 1502.12 750.903 1508.58 762.597C1510.5 766.074 1511.95 769.812 1514.06 774.404C1533.86 760.731 1555.48 750.576 1573.33 734.673C1575.55 740.893 1576.09 778.691 1573.95 792.322C1572.49 791.004 1571.21 790.242 1570.49 789.119C1568.08 785.36 1565.26 785.756 1561.99 787.828C1556.65 791.214 1551.19 794.415 1545.89 797.849C1535.54 804.54 1525.26 811.334 1514.97 818.102C1514.43 818.459 1513.99 818.976 1513.29 819.615C1513.29 827.998 1513.29 836.572 1513.29 846.387C1519.19 846.387 1524.74 846.387 1530.28 846.387C1538.61 846.387 1546.94 846.476 1555.27 846.359C1562.22 846.261 1570.39 848.911 1572.42 836.531C1573.19 837.332 1573.96 838.132 1574.73 838.933C1574.85 845.674 1575.01 852.415 1575.06 859.157C1575.12 865.819 1575.07 872.482 1575.07 880.099ZM1479.3 801.748C1479.26 799.422 1479.38 797.081 1479.16 794.771C1478.17 784.305 1472.3 778.412 1462.81 778.22C1453.28 778.027 1446.06 783.694 1445.63 793.857C1444.91 811.016 1445.44 828.226 1445.44 845.844C1456.86 845.844 1467.62 845.844 1479.3 845.844C1479.3 831.426 1479.3 817.54 1479.3 801.748Z"
    fill="#FCFAFA" />
  <path
    d="M1571.88 2012.96C1560.01 2027.01 1544.56 2033.14 1527.89 2035.83C1494.91 2041.14 1462.21 2039.24 1430.02 2029.86C1422.15 2027.57 1414.53 2021.1 1405.32 2029.07C1411.57 2008.8 1419.45 1990.64 1428.09 1972.19C1427.9 1985.11 1437.15 1988.87 1445.96 1992.59C1469.25 2002.43 1493.41 2005.14 1518.3 2000.38C1524.97 1999.1 1531.14 1996.61 1535.45 1991.01C1541.6 1983.02 1539.77 1976.03 1529.98 1973.77C1519 1971.24 1507.69 1970.15 1496.51 1968.52C1482.04 1966.42 1467.46 1964.89 1453.11 1962.13C1446.05 1960.78 1439.09 1957.83 1432.65 1954.51C1415.45 1945.64 1407.52 1932.15 1415.03 1907.2C1419.21 1893.31 1429.76 1884.49 1442.51 1878.4C1459.8 1870.13 1478.24 1868.59 1497.1 1869.54C1517.16 1870.56 1536.69 1874.46 1555.92 1880.06C1563.35 1882.22 1570.64 1884.52 1577.48 1877.63C1577.52 1885.13 1563.8 1914.53 1556.55 1922.91C1554.03 1912.71 1545.81 1910.21 1537.49 1907.91C1517.11 1902.27 1496.41 1899.12 1475.32 1902.36C1469.65 1903.23 1463.72 1905.67 1459.05 1908.99C1452.57 1913.62 1453.58 1920.95 1460.95 1923.83C1467.06 1926.22 1473.74 1927.44 1480.29 1928.3C1497.44 1930.57 1514.69 1932.05 1531.81 1934.48C1538.66 1935.45 1545.46 1937.57 1551.95 1940.03C1586.02 1952.93 1586.46 1984.55 1576.55 2005.63C1575.42 2008.02 1573.76 2010.16 1571.88 2012.96Z"
    fill="#FCFBFA" />
  <path
    d="M1409.71 1508.38C1409.96 1496.74 1409.79 1486.07 1410.55 1475.46C1412.88 1442.73 1433.92 1420.77 1464.9 1413.41C1485.41 1408.54 1505.9 1408.46 1525.81 1416.02C1555.43 1427.27 1572.78 1449.06 1574.47 1480.53C1576.17 1512.07 1574.95 1543.76 1574.95 1575.39C1574.95 1576.2 1574.34 1577.01 1573.3 1579.56C1569.7 1568.49 1561.6 1570.56 1554.32 1570.55C1512.04 1570.53 1469.76 1570.54 1427.47 1570.54C1417.37 1570.54 1417.37 1570.56 1412.08 1577.83C1411.78 1577.78 1411.47 1577.77 1411.19 1577.67C1410.88 1577.55 1410.36 1577.34 1410.36 1577.17C1410.12 1554.57 1409.91 1531.97 1409.71 1508.38ZM1463.22 1459.12C1451.89 1466.09 1447.75 1476.94 1447.22 1489.5C1446.86 1498.13 1447.11 1506.79 1447.1 1515.43C1447.09 1519.61 1447.1 1523.8 1447.1 1527.99C1477.95 1527.99 1507.39 1527.99 1537.24 1527.99C1537.41 1525.89 1537.65 1524.29 1537.64 1522.7C1537.58 1510.73 1537.93 1498.74 1537.26 1486.81C1536.34 1470.3 1527.77 1459.34 1511.97 1454.73C1495.86 1450.02 1479.82 1450.31 1463.22 1459.12Z"
    fill="#FCFAFA" />
  <path
    d="M1516.36 1104.04C1501.7 1107.14 1487.79 1107.65 1473.88 1104.94C1442.56 1098.84 1422.13 1080.31 1412.52 1050.06C1405.77 1028.79 1405.91 1007.18 1413.35 986.222C1424.84 953.821 1448.52 935.867 1482.58 932.907C1494 931.915 1506.12 932.686 1517.2 935.495C1544.69 942.466 1563.11 960.018 1571.48 987.517C1576.72 1004.76 1577.36 1022.34 1574.26 1039.91C1568.45 1072.85 1549.46 1094.38 1516.36 1104.04ZM1526.66 987.863C1510.95 973.365 1490.44 969.667 1472.18 978.042C1454.87 985.977 1445.89 1001.77 1446.75 1022.78C1447.57 1043.07 1461.65 1059.93 1481.21 1064.05C1504.04 1068.85 1525.46 1059.24 1533.99 1039.71C1541.86 1021.71 1539.74 1004.63 1526.66 987.863Z"
    fill="#FDFBFB" />
  <path
    d="M1536.77 1654.38C1536.77 1647.06 1536.45 1640.71 1536.85 1634.41C1537.32 1626.94 1536.76 1620.44 1526.27 1619.23C1533.79 1616.25 1567.12 1615.66 1580.81 1617.83C1578.83 1620.42 1576.32 1622.56 1575.39 1625.24C1574.47 1627.93 1575.11 1631.17 1575.11 1634.16C1575.1 1673.8 1575.1 1713.43 1575.1 1753.07C1575.1 1756.62 1575.1 1760.17 1575.1 1763.62C1573.52 1763.77 1572.41 1764.02 1572.34 1763.86C1569.63 1757.22 1564.34 1756.57 1557.96 1756.6C1514.66 1756.8 1471.36 1756.67 1428.07 1756.72C1421.61 1756.73 1413.95 1754.53 1413.19 1764.71C1411.5 1764.03 1411.19 1763.94 1410.92 1763.79C1410.64 1763.64 1410.25 1763.47 1410.16 1763.22C1409.95 1762.6 1409.78 1761.93 1409.78 1761.28C1409.62 1715.66 1409.48 1670.04 1409.32 1624.42C1409.32 1624.12 1409.08 1623.81 1408.67 1622.85C1406.59 1621.79 1404.03 1620.49 1401.28 1619.09C1407.16 1616.22 1442.44 1615.58 1456.09 1618.22C1454.16 1619.49 1453.08 1620.27 1451.93 1620.94C1450.53 1621.75 1449.07 1622.46 1447.45 1623.32C1447.45 1653.45 1447.45 1683.34 1447.45 1713.99C1455.68 1713.99 1463.76 1713.99 1472.93 1713.99C1472.93 1705.01 1472.93 1696.11 1472.93 1687.21C1472.93 1681.22 1472.77 1675.21 1472.98 1669.23C1473.21 1662.68 1473.37 1656.32 1465.03 1653.57C1471.93 1650.3 1505.09 1649.9 1515.27 1652.81C1506.75 1657.47 1507.26 1665.03 1507.36 1672.65C1507.55 1686.24 1507.41 1699.84 1507.41 1714.08C1517.31 1714.08 1526.44 1714.08 1536.77 1714.08C1536.77 1694.47 1536.77 1674.92 1536.77 1654.38Z"
    fill="#FCFAFA" />
  <path
    d="M1420.5 650.105C1414.99 647.35 1415.03 653.605 1411.95 654.076C1409.19 648.278 1408.36 596.708 1411 581.384C1416.2 588.279 1421.79 585.155 1427.48 583.1C1470.63 567.518 1513.83 552.082 1556.94 536.367C1562.69 534.27 1567.96 530.866 1573.43 528.082C1575.64 533.168 1576.14 570.876 1573.58 582.249C1571.47 580.367 1569.64 578.741 1567.53 576.865C1558.47 579.996 1549.38 583.135 1539.86 586.426C1539.86 608.154 1539.86 629.656 1539.86 652.301C1547.83 654.862 1556.17 658.01 1564.78 660.037C1567.49 660.675 1570.91 658.304 1574.52 657.146C1574.52 673.029 1574.52 689.059 1574.52 705.517C1555.24 692.33 1532.78 688.743 1511.98 681.052C1482.05 669.993 1451.56 660.491 1420.5 650.105ZM1511.08 644.113C1511.91 643.311 1513.46 642.516 1513.47 641.706C1513.62 626.163 1513.58 610.618 1513.58 594.939C1499.19 597.664 1447.7 617.244 1443.33 621.627C1465.44 629.023 1487.43 636.378 1511.08 644.113Z"
    fill="#FCF9F9" />
  <path
    d="M906.6 1870.94C914.433 1872.46 917.821 1868.56 919.68 1860.98C924.28 1868.19 922.164 1874.46 922.485 1880.32C922.851 1886.96 922.782 1893.65 922.503 1900.3C922.25 1906.34 923.824 1912.62 920.636 1919.66C919.167 1917.44 917.911 1916.29 917.586 1914.92C916.739 1911.34 914.507 1910.04 911.103 1910.05C894.515 1910.06 877.926 1910.05 860.2 1910.05C860.2 1914.42 860.2 1917.97 860.2 1921.53C860.198 1952.85 860.191 1984.17 860.194 2015.49C860.195 2028.83 860.204 2028.83 868.47 2035.93C861.595 2038.36 814.964 2038.6 804.504 2035.88C807.815 2033.78 810.304 2032.2 813.216 2030.36C813.216 1990.75 813.216 1950.91 813.216 1910.02C802.223 1910.02 791.653 1910.02 781.083 1910.02C778.084 1910.02 775.086 1910.02 772.087 1910.02C760.125 1910.03 760.125 1910.03 753.612 1918.29C750.984 1911.57 750.763 1871.58 753.662 1861.74C755.66 1865.01 757.223 1867.56 759.289 1870.94C807.798 1870.94 856.731 1870.94 906.6 1870.94Z"
    fill="#FAF7F7" />
  <path
    d="M667.498 1898.63C672.028 1891.68 676.152 1885.32 680.625 1878.42C677.586 1876.44 675.529 1875.11 673.598 1873.85C673.948 1872.82 674.148 1871.7 674.352 1871.7C693.165 1871.62 711.978 1871.63 732.447 1871.63C728.776 1876.05 725.722 1879.21 723.248 1882.78C705.212 1908.78 687.354 1934.91 669.273 1960.89C666.462 1964.93 665.261 1968.98 665.34 1973.88C665.575 1988.54 665.423 2003.21 665.424 2017.87C665.424 2029.42 665.425 2029.42 673.419 2035.67C666.908 2038.48 619.263 2038.73 608.351 2035.01C610.981 2034.03 612.171 2033.36 613.437 2033.15C618.682 2032.27 619.192 2028.67 619.156 2024.27C619.028 2008.6 619.265 1992.94 618.97 1977.28C618.912 1974.19 617.737 1970.71 616.008 1968.13C596.723 1939.35 577.251 1910.7 557.757 1882.06C555.586 1878.87 552.968 1875.98 550.427 1872.79C559.23 1870.03 610.692 1870.24 618.182 1873.19C615.651 1874.78 613.537 1876.11 610.146 1878.24C619.796 1896.57 632.537 1913.09 644.403 1931.76C652.335 1920.39 659.714 1909.81 667.498 1898.63Z"
    fill="#FBF9F9" />
  <path
    d="M1409.71 1146.69C1409.71 1142.11 1409.71 1138.49 1409.71 1134.9C1406.53 1133.29 1404.02 1132.02 1401.12 1130.55C1407.41 1127.75 1440.44 1126.96 1456.3 1128.97C1456.3 1129.6 1456.44 1130.75 1456.28 1130.79C1449.7 1132.57 1448.12 1136.91 1448.4 1143.41C1448.92 1156.03 1448.59 1168.7 1448.64 1181.35C1448.64 1181.98 1448.92 1182.61 1449.21 1183.85C1451.22 1184.07 1453.44 1184.53 1455.65 1184.54C1490.27 1184.58 1524.89 1184.39 1559.51 1184.7C1565.91 1184.76 1570.44 1183.46 1572.24 1176.35C1575.73 1182.57 1576.32 1223.73 1573.08 1235.47C1569.74 1224.54 1561.58 1226.74 1554.35 1226.72C1522.73 1226.67 1491.1 1226.7 1459.48 1226.7C1456.22 1226.7 1452.97 1226.7 1448.51 1226.7C1448.51 1233.78 1448.51 1240 1448.51 1246.22C1448.51 1253.21 1448.65 1260.21 1448.47 1267.19C1448.32 1273.36 1448.01 1279.42 1457.39 1280.11C1450.92 1283.42 1417.12 1284.25 1400.15 1281.77C1403.72 1279.74 1406.03 1278.42 1409.71 1276.32C1409.71 1234.03 1409.71 1190.84 1409.71 1146.69Z"
    fill="#FBF9F9" />
  <path
    d="M1511.1 1324.08C1526.75 1324.08 1541.42 1323.85 1556.07 1324.18C1563.16 1324.34 1569.83 1324.63 1572.87 1315.53C1575.61 1323.69 1575.95 1363.36 1573.76 1373.48C1571.01 1371.04 1568.69 1367.72 1565.57 1366.55C1562.35 1365.34 1558.34 1366.19 1554.68 1366.19C1512.71 1366.18 1470.73 1366.27 1428.76 1366.1C1421.73 1366.07 1414.92 1365.45 1412.06 1374.67C1409.18 1367.16 1408.75 1327.87 1410.99 1316.97C1411.62 1316.97 1412.73 1316.8 1412.79 1316.99C1415.01 1323.63 1420.03 1324.24 1426.15 1324.18C1454.13 1323.94 1482.12 1324.08 1511.1 1324.08Z"
    fill="#FCFAF9" />
  <path
    d="M1240.37 1726.78C1241.21 1727.32 1241.58 1728.43 1242.44 1729.86C1241.85 1733.87 1240.76 1737.55 1239.68 1741.24C1238.94 1741.06 1238.21 1740.88 1237.47 1740.71C1238.28 1736.25 1239.09 1731.8 1240.37 1726.78Z"
    fill="#A76852" />
  <path
    d="M602.018 816.477C601.378 812.638 601.305 808.729 601.353 804.821C601.363 803.962 601.802 803.108 602.329 801.238C606.051 805.753 604.777 810.438 605.18 815.527C604.269 816.378 603.449 816.392 602.018 816.477Z"
    fill="#AD6D59" />
  <path
    d="M1301.24 1997.05C1283.11 2002.95 1266.31 2002.03 1250.68 1992.06C1227.42 1977.25 1223.57 1943.16 1242.7 1923.25C1262.25 1902.89 1299.83 1903.15 1319.39 1923.5C1338.42 1943.29 1335.74 1984.11 1301.24 1997.05Z"
    fill="#811C1F" />
  <path
    d="M1479.3 802.701C1479.3 817.54 1479.3 831.426 1479.3 845.843C1467.62 845.843 1456.86 845.843 1445.44 845.843C1445.44 828.226 1444.91 811.016 1445.63 793.857C1446.06 783.694 1453.28 778.027 1462.81 778.22C1472.3 778.412 1478.17 784.305 1479.16 794.771C1479.38 797.081 1479.26 799.422 1479.3 802.701Z"
    fill="#811E21" />
  <path
    d="M1463.87 1458.74C1479.82 1450.31 1495.86 1450.02 1511.97 1454.73C1527.77 1459.34 1536.34 1470.3 1537.26 1486.81C1537.93 1498.74 1537.58 1510.73 1537.64 1522.7C1537.65 1524.29 1537.41 1525.89 1537.24 1527.99C1507.39 1527.99 1477.95 1527.99 1447.1 1527.99C1447.1 1523.79 1447.09 1519.61 1447.1 1515.43C1447.11 1506.79 1446.86 1498.13 1447.22 1489.5C1447.75 1476.94 1451.89 1466.08 1463.87 1458.74Z"
    fill="#811C1F" />
  <path
    d="M1527.12 988.428C1539.74 1004.63 1541.86 1021.71 1533.99 1039.71C1525.46 1059.24 1504.04 1068.85 1481.21 1064.05C1461.65 1059.93 1447.57 1043.07 1446.75 1022.78C1445.89 1001.77 1454.87 985.976 1472.18 978.041C1490.44 969.667 1510.95 973.365 1527.12 988.428Z"
    fill="#811C1F" />
  <path
    d="M1510.25 643.921C1487.43 636.376 1465.44 629.022 1443.33 621.626C1447.7 617.243 1499.19 597.663 1513.58 594.938C1513.58 610.617 1513.62 626.162 1513.47 641.705C1513.46 642.514 1511.91 643.31 1510.25 643.921Z"
    fill="#811F22" />
</svg>
