<svg width="456" height="459" viewBox="0 0 456 459" fill="none" xmlns="http://www.w3.org/2000/svg">
  <path
    d="M406.199 457.655C292.542 457.852 179.386 458.042 66.2303 458.259C55.8993 458.278 45.5686 458.452 35.238 458.578C23.8296 458.717 13.8052 455.723 6.79079 445.985C2.72902 440.346 1.52245 433.92 1.51113 427.091C1.39635 357.764 1.30767 288.438 1.05346 219.112C0.846302 162.621 0.412586 106.13 0.112324 49.6383C0.0787239 43.3177 -0.263531 36.9368 0.442249 30.6861C2.45015 12.9034 13.4202 2.518 31.2332 0.958609C34.5494 0.668295 37.8871 0.493796 41.2152 0.489187C167.537 0.314108 293.858 0.170828 420.179 8.21577e-05C428.499 -0.0111478 436.469 1.12426 443.372 6.25176C452.468 13.0087 454.739 22.8159 454.779 33.2654C455.015 95.0923 455.049 156.92 455.228 218.747C455.424 286.406 455.736 354.064 455.881 421.722C455.891 426.507 455.617 431.487 454.311 436.043C450.422 449.6 440.38 456.815 425.19 457.493C419.036 457.767 412.863 457.614 406.199 457.655ZM439.045 439.843C443.268 435.552 443.758 430.099 443.745 424.524C443.705 407.529 443.602 390.534 443.567 373.539C443.362 275.226 443.183 176.913 442.963 78.6004C442.927 62.7715 443.012 46.9343 442.524 31.117C442.119 18.0199 435.634 12.1582 422.621 12.0192C422.121 12.0138 421.621 12.0132 421.121 12.0137C385.128 12.0459 349.136 12.0475 313.143 12.1227C292.155 12.1665 271.166 12.328 249.26 12.2554C242.283 12.2616 235.306 12.2309 228.329 12.2816C212.56 12.3961 196.791 12.5508 180.139 12.456C141.27 12.534 102.401 12.5941 63.5324 12.7028C54.0744 12.7293 44.6169 12.916 34.3081 12.8819C19.1252 13.9366 12.3963 20.9519 12.093 36.05C12.0696 37.2158 12.0781 38.3825 12.0824 39.5487C12.534 165.003 12.9789 290.457 13.4654 415.911C13.4867 421.398 13.4601 426.943 14.2146 432.355C15.3645 440.604 21.1884 445.577 29.5397 446.166C32.1935 446.353 34.8681 446.275 37.5331 446.27C123.003 446.12 208.473 445.996 293.942 445.796C337.092 445.695 380.242 445.459 423.392 445.27C428.967 445.246 434.398 444.713 439.045 439.843Z"
    fill="#110705" />
  <path
    d="M249.778 13.9125C269.68 13.9057 289.111 13.9967 308.542 14.004C344.679 14.0174 380.818 13.8372 416.953 14.1154C422.697 14.1596 428.681 15.4887 434.084 17.4918C438.493 19.1264 440.265 23.6604 440.31 28.5618C440.599 59.847 441.13 91.1315 441.203 122.417C441.364 191.527 441.216 260.639 441.367 329.749C441.435 360.504 441.955 391.258 442.188 422.013C442.235 428.194 441.708 434.319 437.213 439.634C435.968 440.284 434.836 440.604 433.245 441.172C432.603 441.562 432.477 441.744 432.409 441.965C430.14 442.348 427.875 443.032 425.602 443.061C414.937 443.195 404.271 443.139 393.604 443.168C275.632 443.482 157.66 443.768 39.6882 444.211C33.8854 444.232 28.3683 444.905 22.9364 441.735C15.9373 437.649 15.6792 430.706 15.4137 424.328C14.9719 413.716 15.9382 403.054 15.9877 392.411C16.0193 385.606 15.2297 378.798 15.2168 371.99C15.1196 320.826 15.235 269.661 15.0674 218.497C14.8727 159.022 14.4341 99.5475 14.1899 40.0724C14.1729 35.9415 14.6637 31.771 15.3188 27.6831C16.402 20.9244 24.8334 15.029 33.3897 15.015C89.7203 14.9227 146.051 15.0122 202.382 14.887C218.024 14.8522 233.666 14.2918 249.778 13.9125ZM376.664 280.449C376.664 280.449 376.776 280.45 377.512 280.712C378.743 280.342 380.19 280.271 381.17 279.557C392.03 271.651 398.529 261.008 400.029 247.656C400.636 242.247 400.104 236.716 400.205 231.243C400.456 217.609 401.037 203.974 400.998 190.341C400.945 172.044 400.819 153.73 399.979 135.457C399.457 124.087 397.654 112.767 396.211 101.452C395.824 98.4147 394.299 95.521 393.924 92.4839C393.425 88.434 391.685 86.7619 387.449 87.7403C387.449 87.7403 387.454 87.5286 387.742 86.7751C386.995 85.3869 386.366 83.9179 385.476 82.6294C384.142 80.7002 382.626 78.8978 381.299 76.965C381.299 76.965 381.207 77.0614 380.457 77.0682C379.242 76.5806 377.919 76.2636 376.827 75.5786C367.579 69.7758 357.297 67.22 346.608 67.1928C281.833 67.0281 217.057 67.115 152.282 67.1256C125.473 67.1299 98.6567 66.8137 71.8569 67.3282C60.4334 67.5476 54.9275 70.962 55.1409 83.6977C55.3694 97.3316 54.7431 110.979 54.8956 124.616C54.9254 127.281 56.8122 129.926 57.877 132.626C57.877 132.626 57.8796 132.684 57.4811 133.346C57.4088 133.592 57.3365 133.839 57.3824 134.773C60.9041 136.519 64.3159 139.428 67.9701 139.774C76.0544 140.538 84.2607 139.974 92.4169 140.025C104.187 140.099 105.031 138.79 105.107 152.936C105.384 204.87 105.263 256.805 105.287 308.74C105.29 316.498 104.73 317.06 97.1501 317.079C87.3293 317.103 77.5029 316.949 67.6907 317.251C64.2976 317.356 59.9549 317.083 59.4077 322.25C59.4077 322.25 59.6207 322.381 58.8622 322.501C57.997 324.164 56.3972 325.819 56.3799 327.49C56.2018 344.642 56.1321 361.798 56.3535 378.948C56.4549 386.807 61.6961 391.37 69.5409 391.264C100.152 390.85 130.762 390.289 161.375 390.091C175.648 389.998 189.926 390.845 204.201 390.836C219.332 390.826 234.462 390.227 249.594 390.034C260.417 389.897 271.244 390.016 282.069 390.003C296.372 389.985 298.988 387.298 299.127 373.177C299.28 357.546 299.617 341.917 299.907 326.287C300.032 319.501 297.951 316.031 291.65 315.88C276.212 315.509 260.756 315.884 245.117 315.049C245.16 309.672 245.204 304.294 245.676 298.276C245.815 297.128 246.162 295.961 246.057 294.836C245.706 291.09 247.419 289.937 251.016 289.9C267.82 289.723 284.62 289.24 301.424 289.071C318.081 288.903 334.76 289.437 351.391 288.74C358.871 288.426 366.29 286.002 373.652 284.19C374.864 283.892 375.635 281.806 376.664 280.449Z"
    fill="#FEF202" />
  <path
    d="M119.252 293.048C119.127 243.398 119.015 194.247 118.868 145.096C118.829 132.267 113.143 126.435 100.345 126.204C92.5174 126.062 84.6843 126.166 76.8543 126.233C70.0255 126.292 69.3259 125.668 69.2982 119.042C69.2579 109.379 69.2321 99.7167 69.1576 90.0544C69.0973 82.2174 69.4257 81.7767 77.1537 81.7452C103.478 81.6379 129.803 81.5913 156.128 81.5085C216.274 81.3195 276.42 81.0553 336.565 81.0205C343.515 81.0165 350.673 81.4369 357.375 83.1026C375.166 87.5237 384.247 99.2125 385.194 118.047C385.847 131.02 386.296 144.013 386.413 157.001C386.652 183.657 386.625 210.316 386.67 236.974C386.687 247.086 384.552 256.438 377.279 264.094C370.846 270.868 362.927 274.458 353.76 274.59C320.109 275.076 286.455 275.282 252.802 275.614C249.305 275.649 245.804 275.729 242.315 275.956C234.942 276.436 231.832 279.16 231.585 286.398C231.261 295.883 231.205 305.402 231.634 314.88C232.057 324.21 237.751 329.223 247.859 329.477C257.845 329.728 267.844 329.572 277.836 329.467C284.055 329.402 285.117 330.304 285.125 336.591C285.138 347.084 285.099 357.577 285.107 368.071C285.114 375.684 284.823 376.048 277.317 376.067C245.494 376.15 213.671 376.189 181.848 376.269C147.026 376.357 112.205 376.482 77.3834 376.57C70.3194 376.588 70.0562 376.314 70.029 369.304C69.9869 358.474 70.1364 347.641 69.8954 336.816C69.7977 332.426 71.5564 330.85 75.7445 330.875C85.4068 330.932 95.073 330.915 104.733 330.702C115.442 330.464 119.081 326.715 119.216 316.04C119.31 308.544 119.245 301.046 119.252 293.048ZM231.163 156.548C231.188 177.526 231.21 198.504 231.246 219.482C231.248 220.979 230.962 222.65 231.525 223.923C232.085 225.187 233.55 226.952 234.615 226.95C244.417 226.934 254.268 227.098 264.002 226.151C270.825 225.487 274.116 221.367 274.177 214.651C274.409 189.357 274.528 164.059 274.327 138.766C274.258 129.984 270.241 126.32 261.632 126.088C253.313 125.863 244.984 126.054 236.662 125.909C232.637 125.839 230.969 127.54 231.052 131.576C231.217 139.564 231.141 147.557 231.163 156.548Z"
    fill="#EA1C25" />
  <path
    d="M259.715 140.087C260.174 159.252 260.212 178.394 260.246 197.536C260.253 201.337 260.138 205.143 260.282 208.939C260.41 212.349 258.66 213.244 255.642 213.097C252.819 212.959 249.984 213.052 246.693 213.03C245.876 190.946 245.489 168.875 245.185 146.803C245.078 139.077 246.584 137.93 254.388 139.292C256.017 139.576 257.656 139.808 259.715 140.087Z"
    fill="#F4E742" />
</svg>
