<svg width="493" height="536" viewBox="0 0 493 536" fill="none" xmlns="http://www.w3.org/2000/svg">
  <path
    d="M375.347 156.966C388.811 153.661 402.137 153.214 415.062 157.363C425.209 160.62 434.106 166.858 443.44 171.973C455.271 178.455 466.585 185.914 478.592 192.028C487.978 196.807 488.418 207.41 478.515 213.136C469.76 218.199 460.23 220.869 450.214 222.333C434.597 224.617 436.928 221.726 436.91 237.291C436.905 241.439 437.556 245.585 437.801 249.738C437.94 252.113 439.345 253.399 441.347 254.071C463.675 261.566 472.188 279.7 476.489 300.597C478.693 311.307 480.24 322.299 477.872 333.295C474.41 349.375 465.666 361.435 450.72 368.799C446.895 370.683 442.808 371.579 438.722 371.969C434.039 372.417 432.891 375.067 432.876 378.989C432.847 386.656 432.745 394.324 432.873 401.988C432.968 407.672 432.317 413.287 431.875 418.928C431.59 422.574 429.127 424.471 426.495 426.283C408.102 438.938 389.737 451.634 371.285 464.203C338.242 486.711 305.489 509.646 272.022 531.529C269.412 533.236 266.64 534.109 263.577 534.187C252.591 534.468 241.583 534.091 230.627 535.296C227.661 535.623 225.102 534.608 222.67 532.946C174.395 499.943 126.104 466.961 77.8108 433.984C73.8255 431.262 69.8032 428.595 65.7922 425.911C62.4471 423.673 61.179 420.504 61.1041 416.539C60.8748 404.384 60.4494 392.234 60.1776 380.08C60.0793 375.683 59.1169 372.616 53.8178 371.727C32.0473 368.075 19.154 353.823 15.7183 333.336C11.4863 308.101 16.1154 283.932 34.5898 264.254C38.552 260.034 43.448 257.232 48.9786 255.568C53.3155 254.263 55.5299 251.799 55.3704 246.876C55.1933 241.409 55.6835 235.895 56.2414 230.438C56.7531 225.433 54.5358 223.695 49.8114 223.258C40.6833 222.413 31.7191 220.589 23.1114 217.278C18.8784 215.65 14.9019 213.569 11.4375 210.632C5.16237 205.311 5.43976 197.858 12.5217 193.61C25.521 185.813 38.7539 178.405 51.9092 170.87C56.3889 168.304 61.0119 165.98 65.4243 163.305C80.1885 154.357 96.0844 153.032 112.651 156.088C114.448 156.42 116.18 157.021 118.057 156.413C118.702 154.316 116.936 153.4 115.941 152.262C102.777 137.205 90.0327 121.803 77.4065 106.292C72.2041 99.9012 66.863 93.2167 57.2541 93.0493C52.6318 92.9688 50.1731 94.3255 49.6479 99.331C48.6712 108.638 48.2069 117.854 49.6324 127.18C51.0591 136.515 48.3203 138.839 38.7673 137.424C35.3469 136.917 32.0855 135.85 29.8893 133.288C18.9117 120.48 8.13205 107.408 3.781 90.6419C0.645482 78.5596 -1.89795 66.2712 1.91732 53.7484C9.51882 28.7981 28.5775 14.5194 55.5387 13.8094C78.3617 13.2085 99.1795 19.9927 118.639 31.4678C138.238 43.0247 155.737 57.4304 173.211 71.8636C175.54 73.7873 177.71 75.8314 181.199 73.9828C184.118 72.436 185.288 70.878 184.082 67.3149C181.146 58.6424 184.256 52.3408 192.731 49.1161C195.046 48.235 196.17 47.1517 196.309 44.5036C196.922 32.862 204.266 26.4232 216.132 27.296C227.556 28.1362 225.904 28.3426 227.532 18.2648C228.681 11.1495 230.723 5.26354 237.981 1.98509C245.934 -1.60652 252.872 -0.101896 259.539 4.70841C262.063 6.52994 263.67 8.99493 264.064 12.1849C264.246 13.6626 264.652 15.1115 264.922 16.5799C266.855 27.0863 266.853 26.9919 277.479 27.0884C289.066 27.1937 297.755 33.4692 296.873 44.8654C296.75 46.4612 297.302 47.6601 298.881 48.5151C311.665 55.44 312.649 57.8634 308.287 71.0911C314.521 76.4634 314.636 76.4507 320.627 71.4298C334.813 59.5407 349.415 48.1687 364.756 37.8258C382.17 26.0857 400.831 16.9314 421.999 14.4239C435.866 12.7815 449.755 13.3128 462.648 19.416C480.723 27.9722 490.627 43.1503 492.577 62.4447C494.668 83.1261 487.768 101.808 475.068 118.276C472.219 121.97 469.243 125.591 466.696 129.488C462.966 135.197 457.53 137.459 451.104 138.029C446.03 138.48 443.481 136.416 443.385 131.251C443.327 128.131 443.879 124.959 444.485 121.875C446.064 113.833 444.523 105.981 443.336 98.094C442.789 94.4584 440.483 93.1878 437.024 93.0599C429.445 92.7796 424.029 96.6825 419.46 102.068C410.406 112.739 401.483 123.519 392.497 134.247C387.361 140.378 382.149 146.446 377.116 152.66C376.154 153.848 374.031 154.742 375.347 156.966ZM350.511 209.48C357.513 204.105 364.517 198.733 371.517 193.355C373.401 191.907 375.426 190.784 377.871 190.734C394.848 190.382 411.825 190.052 428.802 189.696C432.019 189.629 433.877 191.118 434.118 194.332C434.418 198.313 434.746 202.304 434.749 206.291C434.751 209.507 436.024 210.815 439.235 210.664C448.404 210.235 457.47 209.186 466.224 206.308C468.015 205.719 470.145 205.262 470.926 203.07C470.781 201.898 470.028 201.198 469.176 200.705C453.181 191.462 438.246 180.357 421.301 172.808C411.22 168.317 400.678 165.418 389.354 166.325C376.849 167.327 364.711 168.899 356.403 179.959C355.743 180.838 354.874 181.788 353.489 181.391C352.212 180.719 352.352 179.475 352.152 178.344C349.656 164.174 349.632 149.739 344.552 135.814C334.885 109.314 318.509 90.572 290.592 83.108C284.007 81.3474 277.542 79.1211 271.074 76.954C269.538 76.4392 267.314 76.4531 267.025 73.6665C270.763 72.1084 274.806 72.4187 278.642 71.7281C284.533 70.6677 290.469 69.8197 296.142 67.854C298.681 66.9746 300.468 65.1817 300.169 62.2321C299.847 59.0456 297.296 58.3692 294.744 58.105C291.748 57.7949 288.8 58.3666 285.837 58.9223C280.706 59.8849 275.62 61.5556 270.175 60.9613C269.738 57.8431 271.749 56.7211 273.384 55.3943C276.875 52.562 280.624 49.9982 283.826 46.8725C287.742 43.0493 286.157 37.9972 280.843 36.6424C278.388 36.0166 275.917 36.2801 273.471 37.1115C269.78 38.3668 266.743 40.7003 263.501 42.7313C260.663 44.5095 258.272 47.2641 254.448 47.5647C253.688 44.2985 254.28 41.3804 254.69 38.4266C255.696 31.1792 256.802 23.9317 255.106 16.611C253.921 11.4944 251.335 9.14018 246.678 8.99892C241.636 8.84602 239.76 11.8626 238.695 16.2129C236.574 24.8713 238.044 33.4151 239.156 41.9811C239.371 43.6339 240.112 45.4309 238.514 46.6151C236.601 48.0317 235.087 46.3717 233.601 45.4264C229.951 43.1049 226.416 40.5946 222.701 38.3858C219.778 36.6481 216.513 35.8559 213.089 36.5291C210.34 37.0694 208.028 38.3805 207.132 41.2407C206.294 43.915 207.963 45.7505 209.739 47.2806C212.892 49.9967 216.294 52.4255 219.416 55.1746C221.041 56.6056 223.463 57.7046 223.102 60.5899C220.917 61.7638 218.835 61.1229 216.712 60.7216C211.325 59.703 205.962 58.5146 200.455 58.2629C197.311 58.1192 194.004 58.2249 193.129 61.8714C192.23 65.6173 195.468 67.1913 198.178 68.3161C203.43 70.4957 208.977 71.5255 214.705 71.7251C218.665 71.8631 222.685 72.1535 226.458 73.804C225.436 76.4049 223.598 76.5904 222.094 77.0843C212.925 80.0955 203.704 82.9508 194.535 85.9651C180.246 90.6627 169.018 99.5495 160.872 112.019C148.584 130.83 142.207 151.599 141.651 174.122C141.584 176.828 141.561 179.664 139.894 182.027C137.167 181.326 136.1 179.314 134.745 177.7C131.783 174.17 128.292 171.074 123.889 169.996C109.747 166.534 95.5437 164.218 81.1829 169.419C61.0957 176.695 43.7236 188.87 25.6884 199.842C21.7615 202.231 22.1075 204.248 26.4074 205.937C34.4038 209.077 42.8781 209.919 51.3368 210.565C58.0049 211.074 58.2017 210.673 58.4715 203.823C58.5697 201.331 58.8913 198.848 59.0971 196.36C59.5877 190.428 60.3516 189.587 66.4966 189.689C81.6431 189.942 96.7647 191.143 111.933 190.768C116.013 190.668 119.732 192.239 123.018 194.745C133.081 202.423 143.354 209.838 153.201 217.783C182.006 241.024 213.169 261.057 242.41 283.695C245.35 285.971 248.011 285.994 250.917 283.516C254.463 280.493 258.109 277.556 261.918 274.874C291.74 253.87 321.499 232.781 350.511 209.48ZM257.891 292.922C255.36 294.821 252.874 296.785 250.284 298.601C247.677 300.428 245.11 300.382 242.469 298.38C238.358 295.263 234.056 292.397 229.931 289.298C192.639 261.278 154.988 233.734 118.222 205.017C116.117 203.373 113.946 201.671 111.182 201.45C101.895 200.708 92.6005 200.053 83.3025 199.463C81.7553 199.364 79.9547 199.082 78.6842 201.111C84.2288 205.624 89.5186 210.44 95.3108 214.548C112.712 226.889 129.322 240.284 146.591 252.789C169.925 269.685 191.528 288.816 215.042 305.474C219.158 308.39 223.472 309.797 228.549 309.718C239.878 309.542 251.217 309.487 262.542 309.79C269.432 309.975 275.167 307.863 280.474 303.597C291.244 294.939 302.051 286.316 313.089 278.005C341.435 256.66 369.931 235.514 398.328 214.236C404.227 209.816 409.956 205.17 416.085 200.375C409.055 200.375 402.855 199.868 396.775 200.501C388.843 201.327 380.631 200.247 373.443 205.915C335.763 235.625 297.127 264.077 257.891 292.922ZM239.112 472.727C241.742 472.372 244.366 471.97 247.002 471.671C267.512 469.346 280.811 453.771 284.903 435.125C287.32 424.115 287.938 412.861 286.295 401.468C283.015 378.729 269.061 361.424 245.792 357.734C237.306 356.388 228.536 356.504 219.898 356.538C212.291 356.568 209.17 360.063 208.9 367.781C208.742 372.27 208.853 376.768 208.853 381.262C208.853 408.06 208.843 434.858 208.868 461.655C208.874 468.243 211.135 472.291 215.89 472.641C223.312 473.187 230.789 473.84 239.112 472.727ZM363.64 414.784C369.452 414.427 374.626 412.187 379.468 409.173C386.411 404.85 390.069 394.962 387.923 386.795C385.734 378.46 378.008 371.865 369.829 371.166C361.665 370.467 353.519 371.518 345.37 371.278C338.088 371.064 333.281 365.204 333.283 356.911C333.285 347.339 337.518 341.9 345.395 341.722C351.047 341.594 356.703 341.683 362.348 342.354C374.378 343.784 385.464 336.467 387.979 325.603C390.581 314.364 384.452 304.579 372.429 300.146C363.084 296.702 354.097 297.885 344.605 300.058C330.419 303.304 320.455 311.211 313.453 323.566C304.768 338.892 304.522 355.439 307.392 372.006C312.144 399.425 334.432 415.266 363.64 414.784ZM173.627 363.715C187.148 357.819 191.946 350.272 191.365 335.824C191.285 333.827 191.259 331.829 191.152 329.834C190.179 311.692 178.255 300.424 160.177 299.063C147.316 298.095 134.58 299.073 121.788 299.35C111.08 299.582 106.525 304.069 106.689 314.62C107.1 341.074 106.388 367.538 107.721 393.987C108.2 403.5 112.951 410.135 122.136 412.399C132.287 414.902 142.204 407.757 140.954 398.453C140.037 391.629 140.256 384.834 140.21 378.023C140.148 368.811 142.091 366.883 151.231 366.705C158.551 366.562 165.855 366.322 173.627 363.715ZM395.443 53.5802C393.781 51.9503 392.189 50.2411 390.444 48.7053C385.1 44.0004 379.349 43.5705 373.132 47.1C366.882 50.6484 361.173 54.933 355.739 59.5908C354.471 60.6784 352.495 61.4773 352.811 63.9946C358.433 65.5507 363.488 68.3989 368.571 71.1823C372.459 73.312 376.177 76.0252 377.266 80.3861C380.224 92.2357 384.964 103.787 383.959 116.399C383.826 118.072 383.174 120.108 386.021 121.744C391.035 115.277 398.305 110.637 401.274 102.241C404.469 93.204 403.994 84.0668 403.357 74.7032C402.829 66.9268 401.186 59.9755 395.443 53.5802ZM108.88 120.67C108.32 107.885 111.026 95.6607 114.802 83.5344C116.778 77.1854 120.5 72.7637 126.377 69.9926C131.003 67.811 135.667 65.7083 140.644 63.4188C139.78 62.2955 139.254 61.1961 138.389 60.5532C132.119 55.8953 125.799 51.3054 119.459 46.7427C114.856 43.4293 110.111 43.7156 105.447 46.5642C97.3066 51.5355 92.6511 58.9081 90.8436 68.184C89.2718 76.2503 89.7575 84.3977 89.8769 92.5298C90.0682 105.551 99.2763 113.19 107.279 121.53C107.437 121.694 108.135 121.342 108.88 120.67ZM86.1692 30.8309C80.2928 28.7005 74.1937 28.2522 67.9995 28.2286C59.8905 28.1976 58.0025 29.4219 55.0421 37.0329C54.0594 39.5593 53.5984 42.1519 53.634 44.8361C53.7937 56.9041 56.5784 68.2735 63.3159 78.391C66.9961 83.9175 72.91 86.5564 79.6403 90.1824C78.32 68.2385 79.6509 48.3579 102.368 37.7777C97.0975 34.9354 92.0395 32.9468 86.1692 30.8309ZM409.103 55.0185C415.566 65.6523 412.961 77.788 414.21 90.3598C419.89 85.9801 426.082 84.1028 429.498 78.6784C436.686 67.2612 440.214 54.7146 439.058 41.2343C438.26 31.9314 433.642 28.3711 424.337 28.3085C420.329 28.2815 416.343 28.4246 412.456 29.3679C405.123 31.1477 398.166 33.8789 390.273 37.9877C399.37 41.5979 405.228 46.7662 409.103 55.0185ZM120.929 130.961C122.352 135.686 125.102 139.495 128.765 142.833C130.51 141.136 130.702 139.09 131.361 137.251C134.208 129.302 136.23 121.1 140.36 113.561C145.669 103.871 151.372 94.6152 159.741 87.2221C161.029 86.0848 162.633 84.903 161.496 82.5926C157.364 74.1899 149.456 70.9689 140.715 73.9942C131.211 77.2835 124.369 82.3457 122.964 93.4852C121.422 105.706 116.082 117.605 120.929 130.961ZM352.989 74.0435C343.952 70.2299 343.673 70.2929 337.153 77.2762C336.246 78.2476 335.378 79.3219 334.29 80.0459C330.134 82.8121 331.046 85.1114 334.256 88.2003C349.022 102.412 358.311 119.761 362.898 139.68C363.166 140.847 363.422 141.969 365.447 142.212C368.942 137.835 371.596 132.761 373.099 127.091C375.951 116.325 371.896 106.102 370.73 95.625C369.505 84.6259 364.306 77.4864 352.989 74.0435ZM51.0393 289.099C42.2363 291.692 38.8212 297.738 40.7697 306.498C42.7593 315.444 48.5846 321.339 55.6674 326.37C60.5629 329.848 65.4046 333.498 71.7461 333.799C79.6184 334.173 85.0144 328.067 82.8356 320.559C80.0232 310.869 75.6126 301.834 67.9119 294.995C63.4323 291.016 58.5224 287.333 51.0393 289.099ZM452.9 304.951C453.501 295.459 449.232 289.962 440.055 288.603C435.023 287.857 430.972 290.315 427.273 293.206C417.733 300.662 413.984 311.641 410.026 322.424C409.62 323.53 410.042 325.071 410.415 326.31C412.687 333.867 420.87 336.401 428.911 331.758C432.926 329.438 436.469 326.315 440.363 323.766C446.989 319.429 451.06 313.438 452.9 304.951ZM422.743 358.054C426.171 363.721 430.243 365.383 437.2 363.071C447.525 359.641 455.569 352.975 461.27 343.804C464.525 338.567 465.783 332.638 463.185 326.602C461.136 321.842 459.349 321.444 455.412 324.661C448.808 330.059 442.021 335.058 433.712 337.681C424.5 340.589 420.543 347.727 422.743 358.054ZM25.699 72.1939C27.7061 75.9327 30.695 78.8009 33.895 81.4927C35.8945 83.1747 37.7474 84.0808 39.7404 81.3911C41.4355 79.1034 44.0728 78.4083 46.7174 77.9109C52.8949 76.7489 53.1233 76.6277 50.5766 70.7224C46.1849 60.5391 43.0388 50.2265 44.0292 38.8848C44.29 35.8992 45.8768 32.8239 44.5478 29.7057C26.2833 32.9002 17.3926 52.2578 25.699 72.1939ZM69.289 345.813C68.052 343.3 67.2999 340.203 64.2331 339.354C53.8827 336.489 45.1591 330.893 37.1974 323.887C34.6264 321.624 32.4599 322.132 30.6705 325.074C28.1356 329.241 27.9819 333.76 29.5023 338.061C34.0645 350.969 44.7016 357.894 56.306 363.21C59.9529 364.88 65.1589 364.928 68.387 361.093C71.464 357.438 71.9674 352.977 70.2652 348.398C70.0336 347.776 69.8121 347.149 69.289 345.813ZM470.055 50.1008C467.184 38.5059 456.346 28.5226 448.142 30.1948C453.15 46.7391 447.167 61.7008 440.241 77.2428C446.322 77.6249 451.295 78.532 455.206 82.3326C456.244 83.3413 457.77 82.3852 458.866 81.6222C464.668 77.587 468.621 72.3319 470.231 65.2857C471.338 60.4386 470.332 55.7209 470.055 50.1008ZM16.0108 81.1041C19.5555 97.5068 24.1854 113.383 36.6248 125.694C38.7324 124.128 38.4168 122.644 38.0982 121.467C35.5936 112.217 35.3792 102.739 35.1996 93.2661C35.1443 90.3515 33.7748 88.6663 31.3385 87.4401C26.6368 85.0737 22.8995 81.5909 19.7346 77.4031C18.5311 75.8106 17.4679 73.9171 15.0067 72.9037C15.356 75.7153 15.6394 77.9965 16.0108 81.1041ZM457.787 107.288C456.887 113.151 455.987 119.013 454.973 125.624C466.364 118.321 478.371 89.2653 477.236 73.4286C473.564 77.3537 470.787 82.6018 466.068 84.7299C457.993 88.372 457.235 94.5346 457.826 101.848C457.946 103.334 457.823 104.84 457.787 107.288ZM40.8759 280.356C42.5213 279.116 44.356 278.564 46.4301 278.649C48.4122 278.731 50.3891 278.668 52.2399 277.752C54.7448 276.512 54.431 274.3 54.1397 272.167C53.9112 270.494 52.6479 270.26 51.1752 270.315C45.3714 270.533 38.0161 276.93 36.6212 283.061C38.3335 283.074 39.0907 281.573 40.8759 280.356ZM455.359 279.395C451.421 274.173 446.616 270.423 439.825 269.917C437.881 276.105 438.557 277.755 444.269 278.215C449.103 278.603 453.095 280.496 457.987 284.138C456.768 281.885 456.238 280.906 455.359 279.395Z"
    fill="black" />
  <path
    d="M172.473 152.394C176.286 133.423 186.866 120.732 205.467 116.546C219.93 113.292 233.33 116.238 243.279 128.602C244.194 129.739 245.046 131.06 246.964 131.389C247.446 130.935 248.227 130.492 248.581 129.824C256.979 113.977 280.561 113.036 293.147 118.499C310.721 126.126 319.425 140.333 320.599 158.735C321.677 175.654 321.498 192.741 316.181 209.184C310.142 227.86 296.252 236.304 276.716 233.563C275.26 233.359 273.749 233.536 271.559 233.536C273.154 236.525 274.584 239.201 276.01 241.879C277.994 245.604 277.632 248.636 274.101 251.496C266.855 257.365 259.899 263.588 252.744 269.572C248.122 273.438 244.034 273.378 239.254 269.418C232.327 263.678 225.456 257.871 218.612 252.034C214.015 248.113 213.777 246.332 216.638 240.805C217.917 238.333 219.929 236.227 220.686 232.703C212.25 234.756 204.498 234.086 196.643 230.852C186.128 226.522 179.434 219.191 175.98 208.625C170.604 192.182 170.16 175.326 171.948 158.298C172.139 156.477 172.241 154.648 172.473 152.394ZM208.2 192.706C208.91 186.734 210.253 180.902 212.803 175.449C217.906 164.539 229.697 162.971 237.422 172.032C238.444 173.23 238.931 174.991 241.381 175.716C241.37 165.56 242.664 155.557 240.546 145.832C237.746 132.975 224.934 124.034 212.816 125.478C198.284 127.21 185.101 139.715 182.876 154.244C180.28 171.195 181.177 188.071 185.247 204.696C188.571 218.276 199.49 225.788 213.459 224.632C215.701 224.447 218.013 224.219 219.76 221.999C211.111 214.305 208.517 204.408 208.2 192.706ZM305.622 209.57C311.07 193.807 310.174 177.444 310.156 161.174C310.138 146.068 301.075 133.008 286.995 127.591C272.748 122.109 258.664 127.958 252.903 142.098C248.596 152.67 252.717 163.629 251.946 174.773C253.186 174.411 253.486 173.611 253.936 172.906C261.659 160.803 275.539 165.83 279.818 176.272C286.836 193.393 284.916 208.834 272.331 222.689C282.626 228.736 300.634 223.527 305.622 209.57ZM257.768 230.201C253.857 224.736 251.024 218.483 245.871 212.927C238.785 222.597 233.036 232.086 227.89 242.484C240.359 243.515 252.387 244.6 265.399 242.334C262.564 237.813 260.367 234.309 257.768 230.201Z"
    fill="black" />
  <path
    d="M307.066 110.317C306.199 113.812 304.529 115.554 301.241 113.893C295.852 111.169 290.037 109.766 284.238 108.475C279.775 107.481 279.777 104.539 280.377 101.321C281.01 97.9221 280.718 93.6167 286.167 93.6575C293.787 93.7146 300.388 96.6131 306.412 100.936C309.96 103.481 308.361 106.815 307.066 110.317Z"
    fill="black" />
  <path
    d="M206.833 108.404C201.333 109.388 196.488 111.033 191.905 113.414C188.588 115.137 186.424 114.722 185.162 110.739C182.956 103.777 183.776 101.346 190.416 97.985C195.165 95.5807 200.044 93.7651 205.534 93.6007C210.952 93.4384 211.172 97.2681 211.658 100.831C212.136 104.326 212.604 108.136 206.833 108.404Z"
    fill="black" />
  <path
    d="M231.261 426.161C228.049 421.63 226.393 417.03 227.519 411.814C229.448 402.873 235.974 397.838 244.156 398.84C254.615 400.12 261.131 407.034 260.852 416.438C260.776 419.027 259.909 421.278 258.632 423.457C254.706 430.156 237.684 435.052 231.261 426.161Z"
    fill="black" />
  <path
    d="M133.241 328.339C136.316 316.349 142.905 315.566 150.776 316.588C159.618 317.736 165.856 323.038 166.797 332.389C167.677 341.142 163.529 346.416 154.625 348.104C145.481 349.837 137.127 345.595 134.863 338.036C133.957 335.013 132.907 332.006 133.241 328.339Z"
    fill="black" />
</svg>
