<svg width="642" height="532" viewBox="0 0 642 532" fill="none" xmlns="http://www.w3.org/2000/svg">
  <path
    d="M602.892 256.91C604.136 250.982 605.368 245.235 606.591 239.485C607.361 235.863 608.116 232.237 608.904 228.492C618.618 228.492 628.305 228.492 638.118 228.492C638.118 294.337 638.118 360.179 638.118 426.115C629.349 426.115 620.649 426.115 611.98 426.115C611.98 422.659 611.978 419.246 611.983 415.833C611.983 415.413 612.035 414.994 612.039 414.574C612.09 409.157 612.105 403.74 612.19 398.324C612.3 391.371 612.456 384.419 612.608 377.467C612.736 371.643 612.902 365.819 613.024 359.994C613.18 352.549 613.303 345.104 613.453 337.659C613.583 331.199 613.724 324.739 613.876 318.28C614.004 312.805 614.157 307.332 614.293 301.857C614.313 301.021 614.296 300.184 613.982 299.31C607.556 329.677 601.13 360.044 594.692 390.47C587.895 390.47 581.224 390.47 574.275 390.47C567.82 359.977 561.364 329.478 554.908 298.979C554.831 298.981 554.754 298.983 554.677 298.985C554.642 299.69 554.575 300.394 554.581 301.098C554.587 301.799 554.696 302.499 554.708 303.2C554.81 308.959 554.904 314.718 554.993 320.476C555.047 323.991 555.071 327.507 555.14 331.021C555.267 337.481 555.42 343.94 555.558 350.4C555.701 357.141 555.838 363.882 555.981 370.624C556.12 377.154 556.264 383.684 556.403 390.214C556.546 396.955 556.669 403.697 556.832 410.437C556.943 414.997 557.11 419.555 557.246 424.115C557.265 424.736 557.249 425.359 557.249 426.094C548.374 426.094 539.61 426.094 530.735 426.094C530.735 360.272 530.735 294.489 530.735 228.705C532.28 228.252 554.387 228.064 560.048 228.481C568.119 266.792 576.208 305.186 584.297 343.581C584.415 343.595 584.533 343.61 584.651 343.624C590.726 314.779 596.8 285.934 602.892 256.91Z"
    fill="#010101" />
  <path
    d="M490.902 170.646C490.902 157.915 490.902 145.396 490.902 132.764C480.261 132.764 469.742 132.764 459.098 132.764C459.098 158.169 459.098 183.487 459.098 208.953C449.717 208.953 440.458 208.953 431.048 208.953C431.005 208.584 430.903 208.122 430.902 207.66C430.895 149.514 430.846 91.368 430.959 33.2221C430.973 26.0335 432.424 19.017 436.377 12.7404C439.452 7.85675 443.734 4.52448 449.07 2.49177C453.646 0.748924 458.405 0.00540112 463.298 0.0160437C471.537 0.0339697 479.778 -0.0358971 488.017 0.0445341C492.246 0.0858116 496.381 0.863659 500.366 2.32812C508.412 5.2853 513.677 10.9495 516.444 18.9821C517.982 23.4481 518.785 28.0593 518.792 32.7933C518.888 90.6463 518.981 148.499 519.075 206.352C519.076 207.186 519.075 208.019 519.075 208.975C509.683 208.975 500.423 208.975 490.902 208.975C490.902 196.283 490.902 183.57 490.902 170.646ZM490.902 72.8639C490.902 61.2557 490.905 49.6475 490.896 38.0394C490.895 37.058 490.86 36.0709 490.752 35.0963C490.125 29.4469 486.669 26.0674 481.681 25.6751C477.629 25.3564 473.536 25.3145 469.473 25.4746C467.644 25.5468 465.699 26.1264 464.063 26.9715C460.264 28.9335 459.082 32.5001 459.079 36.5169C459.058 59.3111 459.068 82.1054 459.068 104.9C459.068 105.583 459.068 106.266 459.068 106.983C469.785 106.983 480.29 106.983 490.902 106.983C490.902 95.6489 490.902 84.4676 490.902 72.8639Z"
    fill="#020101" />
  <path
    d="M292.623 0.0220444C298.443 -0.0587663 303.883 0.835917 309.033 3.10786C315.663 6.0329 320.163 11.0104 322.758 17.7385C324.72 22.8284 325.655 28.1306 325.658 33.5627C325.685 80.9962 325.689 128.43 325.654 175.863C325.65 181.726 324.629 187.453 322.2 192.83C319.401 199.024 314.919 203.568 308.568 206.181C303.764 208.157 298.761 209.095 293.579 209.1C283.511 209.11 273.442 209.132 263.374 209.09C258.196 209.069 253.178 208.045 248.447 205.955C241.517 202.893 236.967 197.574 234.45 190.492C233.106 186.712 232.281 182.813 232.14 178.788C232.052 176.267 231.874 173.748 231.873 171.228C231.856 125.483 231.844 79.7385 231.886 33.994C231.89 29.1502 232.605 24.362 234.102 19.7249C237.505 9.18787 244.809 3.0248 255.557 0.926274C258.563 0.339165 261.676 0.0978569 264.745 0.0614593C273.967 -0.0479298 283.191 0.0220444 292.623 0.0220444ZM260.032 44.1423C260.032 86.6617 260.032 129.181 260.033 171.7C260.033 172.404 260.004 173.111 260.053 173.811C260.385 178.626 263.118 182.023 267.716 183.217C268.928 183.532 270.208 183.722 271.459 183.735C276.741 183.791 282.024 183.827 287.305 183.732C290.254 183.678 293.035 182.921 295.041 180.518C297.024 178.143 297.638 175.299 297.639 172.291C297.643 127.237 297.642 82.1836 297.642 37.13C297.642 36.778 297.666 36.424 297.638 36.0744C297.3 31.9167 295.924 28.3138 291.756 26.6406C289.973 25.9248 287.972 25.487 286.053 25.4217C281.129 25.254 276.191 25.239 271.266 25.3967C264.586 25.6105 259.995 28.8978 260.031 36.9619C260.041 39.2145 260.032 41.4672 260.032 44.1423Z"
    fill="#010101" />
  <path
    d="M2.82227 323.127C2.82227 291.467 2.82227 260.019 2.82227 228.466C11.7921 228.466 20.5651 228.466 29.4901 228.466C38.7855 259.8 48.0775 291.122 57.3695 322.444C57.4932 322.427 57.6169 322.409 57.7406 322.391C57.7406 291.129 57.7406 259.867 57.7406 228.483C66.6258 228.483 75.3203 228.483 84.1276 228.483C84.1276 294.321 84.1276 360.111 84.1276 426.054C75.4111 426.054 66.6685 426.054 57.7576 426.054C57.7576 425.31 57.7576 424.622 57.7576 423.934C57.7576 413.164 57.6835 402.393 57.8014 391.624C57.8382 388.26 57.2725 385.099 56.2612 381.922C51.5632 367.162 46.9488 352.376 42.2943 337.602C38.5238 325.635 34.7403 313.671 30.9582 301.707C30.5907 300.545 30.1927 299.392 29.4828 298.316C29.4828 340.859 29.4828 383.401 29.4828 426.076C20.6123 426.076 11.846 426.076 2.82227 426.076C2.82227 391.844 2.82227 357.591 2.82227 323.127Z"
    fill="#010101" />
  <path
    d="M236.961 290.497C239.206 298.045 241.415 305.427 243.615 312.811C244.495 315.765 245.349 318.726 246.228 321.68C246.321 321.995 246.5 322.284 246.906 322.543C246.906 291.224 246.906 259.905 246.906 228.474C255.713 228.474 264.345 228.474 273.126 228.474C273.126 294.256 273.126 360.102 273.126 426.078C264.511 426.078 255.823 426.078 246.933 426.078C246.933 425.454 246.933 424.844 246.933 424.234C246.933 412.76 246.868 401.286 246.981 389.814C247.007 387.119 246.188 384.711 245.416 382.251C240.441 366.402 235.429 350.564 230.444 334.718C226.764 323.022 223.108 311.319 219.437 299.62C219.316 299.232 219.15 298.858 219.022 298.522C218.875 298.494 218.794 298.455 218.74 298.478C218.699 298.494 218.679 298.591 218.674 298.654C218.651 298.934 218.622 299.214 218.622 299.494C218.611 341.587 218.602 383.679 218.59 425.772C218.59 425.83 218.526 425.888 218.415 426.077C209.734 426.077 200.975 426.077 192.106 426.077C192.106 360.232 192.106 294.393 192.106 228.457C200.878 228.457 209.585 228.457 218.545 228.457C218.92 229.676 219.336 230.984 219.726 232.3C225.46 251.643 231.19 270.987 236.961 290.497Z"
    fill="#010101" />
  <path
    d="M374.552 285.535C374.552 324.45 374.552 363.155 374.552 402.086C379.56 402.086 384.518 402.086 389.617 402.086C389.617 410.216 389.617 418.12 389.617 426.208C388.955 426.208 388.339 426.208 387.723 426.208C363.572 426.208 339.421 426.229 315.27 426.19C310.524 426.182 305.915 425.222 301.562 423.307C294.734 420.304 290.317 415.085 287.967 408.072C286.484 403.647 285.809 399.085 285.809 394.419C285.811 349.728 285.802 305.038 285.82 260.347C285.822 254.693 286.782 249.196 289.037 243.975C292.022 237.065 297.177 232.52 304.299 230.187C308.129 228.932 312.074 228.355 316.108 228.359C325.684 228.367 335.26 228.334 344.836 228.373C349.655 228.393 354.334 229.292 358.746 231.25C365.885 234.418 370.204 240.058 372.509 247.377C373.974 252.03 374.49 256.832 374.533 261.676C374.602 269.558 374.552 277.441 374.552 285.535ZM312.151 384.161C312.244 387.104 312.287 390.051 312.444 392.991C312.672 397.227 315.235 400.46 319.298 401.594C320.5 401.93 321.787 402.102 323.037 402.109C330.78 402.155 338.524 402.135 346.268 402.126C346.799 402.125 347.33 402.031 347.93 401.973C347.93 401.479 347.93 401.134 347.93 400.789C347.93 354.771 347.964 308.752 347.891 262.733C347.881 256.217 344.03 252.789 338.199 252.501C332.792 252.233 327.356 252.309 321.941 252.481C316.794 252.645 313.33 255.729 312.574 260.512C312.313 262.164 312.169 263.853 312.168 265.525C312.146 304.929 312.151 344.334 312.151 384.161Z"
    fill="#010101" />
  <path
    d="M96.9087 255.031C97.4872 249.622 98.8547 244.648 101.716 240.198C105.531 234.266 111.107 230.825 117.908 229.415C120.842 228.806 123.877 228.461 126.873 228.408C134.617 228.27 142.366 228.33 150.113 228.373C154.862 228.399 159.483 229.279 163.828 231.195C170.885 234.308 175.283 239.837 177.597 247.076C178.708 250.551 179.378 254.13 179.462 257.798C179.552 261.726 179.728 265.655 179.73 269.583C179.748 320.9 179.742 372.216 179.742 423.533C179.742 424.361 179.742 425.19 179.742 426.109C170.798 426.109 162.037 426.109 153.125 426.109C153.125 402.045 153.125 378.071 153.125 353.955C143.014 353.955 133.052 353.955 122.878 353.955C122.878 377.969 122.878 402 122.878 426.119C114.032 426.119 105.397 426.119 96.6024 426.119C96.5667 425.525 96.4987 424.924 96.4987 424.322C96.4938 369.486 96.4908 314.65 96.5112 259.813C96.5118 258.283 96.766 256.752 96.9087 255.031ZM124.921 256.272C123.081 258.879 122.876 261.929 122.867 264.92C122.804 285.952 122.833 306.985 122.84 328.017C122.84 328.548 122.933 329.079 122.98 329.588C133.094 329.588 143.05 329.588 153.121 329.588C153.121 328.674 153.121 327.907 153.121 327.14C153.121 311.806 153.121 296.471 153.121 281.136C153.121 275.016 153.229 268.894 153.092 262.777C152.949 256.395 149.273 252.583 142.821 252.449C139.656 252.383 136.488 252.414 133.321 252.444C130.085 252.474 127.254 253.48 124.921 256.272Z"
    fill="#010101" />
  <path
    d="M450.335 279.198C450.335 262.182 450.335 245.377 450.335 228.467C459.225 228.467 467.919 228.467 476.817 228.467C476.817 229.245 476.817 229.931 476.817 230.617C476.817 284.462 476.846 338.308 476.778 392.154C476.77 398.422 475.61 404.579 472.987 410.337C469.556 417.87 463.818 422.778 455.778 424.923C452.575 425.778 449.324 426.229 445.998 426.218C437.478 426.188 428.956 426.262 420.436 426.188C415.093 426.141 409.981 424.914 405.314 422.272C399.897 419.206 396.319 414.504 394.12 408.763C392.1 403.489 391.056 397.99 391.041 392.336C390.931 350.186 390.839 308.036 390.755 265.887C390.731 254.202 390.751 242.518 390.751 230.834C390.751 230.077 390.751 229.32 390.751 228.463C399.663 228.463 408.375 228.463 417.375 228.463C417.375 229.224 417.375 230.04 417.375 230.856C417.375 283.717 417.373 336.577 417.379 389.437C417.379 391.834 417.673 394.191 418.654 396.411C420.312 400.161 423.39 401.933 427.305 402.088C431.875 402.269 436.459 402.194 441.035 402.111C444.91 402.04 448.006 399.715 449.341 396.043C450.142 393.841 450.34 391.543 450.34 389.212C450.333 352.611 450.335 316.011 450.335 279.198Z"
    fill="#010101" />
  <path
    d="M205.023 2.65118C213.199 5.997 218.207 11.988 220.746 20.1495C222.19 24.7913 222.836 29.5716 222.84 34.4266C222.854 56.4599 222.913 78.4936 222.802 100.526C222.772 106.66 221.589 112.649 218.827 118.226C215.346 125.254 209.669 129.612 202.229 131.781C198.023 133.008 193.698 133.472 189.33 133.488C181.73 133.516 174.13 133.496 166.325 133.496C166.325 158.649 166.325 183.731 166.325 208.957C156.861 208.957 147.601 208.957 138.194 208.957C138.194 139.453 138.194 69.8768 138.194 0.152318C138.687 0.110989 139.222 0.0269933 139.757 0.0267821C157.153 0.0199133 174.548 -0.0246414 191.943 0.0527807C196.378 0.0725181 200.713 0.976876 205.023 2.65118ZM191.734 28.4315C189.195 26.1202 186.075 25.4282 182.789 25.3836C177.794 25.3157 172.797 25.3658 167.801 25.3658C167.328 25.3658 166.855 25.3658 166.302 25.3658C166.302 52.9594 166.302 80.3596 166.302 107.72C166.503 107.826 166.625 107.947 166.747 107.947C172.939 107.965 179.137 108.144 185.321 107.921C189.73 107.762 193.17 105.491 194.255 100.465C194.503 99.3145 194.655 98.1187 194.656 96.9437C194.68 76.8284 194.658 56.7131 194.689 36.5978C194.694 33.5966 193.918 30.9371 191.734 28.4315Z"
    fill="#020101" />
  <path
    d="M28.6002 171.913C28.6002 184.366 28.6002 196.608 28.6002 208.975C19.2668 208.975 10.0148 208.975 0.666016 208.975C0.666016 139.366 0.666016 69.7872 0.666016 0.022317C1.42408 0.022317 2.11026 0.022317 2.79643 0.022317C19.9107 0.022317 37.0253 -0.041647 54.139 0.0571518C60.0958 0.0915411 65.8481 1.39118 71.0725 4.39097C78.0845 8.41717 81.9393 14.7559 83.8338 22.4156C84.7436 26.0939 85.2326 29.8394 85.2309 33.6444C85.2207 55.96 85.2591 78.2758 85.204 100.591C85.189 106.681 84.0212 112.583 81.3373 118.102C77.8734 125.225 72.1342 129.629 64.6062 131.799C60.3977 133.013 56.0746 133.474 51.7065 133.489C44.8046 133.512 37.9025 133.495 31.0004 133.495C30.2996 133.495 29.5989 133.495 28.6002 133.495C28.6002 146.284 28.6002 158.993 28.6002 171.913ZM28.5986 60.6149C28.5986 76.3453 28.5986 92.0756 28.5986 107.78C29.0473 107.885 29.2468 107.972 29.4464 107.973C35.4997 107.982 41.5583 108.138 47.6045 107.932C52.0584 107.781 55.3504 105.758 56.7151 100.665C57.0542 99.4 57.1729 98.0421 57.177 96.7261C57.2119 85.5399 57.1969 74.3535 57.1969 63.1671C57.1969 54.2321 57.2712 45.2962 57.1705 36.3624C57.1049 30.5442 54.2351 27.0069 49.0808 25.8399C47.7919 25.5481 46.4457 25.3982 45.1237 25.3842C40.1972 25.3319 35.2697 25.36 30.3427 25.368C29.8045 25.3689 29.2665 25.4348 28.5986 25.4792C28.5986 37.1421 28.5986 48.6673 28.5986 60.6149Z"
    fill="black" />
  <path
    d="M421.594 182.501C420.899 187 419.734 191.155 417.62 195.012C413.921 201.765 408.123 205.758 400.822 207.725C397.218 208.697 393.531 209.127 389.787 209.111C382.535 209.081 375.281 209.2 368.031 209.071C362.286 208.969 356.759 207.767 351.642 204.992C345.722 201.781 341.946 196.802 339.702 190.579C338.341 186.805 337.5 182.906 337.364 178.877C337.267 176.005 337.096 173.133 337.095 170.261C337.078 124.727 337.062 79.1922 337.111 33.6579C337.117 28.3145 337.996 23.058 339.896 18.0198C343.249 9.13192 349.662 3.67304 358.783 1.31945C362.118 0.458941 365.523 0.0135268 368.98 0.0180901C376.161 0.0275715 383.344 -0.0147403 390.525 0.0328485C395.77 0.0676003 400.855 1.00593 405.67 3.14904C412.372 6.13263 416.86 11.1945 419.411 18.0138C421.068 22.4417 421.963 27.028 422.019 31.7604C422.123 40.6863 422.202 49.6126 422.285 58.5389C422.286 58.6646 422.202 58.7911 422.116 59.0366C412.9 59.0366 403.641 59.0366 394.247 59.0366C394.209 58.509 394.137 57.9701 394.136 57.4312C394.128 50.7453 394.152 44.0593 394.113 37.3737C394.105 36.1223 393.939 34.8575 393.709 33.6245C392.913 29.3582 390.227 26.7844 386.105 25.8643C382.17 24.9858 378.133 25.1918 374.146 25.534C368.257 26.0394 365.476 30.386 365.258 35.6769C365.243 36.0281 365.256 36.3806 365.256 36.7324C365.256 81.9853 365.254 127.238 365.265 172.491C365.265 173.54 365.281 174.616 365.504 175.633C366.587 180.592 369.577 183.315 374.696 183.67C377.986 183.898 381.321 183.898 384.61 183.651C390.189 183.232 393.192 180.225 393.975 174.65C394.112 173.68 394.12 172.687 394.125 171.705C394.141 167.918 394.131 164.132 394.131 160.226C403.53 160.226 412.779 160.226 422.207 160.226C422.241 160.978 422.298 161.659 422.3 162.341C422.308 166.353 422.389 170.367 422.274 174.375C422.198 177.025 421.834 179.668 421.594 182.501Z"
    fill="#020101" />
  <path
    d="M132.484 445.886C193.527 445.886 254.358 445.886 315.325 445.886C315.325 463.874 315.325 481.663 315.325 499.395C315.526 499.477 315.589 499.514 315.657 499.527C315.713 499.537 315.793 499.541 315.831 499.51C315.995 499.377 316.153 499.236 316.302 499.087C334.085 481.323 351.867 463.557 369.554 445.886C414.924 445.886 460.202 445.886 505.479 445.886C550.684 445.886 595.89 445.886 641.219 445.886C641.219 450.244 641.219 454.502 641.219 458.989C640.367 458.989 639.541 458.989 638.714 458.989C551.807 458.989 464.9 458.996 377.992 458.945C375.994 458.944 374.63 459.526 373.23 460.93C350.264 483.969 327.245 506.954 304.236 529.949C303.709 530.475 303.156 530.975 302.322 531.764C302.322 507.325 302.322 483.296 302.322 459.046C201.471 459.046 100.804 459.046 0 459.046C0 454.582 0 450.338 0 445.886C44.1325 445.886 88.2028 445.886 132.484 445.886Z"
    fill="#020404" />
  <path
    d="M544.136 136.531C545.558 130.92 547.3 125.592 549.746 120.533C552.848 114.116 556.77 108.23 561.681 103.036C562.837 101.814 564.02 100.614 565.253 99.4702C566.011 98.7666 566.269 98.1495 565.823 97.0923C562.679 89.6468 560.335 81.9485 559.113 73.955C558.532 70.1563 558.101 66.3057 558.009 62.4689C557.902 57.9849 557.956 53.4595 558.441 49.0066C559.551 38.8128 562.21 29.0483 567.77 20.2791C570.584 15.8401 574.054 11.9986 578.78 9.50782C586.333 5.5267 595.584 6.08067 602.11 12.5928C606.959 17.4315 609.561 23.3799 611.218 29.8537C612.545 35.0398 613.026 40.315 613.066 45.6718C613.116 52.4379 612.524 59.1033 610.858 65.6652C608.341 75.5814 603.611 84.3481 596.8 91.9363C593.804 95.2733 590.447 98.2902 587.205 101.401C585.755 102.792 585.68 102.953 586.552 104.809C591.237 114.776 595.887 124.758 600.589 134.717C603.765 141.444 607.005 148.141 610.217 154.851C610.787 156.04 611.361 157.227 612.077 158.712C612.454 157.943 612.75 157.436 612.96 156.896C616.066 148.906 618.265 140.651 620.062 132.286C622.149 122.575 623.721 112.776 624.873 102.909C624.952 102.235 625.161 101.575 625.318 100.867C629.818 100.867 634.238 100.867 638.773 100.867C638.773 101.419 638.844 101.957 638.763 102.47C637.547 110.138 636.376 117.813 635.064 125.464C633.501 134.581 631.352 143.567 628.651 152.419C626.521 159.4 624.009 166.235 620.739 172.765C620.124 173.993 620.192 174.876 620.796 176.05C625.674 185.545 630.486 195.073 635.312 204.595C636.094 206.138 636.84 207.7 637.691 209.431C631.608 209.431 625.792 209.431 619.73 209.431C616.47 203.152 613.145 196.747 609.745 190.196C609.384 190.68 609.055 191.099 608.749 191.535C604.568 197.49 599.89 202.95 593.764 207.042C587.598 211.161 580.822 213.126 573.445 212.703C567.136 212.341 561.646 209.887 556.983 205.567C550.58 199.633 546.987 192.101 544.581 183.907C543.159 179.062 542.349 174.1 541.851 169.062C541.316 163.655 541.317 158.25 541.662 152.861C542.011 147.423 542.73 142.004 544.136 136.531ZM556.262 150.949C556.261 153.736 556.279 156.522 556.257 159.309C556.228 163.113 556.828 166.846 557.689 170.523C559.009 176.164 561.094 181.491 564.77 186.073C570.637 193.387 578.809 194.875 587.045 191.173C591.167 189.32 594.425 186.335 597.366 182.996C599.493 180.581 601.294 177.923 602.733 175.206C592.536 154.306 582.421 133.576 572.228 112.684C562.266 123.486 557.186 136.14 556.262 150.949ZM573.693 73.2303C575.073 78.7189 576.894 84.0492 579.281 89.2387C582.526 86.5585 587.29 81.3064 590.592 76.8809C596.25 69.2986 599.26 60.7594 599.768 51.3464C599.987 47.2764 599.727 43.2073 598.944 39.2007C598.297 35.8892 597.332 32.6661 595.5 29.7788C593.757 27.0323 591.384 25.1266 588.06 24.8399C584.144 24.5022 581.159 26.3425 578.78 29.2864C576.863 31.6593 575.494 34.3552 574.558 37.24C572.223 44.4362 571.474 51.8146 571.843 59.3745C572.067 63.9446 572.661 68.4296 573.693 73.2303Z"
    fill="#020202" />
  <path
    d="M123.68 173.602C123.68 185.492 123.68 197.17 123.68 208.975C114.348 208.975 105.096 208.975 95.7471 208.975C95.7471 139.369 95.7471 69.7927 95.7471 0.119141C105.008 0.119141 114.204 0.119141 123.68 0.119141C123.68 57.8775 123.68 115.634 123.68 173.602Z"
    fill="black" />
  <path
    d="M516.962 376.769C516.962 393.299 516.962 409.618 516.962 426.072C508.085 426.072 499.327 426.072 490.453 426.072C490.453 360.243 490.453 294.404 490.453 228.471C499.26 228.471 508.015 228.471 516.962 228.471C516.962 277.906 516.962 327.232 516.962 376.769Z"
    fill="#010101" />
</svg>
