<svg width="225" height="225" viewBox="0 0 225 225" fill="none" xmlns="http://www.w3.org/2000/svg">
  <g clip-path="url(#clip0_447_1653)">
    <path
      d="M127 226C84.6667 226 42.8333 226 1 226C1 151 1 76 1 1.00001C76 1 151 1 226 1C226 76 226 151 226 226C193.167 226 160.333 226 127 226ZM52.9761 185.025C52.9761 185.025 52.9659 185.005 53.0119 185.726C53.6912 185.825 54.3706 185.924 54.9789 186.059C54.9789 186.059 54.9411 185.989 55.6611 186.387C61.5672 186.393 67.4732 186.4 74.3286 186.223C80.0694 185.445 81.4394 184.043 81.4628 178.28C81.5245 163.063 81.424 147.845 81.5835 132.63C81.5989 131.163 82.9784 129.711 83.7369 129.29C83.7323 143.1 83.7196 156.911 83.7283 170.721C83.7307 174.471 84.1989 177.913 89.9448 177.912C92.2167 176.479 94.4886 175.046 97.1485 174.087C97.6713 174.388 98.1941 174.69 98.8666 175.843C98.9859 183.047 98.9859 183.047 102.888 185.319C109.91 185.617 116.93 186.099 123.954 186.151C129.161 186.189 130.939 184.128 130.996 178.811C131.084 170.546 131.099 162.28 131.723 154.373C132.833 154.902 133.942 155.432 135.002 155.995C135.002 155.995 134.997 155.935 135.18 156.59C135.838 156.682 136.497 156.775 137.966 156.9C139.588 156.944 141.209 156.988 143.018 157.95C143.061 164.904 143.098 171.858 143.148 178.812C143.172 182.172 143.893 185.096 148.743 186.049C155.238 186.101 161.735 186.284 168.226 186.164C173.609 186.064 175.24 184.256 175.3 178.779C175.368 172.615 175.317 166.45 175.317 160.285C175.317 123.131 175.327 85.977 175.308 48.8229C175.304 42.1832 173.679 40.584 167.039 40.5188C162.541 40.4746 158.026 40.2842 153.55 40.5998C151.042 40.7765 148.598 41.851 145.404 42.9044C144.651 45.1159 143.273 47.3193 143.244 49.5403C143.032 65.6901 143.092 81.8435 142.137 98.1353C138.542 98.1353 134.947 98.1353 131.004 98.1353C131.004 81.256 131.029 64.8641 130.992 48.4723C130.976 41.0226 126.766 38.719 119.182 42.4402C118.384 43.9475 116.905 45.4492 116.893 46.963C116.737 66.0342 116.735 85.1075 116.848 104.179C116.869 107.634 118.309 110.374 123.304 110.154C131.116 110.242 138.927 110.385 146.739 110.404C156.304 110.428 157.745 108.966 157.748 99.5607C157.752 85.4219 157.68 71.2823 157.855 57.1457C157.873 55.6983 159.358 54.2691 160.785 53.4358C160.867 54.9279 161.021 56.4201 161.021 57.9123C161.031 96.5726 161.024 135.233 160.123 174.076C156.513 174.283 157.814 171.51 157.803 169.896C157.708 156.456 157.749 143.015 157.749 129.574C157.749 116.042 157.748 115.946 144.26 116.078C136.676 116.153 129.095 116.606 120.721 116.844C119.384 118.548 118.047 120.252 116.493 122.19C116.356 122.519 116.418 122.806 116.749 123.98C116.726 139.973 116.704 155.967 116.37 172.39C116.244 172.905 116.118 173.419 115.341 174.099C114.9 174.04 114.459 173.981 113.865 173.526C113.743 173.254 113.544 173.06 113.173 172.018C113.205 156.029 113.238 140.041 113.615 123.598C113.459 122.728 113.303 121.858 112.97 120.272C111.712 117.046 109.283 115.968 105.925 116.007C94.4722 116.138 83.0173 116.121 71.2269 116.35C71.0332 116.552 70.9567 116.791 70.9849 116.998C70.9849 116.998 71.0549 116.985 70.2791 116.997C66.721 118.192 67.0995 121.224 67.0939 123.997C67.0601 140.629 67.0684 157.26 66.1578 174.072C65.3461 173.187 63.8287 172.305 63.8264 171.418C63.7735 151.273 63.8864 131.128 64.9099 110.989C76.3325 110.988 87.7555 111.039 99.1775 110.951C102.11 110.929 105.039 110.468 108.716 110.051C112.366 108.895 113.235 106.188 113.196 102.668C113.087 92.8511 113.183 83.0317 113.148 73.2133C113.126 67.0529 111.269 65.1684 105.202 65.1085C100.272 65.0598 95.3418 65.0986 90.3998 65.0986C90.3998 60.569 90.3998 56.6674 90.3998 52.174C94.8032 52.174 99.052 52.7693 103 51.9372C105.159 51.482 107.913 48.8832 108.431 46.7691C109.209 43.5932 106.752 40.7596 103.35 40.6877C95.8921 40.5299 88.4213 40.9644 80.2296 41.1351C78.8041 43.0998 76.2684 44.9994 76.1488 47.0406C75.6771 55.0877 75.7935 63.1862 76.1161 71.2487C76.1796 72.834 78.1271 74.3439 79.9236 76.3139C86.198 76.6448 92.4725 76.9756 98.8811 78.1967C98.8927 84.7801 98.9044 91.3635 98.0018 98.1101C87.5995 98.1239 77.1966 98.0692 66.7955 98.1856C62.6999 98.2315 58.6086 98.6595 53.6928 98.8752C53.1159 99.5785 52.539 100.282 51.9865 100.986C51.9865 100.986 51.9776 100.963 51.2112 100.672C50.524 102.439 49.4439 104.161 49.2391 105.981C48.9059 108.943 49.1434 111.969 49.1433 114.968C49.143 135.96 49.0652 156.953 49.2694 177.943C49.2891 179.96 51.0646 181.96 52.0029 183.996C52.0029 183.996 52.033 183.979 51.7315 184.668C52.1533 184.79 52.575 184.913 52.9761 185.025Z"
      fill="#6F0475" />
    <path
      d="M96.7603 173.613C94.4884 175.046 92.2165 176.479 89.3349 177.601C87.8087 174.958 86.1475 172.641 86.0995 170.292C85.8386 157.5 86.0361 144.698 85.8768 131.903C85.8615 130.677 84.4747 129.469 83.7245 128.252C82.9783 129.711 81.5987 131.164 81.5833 132.631C81.4238 147.846 81.5244 163.063 81.4626 178.28C81.4392 184.043 80.0692 185.446 73.565 186.208C66.8481 186.125 60.8945 186.057 54.9409 185.989C54.9409 185.989 54.9787 186.059 54.829 185.791C54.1081 185.35 53.5369 185.178 52.9657 185.006C52.9657 185.006 52.976 185.026 52.9995 184.72C52.693 184.269 52.3629 184.124 52.0328 183.98C52.0328 183.98 52.0028 183.996 52.1305 183.673C52.1293 182.928 52.0002 182.506 51.916 181.611C51.9047 155.066 51.8485 128.994 51.8926 102.601C51.9877 101.841 51.9826 101.403 51.9774 100.964C51.9774 100.964 51.9864 100.987 52.3133 100.947C53.2652 100.243 53.8902 99.5785 54.5152 98.9138C58.6085 98.6599 62.6998 98.2319 66.7953 98.186C77.1964 98.0696 87.5994 98.1243 98.9044 98.0915C100.171 97.8076 100.847 97.5484 100.852 97.2768C100.964 91.1694 101.062 85.0595 100.952 78.9539C100.942 78.3918 99.5155 77.8552 98.7468 77.3068C92.4723 76.976 86.1979 76.6452 79.5168 75.6867C78.8377 65.136 78.4586 55.2135 78.416 45.2895C78.4101 43.9158 80.0679 42.535 80.9555 41.1575C88.4211 40.9648 95.8919 40.5303 103.35 40.6881C106.752 40.76 109.209 43.5936 108.431 46.7695C107.913 48.8836 105.159 51.4824 103 51.9375C99.0519 52.7697 94.803 52.1743 90.3997 52.1743C90.3997 56.6678 90.3997 60.5694 90.3997 65.099C95.3416 65.099 100.272 65.0602 105.202 65.1089C111.269 65.1687 113.125 67.0533 113.147 73.2137C113.182 83.0321 113.086 92.8515 113.195 102.669C113.234 106.188 112.365 108.896 107.889 110.037C94.3972 110.022 81.7314 109.984 69.0664 110.061C67.3651 110.072 65.6674 110.662 63.9681 110.983C63.8863 131.128 63.7733 151.273 63.8262 171.418C63.8285 172.305 65.3459 173.188 67.0539 174.052C68.4165 172.463 69.2761 170.898 69.2878 169.326C69.3932 155.229 69.243 141.13 69.4272 127.035C69.4711 123.679 70.4863 120.335 71.0548 116.985C71.0548 116.985 70.9848 116.998 71.1822 116.97C71.4973 116.694 71.5584 116.434 71.5629 116.16C83.0171 116.121 94.472 116.139 105.925 116.007C109.283 115.969 111.712 117.047 112.995 121.013C113.103 122.52 113.187 123.286 113.27 124.052C113.238 140.041 113.205 156.03 113.155 172.749C113.431 173.627 113.725 173.774 114.018 173.922C114.459 173.981 114.9 174.04 115.916 174.079C116.655 174.011 116.82 173.963 117.42 173.957C118.239 172.373 118.948 170.749 118.957 169.121C119.043 154.129 118.897 139.134 119.12 124.144C119.157 121.714 120.678 119.307 121.512 116.889C129.095 116.607 136.675 116.153 144.26 116.079C157.748 115.947 157.749 116.043 157.749 129.574C157.749 143.015 157.708 156.456 157.803 169.896C157.814 171.51 156.513 174.283 161.014 174.034C162.346 172.243 163.168 170.496 163.171 168.748C163.245 131.68 163.228 94.6115 163.226 57.5433C163.226 56.3799 163.593 54.9848 163.077 54.1234C162.631 53.3782 161.173 53.239 160.162 52.8319C159.358 54.2695 157.873 55.6987 157.855 57.1461C157.679 71.2827 157.752 85.4223 157.748 99.5611C157.745 108.966 156.304 110.428 146.739 110.404C138.927 110.385 131.116 110.242 122.662 109.813C121.017 107.005 119.18 104.551 119.144 102.071C118.893 84.441 118.979 66.8055 119.05 49.172C119.06 46.8847 119.602 44.5996 119.897 42.3134C126.765 38.7194 130.976 41.023 130.992 48.4726C131.029 64.8645 131.004 81.2564 131.004 98.1357C134.947 98.1357 138.542 98.1357 143.011 98.1449C144.489 96.5287 145.594 94.9112 145.62 93.2766C145.889 76.3598 145.983 59.4402 146.126 42.5214C148.598 41.8514 151.042 40.7769 153.549 40.6001C158.026 40.2846 162.541 40.475 167.039 40.5192C173.679 40.5844 175.304 42.1836 175.307 48.8233C175.327 85.9774 175.317 123.131 175.317 160.285C175.317 166.45 175.368 172.615 175.3 178.779C175.24 184.257 173.609 186.065 168.226 186.164C161.734 186.285 155.238 186.101 148.135 185.648C146.914 182.383 145.919 179.538 145.769 176.651C145.485 171.183 145.671 165.69 145.695 160.208C145.703 158.24 145.728 156.342 142.831 157.032C141.209 156.988 139.588 156.944 137.357 156.645C136.164 156.238 135.581 156.087 134.997 155.935C134.997 155.935 135.002 155.996 134.998 155.615C132.054 152.129 132.817 149.02 134.993 145.943C135.002 145.975 134.935 145.979 135.186 145.945C135.661 145.674 135.887 145.438 136.548 145.138C139.039 144.973 141.094 144.873 143.535 144.848C144.356 144.745 145.167 144.581 145.175 144.385C145.377 139.341 145.554 134.292 145.505 129.246C145.502 128.88 143.756 128.53 142.369 128.141C138.367 128.111 134.815 128.111 131.166 128.111C131.166 135.147 131.166 141.544 131.097 148.372C131.066 150.54 131.105 152.277 131.144 154.014C131.098 162.28 131.083 170.546 130.996 178.812C130.939 184.128 129.161 186.19 123.954 186.151C116.93 186.099 109.909 185.617 102.478 184.686C101.74 181.775 101.14 179.5 101.127 177.222C101.041 162.254 101.132 147.286 101.005 132.319C100.993 130.828 102.55 127.85 98.4517 128.129C97.7769 128.385 97.3948 128.693 96.8859 129.454C96.7595 144.476 96.7599 159.045 96.7603 173.613Z"
      fill="#FDFBFB" />
    <path
      d="M160.474 53.1338C161.173 53.2387 162.632 53.378 163.078 54.1232C163.593 54.9846 163.226 56.3797 163.226 57.5431C163.228 94.6113 163.246 131.68 163.172 168.748C163.168 170.496 162.346 172.243 161.463 173.942C161.025 135.233 161.031 96.5727 161.022 57.9125C161.021 56.4203 160.867 54.9281 160.474 53.1338Z"
      fill="#F67014" />
    <path
      d="M51.8715 182.085C52.0005 182.507 52.1296 182.928 52.1419 183.66C51.0648 181.961 49.2892 179.961 49.2696 177.943C49.0653 156.953 49.1432 135.96 49.1435 114.968C49.1435 111.969 48.9061 108.943 49.2392 105.981C49.444 104.161 50.5242 102.439 51.5945 100.818C51.9829 101.403 51.988 101.841 51.6578 102.948C51.2222 104.436 51.0351 105.256 51.0343 106.076C51.0098 129.98 50.9888 153.883 51.0326 177.787C51.0352 179.22 51.5793 180.652 51.8715 182.085Z"
      fill="#E76722" />
    <path
      d="M145.765 42.7129C145.983 59.44 145.889 76.3596 145.62 93.2765C145.595 94.9111 144.489 96.5285 143.476 98.0749C143.092 81.8437 143.032 65.6903 143.244 49.5405C143.273 47.3195 144.651 45.1161 145.765 42.7129Z"
      fill="#EF8140" />
    <path
      d="M119.539 42.377C119.601 44.5995 119.059 46.8847 119.05 49.172C118.979 66.8055 118.893 84.441 119.144 102.071C119.179 104.551 121.017 107.005 122.285 109.765C118.308 110.374 116.868 107.635 116.848 104.18C116.735 85.1078 116.737 66.0345 116.892 46.9633C116.905 45.4496 118.384 43.9478 119.539 42.377Z"
      fill="#F97913" />
    <path
      d="M70.6673 116.991C70.4868 120.335 69.4716 123.678 69.4277 127.035C69.2435 141.13 69.3936 155.229 69.2883 169.326C69.2765 170.897 68.4169 172.462 67.5067 173.961C67.0687 157.26 67.0604 140.629 67.0942 123.997C67.0998 121.224 66.7213 118.192 70.6673 116.991Z"
      fill="#EF6C1A" />
    <path
      d="M98.7441 128.181C102.55 127.85 100.992 130.827 101.005 132.319C101.132 147.286 101.041 162.254 101.127 177.221C101.14 179.5 101.74 181.775 102.117 184.466C98.9854 183.047 98.9854 183.047 98.8626 174.954C98.8212 159.366 98.7833 144.667 98.8089 129.674C98.8296 128.98 98.7869 128.58 98.7441 128.181Z"
      fill="#F97604" />
    <path
      d="M121.116 116.866C120.678 119.306 119.157 121.713 119.12 124.143C118.897 139.133 119.043 154.128 118.957 169.121C118.948 170.748 118.239 172.372 117.404 173.625C116.863 172.821 116.772 172.39 116.682 171.96C116.704 155.966 116.726 139.973 116.778 123.243C116.775 122.323 116.743 122.139 116.711 121.955C118.047 120.252 119.384 118.548 121.116 116.866Z"
      fill="#FA7A12" />
    <path
      d="M83.7312 128.771C84.4752 129.468 85.8621 130.676 85.8773 131.902C86.0367 144.698 85.8391 157.499 86.1001 170.291C86.148 172.641 87.8092 174.957 88.9614 177.574C84.1992 177.913 83.7311 174.47 83.7287 170.721C83.7199 156.91 83.7327 143.1 83.7312 128.771Z"
      fill="#F97C11" />
    <path
      d="M98.7462 129.968C98.7841 144.667 98.8219 159.366 98.7885 174.528C98.1944 174.689 97.6716 174.388 96.9548 173.849C96.7604 159.044 96.76 144.475 97.1125 129.556C97.8924 129.46 98.3193 129.714 98.7462 129.968Z"
      fill="#670071" />
    <path
      d="M142.925 157.491C145.728 156.342 145.703 158.24 145.695 160.208C145.672 165.69 145.486 171.183 145.769 176.65C145.919 179.538 146.914 182.382 147.654 185.602C143.893 185.096 143.172 182.172 143.148 178.812C143.098 171.858 143.061 164.904 142.925 157.491Z"
      fill="#EF803D" />
    <path
      d="M80.5929 41.1465C80.0683 42.535 78.4105 43.9158 78.4164 45.2895C78.459 55.2134 78.8381 65.136 79.1582 75.474C78.1273 74.3443 76.1798 72.8344 76.1164 71.2491C75.7937 63.1866 75.6773 55.0881 76.149 47.041C76.2686 44.9998 78.8043 43.1002 80.5929 41.1465Z"
      fill="#F87615" />
    <path
      d="M64.4395 110.986C65.668 110.661 67.3657 110.071 69.0669 110.061C81.7319 109.984 94.3977 110.021 107.516 110.116C105.039 110.468 102.11 110.929 99.1779 110.952C87.7559 111.04 76.3329 110.989 64.4395 110.986Z"
      fill="#B06589" />
    <path
      d="M98.8145 77.752C99.5162 77.8552 100.943 78.3918 100.953 78.9539C101.063 85.0595 100.965 91.1694 100.853 97.2768C100.848 97.5483 100.172 97.8076 99.3622 98.0099C98.9048 91.3639 98.8932 84.7805 98.8145 77.752Z"
      fill="#FA7706" />
    <path
      d="M131.434 154.194C131.106 152.277 131.067 150.54 131.367 148.192C132.799 147.025 133.892 146.467 134.985 145.91C132.817 149.02 132.054 152.129 135.023 155.598C133.942 155.432 132.833 154.902 131.434 154.194Z"
      fill="#F07624" />
    <path
      d="M55.3008 186.187C60.8943 186.057 66.8479 186.125 73.0903 186.3C67.4729 186.4 61.5669 186.393 55.3008 186.187Z"
      fill="#E76722" />
    <path
      d="M113.443 123.825C113.188 123.286 113.104 122.52 113.084 121.371C113.303 121.859 113.46 122.729 113.443 123.825Z"
      fill="#87448F" />
    <path
      d="M54.1037 98.8945C53.8899 99.5783 53.2649 100.243 52.3008 100.947C52.5386 100.282 53.1155 99.5788 54.1037 98.8945Z"
      fill="#E76722" />
    <path
      d="M135.089 156.262C135.581 156.086 136.165 156.238 136.952 156.628C136.497 156.775 135.839 156.682 135.089 156.262Z"
      fill="#F07624" />
    <path
      d="M116.526 172.176C116.773 172.391 116.863 172.822 116.97 173.584C116.821 173.963 116.656 174.011 116.242 173.996C116.118 173.419 116.244 172.905 116.526 172.176Z"
      fill="#9C285C" />
    <path
      d="M52.9893 185.366C53.5374 185.178 54.1086 185.35 54.865 185.773C54.3709 185.924 53.6916 185.825 52.9893 185.366Z"
      fill="#E76722" />
    <path
      d="M116.602 122.072C116.743 122.139 116.775 122.323 116.742 122.779C116.417 122.806 116.356 122.518 116.602 122.072Z"
      fill="#9C285C" />
    <path
      d="M71.395 116.255C71.5586 116.433 71.4975 116.693 71.1887 117.004C70.9568 116.791 71.0333 116.552 71.395 116.255Z"
      fill="#EF6C1A" />
    <path
      d="M113.942 173.723C113.725 173.774 113.431 173.627 113.204 173.212C113.545 173.06 113.743 173.254 113.942 173.723Z"
      fill="#87448F" />
    <path
      d="M51.8818 184.324C52.3626 184.124 52.6927 184.269 53.0096 184.724C52.5746 184.913 52.1528 184.791 51.8818 184.324Z"
      fill="#E76722" />
    <path
      d="M134.994 145.942C133.892 146.467 132.8 147.024 131.437 147.762C131.167 141.544 131.167 135.146 131.167 128.11C134.816 128.11 138.368 128.11 142.461 128.59C143.052 134.303 143.101 139.537 143.15 144.771C141.095 144.872 139.04 144.973 136.267 145.124C135.345 145.442 135.141 145.71 134.936 145.979C134.936 145.979 135.003 145.975 134.994 145.942Z"
      fill="#710674" />
    <path
      d="M51.916 181.611C51.579 180.652 51.0349 179.219 51.0322 177.786C50.9885 153.883 51.0095 129.979 51.034 106.076C51.0348 105.256 51.2219 104.436 51.5573 103.269C51.8486 128.993 51.9047 155.065 51.916 181.611Z"
      fill="#F1A668" />
    <path
      d="M143.535 144.848C143.101 139.538 143.052 134.304 142.911 128.621C143.756 128.53 145.502 128.88 145.506 129.246C145.554 134.292 145.377 139.341 145.175 144.385C145.167 144.581 144.357 144.745 143.535 144.848Z"
      fill="#EE803F" />
    <path
      d="M98.8095 129.674C98.3192 129.714 97.8923 129.46 97.2393 129.103C97.3952 128.692 97.7773 128.385 98.4521 128.129C98.7875 128.58 98.8302 128.98 98.8095 129.674Z"
      fill="#6F0475" />
    <path
      d="M135.186 145.944C135.14 145.711 135.345 145.442 135.831 145.188C135.887 145.437 135.662 145.674 135.186 145.944Z"
      fill="#F07624" />
  </g>
  <defs>
    <clipPath id="clip0_447_1653">
      <rect width="225" height="225" fill="white" />
    </clipPath>
  </defs>
</svg>
