<svg width="654" height="518" viewBox="0 0 654 518" fill="none" xmlns="http://www.w3.org/2000/svg">
  <path
    d="M279.109 484.33C253.694 477.918 230.851 467.073 210.627 450.946C195.763 439.092 183.401 424.987 173.744 408.593C171.841 405.363 169.699 403.864 165.728 404.265C150.833 405.767 135.905 406.936 120.993 408.26C114.031 408.878 107.079 409.6 100.115 410.198C98.668 410.322 96.8012 410.647 96.1064 408.974C95.2169 406.833 97.3326 406.212 98.6029 405.285C112.866 394.876 127.142 384.484 141.411 374.082C142.742 373.112 144.106 372.157 145.011 369.574C96.3571 371.077 48.1883 372.565 0.137202 374.049C-0.528326 370.626 1.35793 370.083 2.98539 369.263C40.7396 350.227 78.4874 331.178 116.235 312.13C124.555 307.931 132.893 303.767 141.17 299.485C142.721 298.682 144.613 298.165 145.895 295.372C130.68 291.977 115.721 288.616 100.75 285.305C85.5138 281.935 70.2016 278.882 55.0431 275.195C40.292 271.607 25.0976 269.604 10.6462 264.869C10.7338 264.049 10.8215 263.228 10.9092 262.407C55.1427 257.675 99.3761 252.942 143.592 248.211C143.591 244.802 141.55 243.915 140.133 242.681C117.891 223.322 95.6103 204.007 73.3537 184.664C71.6689 183.2 69.5924 181.925 69.6124 178.259C97.9405 189.04 125.748 199.622 153.266 210.094C155.451 208.046 154.485 206.079 154.684 204.353C155.639 196.07 162.124 190.038 170.47 189.977C179.091 189.914 187.714 189.963 198.003 189.963C183.035 160.634 168.697 132.538 154.352 104.428C157.33 102.696 158.363 104.676 159.604 105.808C188.289 131.96 216.985 158.1 245.584 184.344C249.431 187.875 252.812 190.32 258.181 186.839C261.108 184.941 262.331 183 262.3 179.643C262.189 167.479 262.396 155.31 262.17 143.15C262.09 138.88 263.54 136.391 267.49 134.679C278.058 130.098 288.918 126.572 300.317 124.9C304.22 124.328 305.838 122.701 306.348 118.544C309.745 90.8378 323.374 70.2988 349.442 58.9542C371.811 49.2191 394.581 47.6108 417.402 57.1059C436.191 64.9232 451.18 77.563 462.31 94.6866C466.069 100.471 470.497 105.542 476.723 108.915C483.085 112.362 489.022 110.557 494.901 107.883C499.474 105.802 503.556 102.911 507.265 99.5015C519.755 88.0184 534.237 97.0767 537.213 109.039C538.737 115.163 536.292 120.48 532.187 124.534C518.715 137.84 502.9 146.568 483.416 146.364C465.124 146.173 451.161 137.08 439.714 123.56C436.924 120.264 434.535 116.624 432.036 113.09C423.716 101.33 413.339 91.9783 399.134 88.4793C379.324 83.5997 353.491 90.0159 344.995 108.957C344.927 109.109 344.827 109.248 344.772 109.404C343.428 113.155 341.368 116.865 341.882 120.919C342.619 126.736 348.22 124.85 351.561 125.892C360.759 128.763 369.935 131.66 378.972 135.013C383.06 136.529 384.906 138.943 384.787 143.601C384.476 155.758 384.789 167.93 384.629 180.093C384.583 183.572 385.892 185.192 388.965 186.924C396.059 190.924 402.264 190.134 409.157 186.254C421.482 179.317 434.187 173.057 446.73 166.508C447.915 165.89 449.074 165.218 451.602 166.14C447.851 174.419 441.236 180.845 437.291 188.796C438.876 190.542 440.832 189.903 442.55 189.916C451.715 189.98 460.881 189.903 470.046 189.914C480.533 189.925 485.587 194.156 487.541 204.474C487.721 205.426 487.98 206.362 488.422 208.235C518.699 192.745 548.585 177.456 578.471 162.166C578.945 162.773 579.419 163.38 579.893 163.986C553.423 189.562 526.953 215.137 500.483 240.712C500.67 241.192 500.856 241.672 501.042 242.152C533.801 237.448 566.561 232.744 599.175 228.06C600.322 231.574 598.184 232.055 596.724 232.986C568.778 250.802 540.825 268.609 512.892 286.445C511.264 287.485 509.278 288.217 508.298 291.232C556.783 308.124 605.223 325.001 653.712 341.895C652.585 345.176 650.292 344.935 648.462 345.279C623.792 349.92 599.103 354.464 574.433 359.108C556.77 362.432 539.128 365.868 521.478 369.26C517.266 370.069 516.831 371.354 519.804 374.868C532.285 389.619 544.844 404.305 557.303 419.074C560.521 422.89 564.313 426.331 566.78 430.701C566.348 431.249 565.916 431.797 565.484 432.345C539.299 419.071 513.114 405.797 486.929 392.523C486.569 392.852 486.209 393.181 485.849 393.511C494.06 409.852 502.272 426.192 510.581 442.726C507.105 444.221 505.182 442.163 503.169 441.004C491.336 434.192 479.503 427.374 467.82 420.311C464.737 418.447 463.227 418.624 461.08 421.721C439.478 452.882 410.541 473.783 373.733 483.497C370.299 484.403 367.848 486.219 366.653 489.806C364.764 495.477 362.569 501.046 360.489 506.653C357.703 514.159 353.019 517.487 345.188 517.492C332.023 517.501 318.849 517.182 305.697 517.601C298.078 517.843 293.943 513.929 291.134 507.777C288.371 501.728 285.883 495.553 283.338 489.406C282.497 487.375 281.725 485.361 279.109 484.33ZM192.224 244.962C193.053 246.406 193.92 247.83 194.704 249.298C207.87 273.975 219.237 299.509 230.774 324.963C248.149 363.299 264.516 402.069 280.778 440.885C288.552 459.44 296.372 477.977 303.999 496.593C305.697 500.737 308.122 502.291 312.681 502.05C320.657 501.63 328.697 501.496 336.657 502.029C342.527 502.421 345.143 500.269 347.029 494.806C358.311 462.132 370.488 429.782 383.248 397.656C393.624 371.53 403.98 345.394 414.704 319.411C424.985 294.505 435.426 269.65 448.302 245.924C452.685 237.848 456.938 229.168 465.065 224.589C470.757 221.382 471.316 217.636 471.327 212.211C471.336 207.634 470.003 206.211 465.361 206.241C436.872 206.423 408.381 206.335 379.89 206.296C368.971 206.28 369.913 205.225 369.634 216.588C369.54 220.412 371.036 222.149 374.69 222.399C375.851 222.478 377.012 222.647 378.154 222.868C392.223 225.59 404.865 236.259 403.02 253.674C400.946 273.263 394.701 291.632 387.702 309.818C375.646 341.143 364.625 372.826 354.371 404.782C353.671 406.964 353.233 409.885 350.356 409.797C347.386 409.706 347.27 406.67 346.832 404.472C344.123 390.909 339.69 377.858 335.327 364.775C323.312 328.749 308.431 293.893 292.589 259.421C289.998 253.784 288.218 247.908 288.19 241.621C288.155 233.616 291.791 228.007 299.107 224.717C304.407 222.333 310.024 222.032 315.695 221.913C317.322 221.879 319.529 222.463 320.355 220.88C322.45 216.865 321.864 212.367 321 208.221C320.38 205.252 317.097 206.347 314.936 206.344C271.117 206.295 227.299 206.319 183.48 206.326C180.814 206.327 178.147 206.368 175.483 206.299C172.777 206.23 171.473 207.433 171.531 210.175C171.594 213.172 171.558 216.172 171.59 219.17C171.605 220.561 171.939 221.856 173.266 222.579C182.239 227.465 186.669 236.214 192.224 244.962Z"
    fill="black" />
  <path
    d="M532.728 26.9087C538.887 32.4153 543.858 38.299 546.89 45.7834C552.753 60.2516 544.646 78.3663 529.851 83.3713C527.439 84.1875 524.914 85.143 522.967 82.689C521.038 80.2574 520.012 77.5603 521.404 74.3427C523.589 69.2913 527.465 65.6439 531.278 61.9192C535.865 57.4378 538.369 52.2891 536.44 45.7342C535.322 41.9372 532.941 39.1534 529.086 36.5448C527.905 46.79 520.892 52.6404 514.483 58.8784C511.672 61.6139 509.32 64.52 508.839 68.5855C508.287 73.2499 509.431 77.1444 513.571 79.8563C515.165 80.901 516.983 81.8131 517.741 83.9353C505.814 84.5123 492.707 72.8918 493.346 62.6422C493.611 58.3896 496.023 55.2508 498.292 51.9433C501.413 47.3937 506.365 43.8922 506.13 37.3786C506.041 34.9059 508.23 34.9036 509.675 36.2175C511.474 37.8534 512.884 39.9175 514.699 42.0792C516.997 39.5569 516.299 36.9134 515.46 34.2108C513.883 29.1362 512.09 24.1081 510.878 18.9455C509.199 11.7949 513.991 2.65381 520.585 0C520.796 0.591675 521.346 1.33263 521.161 1.73203C517.621 9.355 521.846 14.7962 526.313 20.115C528.238 22.406 530.414 24.4848 532.728 26.9087Z"
    fill="black" />
</svg>
