<svg width="476" height="649" viewBox="0 0 476 649" fill="none" xmlns="http://www.w3.org/2000/svg">
  <path
    d="M419.321 410.958C416.007 432.412 412.744 453.425 409.504 474.442C405.579 499.895 401.641 525.345 397.77 550.806C394.301 573.626 390.928 596.46 387.485 619.283C386.005 629.092 384.455 638.891 382.919 648.812C378.13 648.842 374.348 646.941 370.446 645.734C300.646 624.142 230.868 602.477 161.085 580.829C156.475 579.398 151.906 577.806 147.237 576.604C144.303 575.849 143.16 574.182 142.951 571.332C141.605 552.92 140.255 534.508 138.795 516.104C137.295 497.211 135.638 478.33 134.106 459.439C132.977 445.519 131.962 431.591 130.854 417.669C129.284 397.946 127.65 378.228 126.093 358.503C124.967 344.243 123.958 329.973 122.83 315.713C121.283 296.155 119.65 276.604 118.097 257.047C116.977 242.958 115.927 228.863 114.845 214.771C114.008 203.869 113.169 192.968 112.998 181.635C122.97 193.278 133.164 204.425 146.357 212.418C139.528 203.693 132.83 194.86 125.833 186.272C118.981 177.864 116.604 167.56 113.129 157.71C112.097 154.782 113.788 153.138 116.204 151.72C121.512 148.604 127.54 147.268 134.468 144.54C125.563 140.374 118.252 143.748 110.911 145.207C108.722 143.705 109.081 141.4 108.888 139.321C108.275 132.704 107.73 126.08 107.119 119.463C106.763 115.594 107.862 111.876 108.292 108.094C108.554 105.796 110.537 105.181 112.668 104.722C123.432 102.403 133.486 104.855 143.288 109.063C145.88 110.176 148.353 111.565 151.411 113.092C148.163 107.245 143.313 104.015 138.054 101.36C131.016 97.8064 123.487 95.6431 115.711 94.535C112.236 94.0399 111.64 92.6892 112.643 89.5158C116.201 78.2546 121.767 68.12 129.057 58.8655C131.213 56.1288 133.432 55.5329 136.848 56.7346C151.666 61.9477 161.318 72.3484 167.531 86.3801C168.86 89.3812 170.146 92.4014 171.959 95.1527C177.39 70.789 164.108 56.2673 144.676 45.2016C146.932 40.9772 150.73 39.6785 153.831 37.6619C164.499 30.7259 176.297 26.9926 188.944 25.7708C192.913 25.3874 194.148 26.7352 194.7 30.9047C196.007 40.7803 194.886 50.4748 194.291 60.3614C196.43 55.8873 198.409 51.3303 200.953 47.0622C203.27 43.1753 205.594 39.3037 209.593 36.8897C212.526 35.1186 212.041 33.5397 209.79 31.5003C207.743 29.6464 204.596 29.3051 202.345 25.8102C211.178 26.5564 219.116 26.8341 225.142 32.9986C228.975 36.9205 232.54 41.1335 235.948 45.4353C240.802 51.5618 246.72 55.2546 254.776 54.8346C255.266 54.8091 255.777 54.9054 256.253 55.0369C256.55 55.1189 256.799 55.3737 257.708 55.9694C247.06 73.2064 229.523 82.1144 213.676 93.0756C224.075 89.7546 233.975 85.3776 243.368 79.8461C246.381 78.0721 249.594 76.5936 252.432 74.5796C255.843 72.1586 257.747 73.3037 259.507 76.5389C263.526 83.9262 265.992 91.8165 267.632 100.021C268.949 106.61 270.66 107.744 277.198 106.191C280.989 105.291 284.694 104.033 288.73 102.85C285.039 110.681 275.405 115.466 239.678 127.378C250.824 128.421 260.904 128.021 271.178 125.343C271.08 132.738 264.888 134.725 260.986 139.824C271.473 143.534 281.583 141.875 291.805 141.179C291.566 145.779 288.696 148.367 285.742 150.715C275.016 159.237 262.535 163.546 249.13 165.409C244.359 166.072 239.552 166.379 234.72 166.576C230.109 166.765 228.301 164.866 228.279 160.607C228.254 155.5 228.273 150.392 228.273 145.34C224.955 144.9 224.139 146.835 222.918 148.024C207.244 163.271 193.635 180.349 179.561 197.014C170.533 207.704 161.582 218.46 152.475 229.082C150.266 231.658 149.348 234.339 149.458 237.715C149.66 243.87 149.516 250.037 149.516 257.503C154.071 248.989 157.892 241.444 162.533 234.368C182.3 204.229 210.505 188.159 245.959 184.022C249.018 183.665 250.609 184.795 250.238 187.777C249.545 193.345 252.543 193.878 257.078 193.853C272.993 193.765 283.897 202.229 287.488 217.34C289.708 226.686 287.394 234.824 279.95 241.199C274.801 245.607 268.905 248.597 262.288 250.12C260.323 250.572 258.325 250.92 257.306 252.99C252.747 262.254 245.59 268.983 236.679 274.142C255.04 270.739 271.482 261.901 289.878 255.467C288.16 258.87 285.774 259.45 283.907 260.639C268.167 270.659 252.489 280.782 236.595 290.553C232.956 292.791 231.16 295.444 230.595 299.514C224.537 343.219 211.247 384.755 192.885 424.763C189.6 431.919 189.671 431.901 197.03 435.086C234.214 451.181 257.289 480.021 271.383 517.107C277.5 533.201 281.126 549.905 284.537 566.691C284.823 568.099 285.186 569.492 285.669 571.559C286.32 566.783 286.378 562.582 289.871 558.529C291.677 580.488 295.949 600.565 316.811 613.325C316.81 609.494 313.428 607.972 313.678 604.777C316.717 604.707 318.535 607.864 322.001 607.4C316.574 602.035 314.863 596.002 317.796 587.974C322.993 595.887 329.658 599.61 339.076 598.441C329.68 594.155 328.452 590.063 334.383 582.118C339.384 575.42 345.389 569.711 353.323 566.225C354.937 568.962 351.837 570.612 352.384 573.253C365.968 569.349 366.424 557.081 369.287 546.415C372.781 548.74 372.781 548.74 374.165 553.822C378.657 535.547 378.44 515.33 366.315 501.367C360.66 494.855 354.138 489.766 345.935 487.665C340.043 486.155 338.079 483.366 338.734 477.569C339.2 473.455 339.078 469.227 338.753 465.086C338.416 460.792 340.117 458.75 344.022 456.825C358.955 449.463 372.563 440.298 381.445 425.598C382.302 424.18 383.066 422.693 383.739 421.178C388.487 410.485 388.514 410.4 378.359 405.54C375.376 404.112 373.787 402.447 373.594 398.843C372.893 385.727 371.784 372.632 370.845 359.528C369.584 341.948 368.325 324.368 367.089 306.786C366.343 296.169 365.583 285.553 364.938 274.93C364.151 261.982 363.473 249.027 362.761 236.075C362.708 235.115 362.754 234.149 362.754 232.514C379.009 234.974 395.484 240.716 408.95 226.583C405.574 227.497 402.611 229.761 399.055 230.354C396.289 230.815 393.077 233.341 390.844 229.127C390.648 228.759 389.004 229.132 388.036 229.204C380.695 229.747 373.389 229.792 366.284 227.469C364.236 226.799 362.02 226.217 361.985 223.358C361.954 220.754 363.985 220.118 365.803 219.348C378.071 214.153 390.352 208.987 402.634 203.824C404.28 203.132 406.08 202.699 407.51 200.611C402.207 197.47 396.69 195.247 392.144 191.251C380.342 180.88 376.166 167.129 373.849 152.402C373.328 149.089 375.716 147.762 377.896 146.173C395.848 133.083 406.69 115.029 412.773 94.1467C417.026 79.5471 410.781 67.6896 397.182 60.6091C382.463 52.9449 366.6 52.0543 350.542 52.0428C334.533 52.0314 319.059 54.4868 304.685 62.0903C301.323 63.8691 298.608 66.7727 294.203 67.992C286.144 48.7989 275.59 31.2719 258.395 18.1547C260.952 16.0767 263.296 16.7992 265.44 17.0125C287.76 19.2341 310.08 21.4607 332.386 23.8226C352.868 25.9915 373.324 28.4102 393.808 30.5657C411.486 32.426 429.191 34.0277 446.875 35.8302C455.134 36.672 463.358 37.8774 471.626 38.5962C475.113 38.8994 475.818 40.5775 475.367 43.5116C473.296 56.9715 471.232 70.4326 469.157 83.8918C465.284 109.005 461.392 134.116 457.533 159.232C453.245 187.136 448.955 215.04 444.72 242.952C439.936 274.49 435.246 306.041 430.454 337.577C426.959 360.574 423.363 383.555 419.824 406.545C419.621 407.861 419.527 409.194 419.321 410.958ZM162.307 243.733C159.092 248.175 156.244 252.954 152.56 256.966C148.722 261.145 149.808 265.898 149.486 270.606C148.966 278.195 155.847 276.254 159.472 278.495C159.881 278.748 160.454 278.722 160.893 278.94C163.142 280.06 164.565 279.132 165.924 277.273C172.957 267.652 181.508 259.573 191.226 252.703C193.573 251.044 195.268 249.008 195.323 245.581C190.578 246.777 188.091 251.254 182.191 252.701C187.224 244.958 191.518 238.35 196.48 230.717C190.513 232.606 187.572 237.077 181.393 238.183C185.704 230.804 189.459 224.377 193.214 217.95C192.816 217.648 192.419 217.346 192.021 217.044C180.564 223.784 171.263 233.024 162.307 243.733ZM418.264 142.402C409.444 142.418 400.619 142.584 391.804 142.378C388.141 142.292 386.073 143.739 384.236 146.786C379.044 155.403 382.607 164.387 381.334 174.151C400.572 168.521 415.45 159.527 425.929 143.741C423.466 142.006 421.242 142.576 418.264 142.402ZM269.766 216.991C262.957 211.469 256.156 210.84 249.598 215.125C244.31 218.581 241.383 225.906 242.984 231.68C244.832 238.342 249.992 243.143 256.071 243.89C263.287 244.777 268.786 242.072 272.499 235.881C276.213 229.688 275.497 224.3 269.766 216.991ZM219.72 256.811C219.113 257.647 217.662 257.836 217.774 259.66C224.024 255.483 230.034 251.426 236.088 247.437C239.276 245.336 239.108 243.555 234.102 240.238C229.474 245.63 224.846 251.023 219.72 256.811ZM234.208 257.623C237.679 254.465 241.647 251.78 244.443 247.613C240.202 246.349 233.726 252.726 227.94 263.241C229.971 261.425 231.831 259.764 234.208 257.623ZM249.048 254.513C250.465 252.335 249.984 250.868 247.266 249.899C245.69 252.682 244.424 255.315 244.752 258.699C246.765 257.796 247.687 256.395 249.048 254.513ZM226.927 238.738C226.685 239.404 225.59 239.834 226.478 241.018C229.17 238.775 233.914 238.526 233.938 232.77C230.41 234 229.034 236.351 226.927 238.738Z"
    fill="black" />
  <path
    d="M300.701 71.7434C309.05 65.7724 317.871 61.8887 327.698 59.9434C328.299 62.6763 326.485 64.1037 325.975 65.9527C324.756 70.3628 326.308 72.7619 330.847 72.7404C336.028 72.7159 341.137 72.9358 346.181 74.3203C357.921 77.5425 364.012 85.2063 364.519 97.3585C364.779 103.584 363.707 109.607 362.472 115.66C361.652 119.682 360.057 120.944 355.957 119.231C346.936 115.462 337.462 113.857 327.662 114.431C326.03 114.527 324.306 114.182 322.027 116.074C336.767 126.969 351.297 137.709 365.946 148.537C364.25 150.143 363.219 149.293 362.302 148.75C343.983 137.906 324.049 131.753 303.124 128.689C299.151 128.108 298.465 126.319 299.121 123.015C301.959 108.708 300.904 94.5106 297.512 80.4702C296.602 76.7005 296.938 73.958 300.701 71.7434Z"
    fill="black" />
  <path
    d="M85.7006 550.663C86.5612 548.217 86.8636 546.127 86.8737 543.918C86.8898 540.413 85.3475 538.486 81.859 538.522C65.2384 538.697 48.8458 536.188 32.3824 534.481C28.369 534.065 25.4474 527.992 27.2948 523.291C28.1448 521.128 29.3122 519.093 30.2224 516.951C31.4099 514.157 33.3648 513.541 36.2606 514.099C52.4365 517.218 68.911 517.841 85.2276 519.801C96.9378 521.207 108.664 522.489 120.359 524.009C125.197 524.638 127.529 527.576 128.65 532.537C130.98 542.852 132.315 553.053 130.579 563.623C129.807 568.322 127.653 571.23 123.239 572.628C119.267 573.885 115.217 575.259 111.066 574.908C108.854 574.721 105.155 575.798 104.89 571.64C104.633 567.59 104.507 563.49 109.32 561.585C114.238 559.64 117.124 560.873 119.32 565.904C119.566 566.469 120.023 566.942 120.867 568.153C123.533 564.787 123.773 561.353 123.398 557.891C123.06 554.761 122.21 551.691 121.75 548.57C121.037 543.733 118.019 541.242 113.48 540.556C108.392 539.788 103.265 539.211 98.1347 538.805C94.9454 538.553 92.8704 539.525 92.9725 543.579C93.1153 549.248 91.6983 554.737 89.7367 560.099C87.1592 567.144 82.7535 570.187 75.3885 569.906C61.2597 569.366 47.1272 568.915 32.9944 568.486C27.5708 568.321 24.9517 566.477 24.8743 562.527C24.7724 557.322 28.1458 553.896 33.4065 553.817C36.747 553.766 40.0328 554.271 43.3431 554.573C46.6766 554.878 49.3038 555.408 49.4779 559.44C49.5498 561.104 50.6669 561.622 52.1602 561.785C58.7586 562.505 65.2545 564.05 71.9665 563.875C81.0598 563.638 82.0771 562.968 84.5853 554.4C84.912 553.284 85.2517 552.171 85.7006 550.663Z"
    fill="black" />
  <path
    d="M38.6271 266.711C32.3762 267.645 26.5433 267.369 20.7279 267.405C18.4099 267.419 15.4664 268.259 15.5571 264.053C15.6285 260.742 13.7989 256.964 19.2517 256.018C27.1017 254.658 34.9096 253.089 42.9036 252.785C45.0009 252.705 47.26 253.274 49.4695 251.307C47.8351 246.36 46.2076 241.334 47.6446 235.648C49.425 228.603 53.4108 224.298 60.1667 222.16C69.824 219.105 79.8108 219.11 89.7721 218.835C92.9278 218.747 94.0047 220.776 94.6801 223.442C96.1805 229.364 95.3467 235.368 95.3368 241.324C95.3303 245.196 96.1883 247.027 100.591 246.929C106.044 246.806 107.014 250.775 105.281 255.84C101.768 266.107 93.4633 265.439 85.386 266.456C69.9402 268.401 54.5166 265.981 38.6271 266.711ZM70.3195 235.737C66.1546 236.83 61.641 236.512 57.7335 238.522C55.2027 239.824 51.4849 240.93 52.833 244.858C54.0937 248.531 55.5836 252.59 60.9931 251.959C67.748 251.172 74.5201 250.525 81.2923 249.899C87.9508 249.284 90.5375 246.6 90.8118 240.042C90.9373 237.041 90.0524 235.234 86.6641 235.332C81.5151 235.482 76.3621 235.496 70.3195 235.737Z"
    fill="black" />
  <path
    d="M76.5284 423.268C82.3105 421.454 87.8008 420.244 93.4165 419.416C105.38 417.653 112.183 422.414 113.257 434.443C113.781 440.313 115.148 445.917 116.78 451.46C117.938 455.392 116.872 457.671 113.598 459.8C103.531 466.347 102.565 466.051 99.8182 454.703C99.4664 453.249 99.0955 451.8 98.7653 450.341C97.0084 442.58 97.0102 442.574 104.421 439.999C105.656 439.57 107.088 439.439 107.518 437.258C102.981 434.966 98.1268 435.099 93.2888 435.931C89.5302 436.578 85.8485 437.671 82.1323 438.564C75.499 440.159 71.9713 447.846 75.6938 453.853C78.4442 458.291 76.4907 460.183 72.7193 461.028C62.0806 463.41 51.2729 463.958 40.6038 461.506C33.6148 459.9 28.2099 451.7 27.869 443.598C27.6189 437.654 31.6087 432.432 38.5645 429.403C42.9113 427.51 47.3783 426.44 52.1442 426.79C57.0605 427.151 59.476 429.497 59.3737 433.858C59.2423 439.463 57.3783 441.145 52.0211 441.383C48.2366 441.551 45.4733 440.973 44.9386 436.56C44.6539 434.211 42.9404 434.171 41.1781 434.785C37.9458 435.911 36.1218 438.366 34.7835 441.833C39.3281 445.343 44.4913 446.114 49.8266 445.672C54.9539 445.248 60.0463 444.371 65.1429 443.618C68.0559 443.187 69.8605 441.832 70.2206 438.498C70.4705 436.185 70.9168 433.87 70.7171 431.565C70.3481 427.304 71.7926 424.434 76.5284 423.268Z"
    fill="black" />
  <path
    d="M31.4334 64.7397C23.1266 66.2972 21.6822 65.7398 20.6046 57.907C19.3469 48.7653 17.9062 39.6119 20.6418 30.2592C23.6492 19.9774 30.1505 14.3323 40.3183 12.0562C53.9935 8.99489 67.8944 7.95872 81.8172 7.08473C83.4161 6.98436 85.1505 7.42024 86.6646 8.0111C88.4317 8.70066 91.0177 8.77238 91.3914 11.1198C91.8368 13.9178 89.1664 14.3982 87.333 15.4329C86.4939 15.9065 85.2629 16.5107 85.1133 17.2407C84.406 20.6939 82.0198 21.4791 78.5264 21.1987C78.6083 29.424 79.9347 37.0375 82.2975 44.4604C84.5328 51.4824 83.4511 54.0873 76.3054 55.5922C62.9268 58.4097 51.2016 55.4311 42.1039 44.6513C36.7058 38.255 36.4175 33.2753 40.8466 26.0359C41.3501 25.2128 41.8255 24.3725 42.4012 23.3914C26.7398 23.9811 23.5876 29.096 26.2586 46.9758C34.4295 45.7053 36.494 46.363 37.3198 50.4995C39.6058 61.9501 39.2851 62.776 31.4334 64.7397ZM57.9107 35.7802C61.218 36.0865 64.5228 36.5872 67.8335 36.6303C70.0248 36.6588 73.2535 36.8918 73.4084 33.9213C73.6027 30.1954 71.7312 26.5489 72.1392 22.6333C72.2692 21.3859 70.6703 20.9616 69.5577 20.6471C61.1207 18.2621 51.48 21.6962 46.3726 28.4796C44.2765 31.2636 45.2605 32.7201 47.7905 33.8297C50.7028 35.1071 53.8458 35.5586 57.9107 35.7802Z"
    fill="black" />
  <path
    d="M100.541 321.521C90.8664 327.615 81.1641 326.253 71.6257 322.441C66.2934 320.31 62.1639 316.278 58.804 311.606C54.9945 306.309 54.9349 301.846 58.3635 296.371C59.1322 295.144 60.3985 294.131 60.2985 292.452C45.4258 292.78 42.0955 297.872 44.0291 315.819C45.1852 316.768 46.2277 315.831 47.3019 315.601C52.9078 314.403 54.9299 315.82 55.5441 321.409C55.5986 321.905 55.6548 322.401 55.7283 322.894C56.1804 325.929 58.0586 329.646 55.105 331.726C51.7541 334.086 47.4216 334.822 43.1493 334.326C40.973 334.073 40.0836 332.349 39.7005 330.524C37.1117 318.193 35.8028 305.897 41.0249 293.829C44.5258 285.739 51.5177 282.687 59.4206 280.9C72.7623 277.882 86.3523 276.957 99.9523 276.158C101.246 276.082 102.643 276.293 103.862 276.732C105.989 277.498 109.05 277.631 109.591 280.1C110.231 283.019 107.01 283.334 105.196 284.64C102.499 286.582 101.777 290.704 97.3661 291.076C96.1701 291.176 96.4218 294.356 96.8188 296.154C98.2832 302.784 98.5945 309.674 101.369 316.016C102.138 317.773 102.007 319.604 100.541 321.521ZM64.4209 301.54C71.9429 306.196 80.4693 304.85 88.6365 305.406C91.1399 305.576 92.4542 303.543 91.6264 300.868C90.8302 298.296 90.4006 295.696 90.54 293.001C90.634 291.185 89.5446 290.029 87.964 289.826C82.1489 289.081 76.0851 288.51 70.933 291.657C67.6766 293.646 63.5783 295.877 64.4209 301.54Z"
    fill="black" />
  <path
    d="M80.4414 76.1679C74.4398 75.6634 70.6053 70.7049 71.502 65.1638C71.7755 63.4741 72.7861 62.9577 74.2355 62.8643C76.0634 62.7465 77.9167 62.8372 79.7215 62.5772C91.1701 60.9283 88.5818 61.6715 90.3031 71.3306C91.1443 76.0512 90.4359 80.955 89.5315 85.7409C88.2869 92.3265 86.2295 94.504 79.4325 95.3854C73.668 96.133 67.8387 96.4031 62.0891 97.2367C55.1935 98.2365 54.8717 98.9296 56.0913 105.612C56.3877 107.236 56.4335 108.917 56.4719 110.575C56.5351 113.309 56.4441 116.163 53.2711 117.186C50.6363 118.036 48.343 116.793 46.4797 114.974C44.1083 112.66 45.2731 110.03 46.1297 107.513C46.3317 106.92 46.8239 106.361 47.3144 105.94C49.4905 104.073 48.5159 101.9 47.7109 99.9713C46.785 97.7526 44.5505 98.4202 42.8483 98.6056C33.0861 99.6687 23.4036 101.226 13.9329 103.898C9.87571 105.043 6.00462 104.185 2.20135 102.83C0.686998 102.29 -0.950156 100.849 0.670652 99.5662C4.80491 96.2945 5.0208 91.3968 6.20982 87.086C7.56187 82.1842 10.5236 80.7149 14.9529 80.8492C23.2718 81.1013 31.5856 81.5602 39.9057 81.7246C46.5629 81.8562 46.7963 81.5026 47.1345 74.7125C47.1924 73.5495 47.1146 72.3802 47.1628 71.2164C47.2404 69.3422 46.4036 66.9248 49.5973 66.7625C52.4685 66.6165 52.4833 68.9789 53.0719 70.8087C53.2234 71.2797 53.3395 71.789 53.3346 72.2794C53.2352 82.1896 54.8657 81.2454 64.0849 80.5398C69.0581 80.1591 74.0685 80.1012 79.005 79.4028C80.272 79.2236 83.9322 79.3279 80.4414 76.1679Z"
    fill="black" />
  <path
    d="M61.3049 509.494C52.0765 509.445 49.184 507.314 45.7434 499.242C42.6325 491.944 44.0959 484.87 46.2488 477.798C47.0837 475.055 49.2264 473.515 52.0405 472.832C63.5427 470.041 75.4327 469.778 87.0119 467.434C90.0428 466.821 91.6912 468.886 91.4629 471.963C91.1312 476.435 90.5677 480.889 90.2073 485.36C89.8968 489.21 90.8435 491.443 95.5846 490.27C99.4326 489.318 103.504 489.3 107.451 488.704C109.952 488.326 111.804 487.061 111.936 484.194C112.068 481.345 110.431 480.697 107.911 480.327C103.909 479.739 103.463 476.111 103.108 473.073C102.744 469.968 105.685 469.503 107.86 468.957C114.148 467.379 115.945 468.671 116.378 475.322C116.627 479.14 116.934 482.934 117.359 486.74C118.167 493.991 113.964 500.136 105.721 503.364C96.6123 506.931 87.4866 510.508 77.2728 509.51C72.158 509.01 66.9496 509.468 61.3049 509.494ZM55.4618 481.941C51.9146 482.266 50.0629 483.856 50.5064 487.76C50.9547 491.705 52.9684 493.164 56.8219 493.028C63.1361 492.804 69.4621 492.927 75.7789 492.752C84.6517 492.506 85.4973 491.337 84.9309 482.669C84.7176 479.404 83.5033 478.556 80.3823 478.413C72.1036 478.033 64.2766 480.497 55.4618 481.941Z"
    fill="black" />
  <path
    d="M114.65 47.5883C110.458 53.2795 107.913 59.57 103.366 65.0015C102.925 61.4827 102.346 57.9747 102.067 54.4431C100.732 37.5608 99.4911 20.6711 98.1852 3.7865C97.9689 0.989158 99.0625 -0.253941 101.933 0.0429026C120.916 2.00596 139.903 3.93286 158.885 5.90352C159.461 5.9633 160 6.37369 161.755 7.15249C142.409 17.1605 126.417 29.7283 114.65 47.5883Z"
    fill="black" />
  <path
    d="M27.741 366.737C24.9909 365.974 23.0686 364.065 20.4798 363.999C17.5338 371.833 21.2034 378.344 29.4301 379.821C37.9384 381.349 46.3855 380.076 54.6586 378.389C67.1897 375.833 79.5772 372.579 92.0495 369.726C95.9169 368.841 98.0195 366.455 100.231 363.202C104.771 356.521 104.885 349.73 103.034 342.381C102.608 340.689 102.402 338.757 103.584 336.912C107.08 336.627 106.846 339.508 107.304 341.548C109.686 352.171 107.649 362.327 103.591 372.149C101.018 378.377 95.2032 381.457 89.4959 383.295C77.0208 387.313 64.5936 392.116 51.5699 393.688C39.1055 395.192 27.8244 390.598 19.0147 381.622C11.9774 374.453 12.0135 358.941 18.2352 351.161C22.7746 345.484 27.2883 344.642 33.3936 348.355C34.5311 349.047 35.6358 349.794 36.7426 350.535C39.9355 352.672 44.4176 353.95 41.426 359.533C37.5127 366.837 33.9045 369.002 27.741 366.737Z"
    fill="black" />
  <path
    d="M82.5825 196.429C85.0236 196.209 87.011 196.004 89.0028 195.941C93.1181 195.811 94.3537 198.524 94.8728 201.966C95.3857 205.367 93.5476 206.639 90.5643 207.451C78.1634 210.829 65.4718 212.337 52.7227 213.325C48.05 213.687 43.5798 215.059 38.9524 215.395C34.3215 215.732 33.4254 214.418 35.711 210.552C37.7177 207.158 36.2039 204.818 34.4456 201.946C28.7025 192.568 25.2166 182.71 30.2234 171.772C31.7702 168.392 33.5147 164.576 37.8598 164.997C42.1767 165.415 45.3642 168.564 47.4927 172.22C49.1469 175.062 46.1373 176.628 44.7732 178.551C43.5786 180.235 42.2537 181.711 39.8181 180.579C38.1836 179.819 36.4746 179.219 34.3505 178.367C31.7506 184.645 34.733 189.434 37.6579 194.196C39.9849 197.984 42.7743 199.799 47.8663 199.164C59.2214 197.746 70.7016 197.331 82.5825 196.429Z"
    fill="black" />
  <path
    d="M54.6378 129.43C64.8691 128.345 74.7277 129.331 84.4833 128.003C87.5093 127.591 89.0943 128.964 89.5671 132.033C90.198 136.129 90.931 140.225 91.9346 144.243C92.9409 148.271 91.53 149.232 87.6331 148.903C74.8903 147.827 62.1578 146.58 49.3464 146.404C44.6922 146.341 41.0973 146.919 40.6962 152.584C40.5596 154.512 39.6544 156.355 37.2994 155.997C35.1897 155.677 35.219 153.586 35.1081 152.011C34.8866 148.862 34.9268 145.696 34.8388 142.537C34.7976 141.059 34.9228 139.592 33.9218 138.253C30.9499 134.279 31.6109 132.374 36.3443 130.701C41.0428 129.04 45.9072 130.011 50.6909 129.713C51.8517 129.641 53.0129 129.573 54.6378 129.43Z"
    fill="black" />
  <path
    d="M299.392 439.406C298.161 442.654 297.085 445.566 295.791 449.066C291.237 443.087 293.182 437.129 294.483 431.59C297.202 420.013 306.872 409.469 323.524 415.12C326.036 415.973 328.604 416.696 331.041 417.728C336.409 420.004 338.912 425.295 337.296 430.815C336.431 433.772 334.573 434.839 331.613 433.406C329.072 432.176 326.543 430.912 323.948 429.809C314.51 425.797 307.489 427.792 301.445 436.148C300.765 437.089 300.177 438.095 299.392 439.406Z"
    fill="black" />
  <path
    d="M22.9344 135.235C22.8133 136.455 22.6721 137.273 22.5775 138.097C21.7853 144.994 15.0614 149.357 8.45368 147.295C7.00491 146.843 6.23163 145.82 5.94841 144.485C5.53631 142.543 5.29005 140.562 5.03452 138.589C4.49415 134.418 5.73584 131.521 10.2915 130.494C16.185 129.164 21.0475 130.703 22.9344 135.235Z"
    fill="black" />
  <path
    d="M262.329 235.328C259.46 235.728 257.025 235.77 254.892 234.07C251.635 231.472 251.018 226.652 253.565 223.451C255.937 220.471 261.163 219.75 264.35 221.962C267.735 224.311 268.499 228.945 266.116 232.502C265.257 233.784 264.097 234.654 262.329 235.328Z"
    fill="black" />
</svg>
